<svg version="1.1" id="Layer_1" xmlns="http://www.w3.org/2000/svg" xmlns:xlink="http://www.w3.org/1999/xlink" x="0px" y="0px"
	 width="100%" viewBox="0 0 553 535" enable-background="new 0 0 1166 535" xml:space="preserve">
<path fill="#99045A" opacity="1.000000" stroke="none" 
	d="
M389.028717,386.244202 
	C389.023621,386.545105 388.892975,386.774506 388.032227,386.973633 
	C384.890442,387.753784 382.324615,388.407227 379.820892,389.246155 
	C367.876617,393.248138 357.069031,390.489929 347.677307,382.854279 
	C341.935394,378.186035 337.159515,372.329559 332.088257,366.697510 
	C361.646210,336.968079 391.090393,307.572388 420.409210,278.052216 
	C421.816833,276.634918 422.818451,274.051758 422.634552,272.144073 
	C422.545013,271.215363 419.280670,269.932312 417.450867,269.927979 
	C366.856171,269.807800 316.261108,269.821472 265.666138,269.844208 
	C259.073425,269.847198 256.801788,273.003204 258.355225,279.479126 
	C259.787537,285.450195 261.053894,291.461090 262.068848,297.230743 
	C244.186340,281.799347 243.394501,260.098145 259.763641,243.633377 
	C264.222809,239.148178 268.593658,234.575226 273.296387,229.877121 
	C288.082001,215.329132 302.576294,200.946564 317.379120,186.728485 
	C331.689117,200.876770 345.673126,214.878098 359.722260,228.813812 
	C360.953674,230.035263 362.577271,231.616730 364.077728,231.682373 
	C371.048431,231.987366 378.044037,231.957031 385.022064,231.751343 
	C388.013611,231.663147 388.723724,229.829758 386.900513,227.386612 
	C386.112732,226.330948 385.064575,225.468552 384.127502,224.525513 
	C366.669830,206.956039 349.211060,189.387604 331.953918,171.551422 
	C336.738617,166.688675 341.139008,161.891525 345.942566,157.539368 
	C356.650635,147.837616 368.886230,145.424927 382.510742,150.569046 
	C384.018158,151.138214 385.629059,151.433289 387.191986,151.855484 
	C387.191986,151.855484 387.099915,151.881470 387.141357,152.184540 
	C387.814087,152.650665 388.445435,152.813736 389.076752,152.976791 
	C389.076752,152.976791 389.010834,152.986755 388.972229,153.250626 
	C389.242615,153.758606 389.551636,154.002716 389.860657,154.246841 
	C393.272278,157.363708 396.807495,160.356628 400.075989,163.616959 
	C427.549896,191.021820 454.977692,218.472931 482.413422,245.916046 
	C495.065033,258.571045 495.001923,280.483246 482.286194,293.211578 
	C451.801880,323.726105 421.315338,354.238373 390.311035,385.068207 
	C389.537811,385.671295 389.283264,385.957733 389.028717,386.244202 
z"/>
<path fill="#ED2C1D" opacity="1.000000" stroke="none" 
	d="
M156.579895,385.887207 
	C125.005981,354.374603 93.380615,322.913269 61.894115,291.313568 
	C53.972103,283.363098 51.733761,267.323975 57.015831,256.463531 
	C59.127083,252.122589 61.880020,247.821808 65.258232,244.411469 
	C95.481583,213.900650 125.909790,183.592773 156.801178,152.955994 
	C157.554626,152.431625 157.784622,152.176483 158.014603,151.921326 
	C158.014603,151.921326 157.983047,151.993896 158.334900,151.993225 
	C161.497543,151.035736 164.260513,149.893402 167.127502,149.154770 
	C178.432587,146.242218 188.981674,148.112305 197.910034,155.641327 
	C203.704041,160.527237 208.680023,166.383194 213.860229,172.111511 
	C184.136520,201.992188 154.565872,231.556641 125.021446,261.147278 
	C119.125092,267.052856 119.156036,271.985565 125.065605,277.903107 
	C145.431213,298.296204 165.833221,318.653015 186.191513,339.053406 
	C195.601837,348.483215 204.943130,357.981903 214.082764,367.676300 
	C209.264374,372.471436 204.743790,377.107086 200.078079,381.591766 
	C193.292572,388.113983 185.099396,391.715942 175.722214,390.920624 
	C169.734131,390.412781 163.877991,388.348969 157.962692,386.982788 
	C157.962692,386.982788 158.024811,386.973175 157.897018,386.700073 
	C157.372787,386.247040 156.976334,386.067139 156.579895,385.887207 
z"/>
<path fill="#FC6920" opacity="1.000000" stroke="none" 
	d="
M214.022491,171.804504 
	C208.680023,166.383194 203.704041,160.527237 197.910034,155.641327 
	C188.981674,148.112305 178.432587,146.242218 167.127502,149.154770 
	C164.260513,149.893402 161.497543,151.035736 158.298706,151.977234 
	C159.011490,150.734924 160.057602,149.453232 161.221161,148.288940 
	C190.058105,119.433533 219.203918,90.878319 247.614944,61.609779 
	C259.709106,49.150574 286.292358,49.150299 298.385040,61.612423 
	C327.717163,91.840698 357.761902,121.377487 387.355743,151.524200 
	C385.629059,151.433289 384.018158,151.138214 382.510742,150.569046 
	C368.886230,145.424927 356.650635,147.837616 345.942566,157.539368 
	C341.139008,161.891525 336.738617,166.688675 331.672516,171.423096 
	C314.960236,155.340073 298.732819,139.115723 282.500214,122.896576 
	C275.103821,115.506310 270.650269,115.538216 263.189331,122.957291 
	C246.807663,139.247025 230.412277,155.522949 214.022491,171.804504 
z"/>
<path fill="#B50C81" opacity="1.000000" stroke="none" 
	d="
M158.072021,387.302734 
	C163.877991,388.348969 169.734131,390.412781 175.722214,390.920624 
	C185.099396,391.715942 193.292572,388.113983 200.078079,381.591766 
	C204.743790,377.107086 209.264374,372.471436 214.332886,367.807434 
	C227.295761,380.176819 239.812241,392.605530 252.247314,405.115173 
	C274.355225,427.355591 271.233002,427.533020 293.351440,405.292389 
	C306.129913,392.443359 319.078003,379.763000 331.949768,367.006744 
	C337.159515,372.329559 341.935394,378.186035 347.677307,382.854279 
	C357.069031,390.489929 367.876617,393.248138 379.820892,389.246155 
	C382.324615,388.407227 384.890442,387.753784 387.833984,387.027008 
	C358.593994,416.757416 329.227600,446.763214 299.156555,476.045319 
	C287.925598,486.981628 271.012482,488.835449 256.981079,482.289185 
	C251.890945,479.914429 247.068085,476.346680 243.056702,472.379456 
	C214.629028,444.264587 186.443832,415.904541 158.072021,387.302734 
z"/>
<path fill="#FFFEFE" opacity="1.000000" stroke="none" 
	d="
M332.088257,366.697510 
	C319.078003,379.763000 306.129913,392.443359 293.351440,405.292389 
	C271.233002,427.533020 274.355225,427.355591 252.247314,405.115173 
	C239.812241,392.605530 227.295761,380.176819 214.565826,367.580505 
	C204.943130,357.981903 195.601837,348.483215 186.191513,339.053406 
	C165.833221,318.653015 145.431213,298.296204 125.065605,277.903107 
	C119.156036,271.985565 119.125092,267.052856 125.021446,261.147278 
	C154.565872,231.556641 184.136520,201.992188 213.860214,172.111511 
	C230.412277,155.522949 246.807663,139.247025 263.189331,122.957291 
	C270.650269,115.538216 275.103821,115.506310 282.500214,122.896576 
	C298.732819,139.115723 314.960236,155.340073 331.471130,171.690643 
	C349.211060,189.387604 366.669830,206.956039 384.127502,224.525513 
	C385.064575,225.468552 386.112732,226.330948 386.900513,227.386612 
	C388.723724,229.829758 388.013611,231.663147 385.022064,231.751343 
	C378.044037,231.957031 371.048431,231.987366 364.077728,231.682373 
	C362.577271,231.616730 360.953674,230.035263 359.722260,228.813812 
	C345.673126,214.878098 331.689117,200.876770 317.241028,186.447021 
	C304.342133,173.533112 291.918579,161.036255 279.422333,148.612518 
	C274.906769,144.123138 271.073792,143.870148 266.875793,148.041229 
	C253.915100,160.918900 241.091721,173.934769 227.919220,187.077454 
	C202.552002,212.318146 177.473801,237.371582 152.414581,262.444000 
	C147.092514,267.768890 147.163620,271.308136 152.635544,276.784088 
	C171.457504,295.619873 190.275864,314.459290 209.128586,333.264252 
	C215.715347,339.834351 222.397751,346.308533 229.183380,353.132812 
	C241.693512,365.816376 254.034134,378.216339 266.432434,390.558411 
	C270.690643,394.797302 274.445831,395.263550 278.185669,391.554474 
	C291.307037,378.540710 304.255646,365.352753 317.569519,352.081635 
	C336.008942,333.801544 354.184265,315.705994 372.220917,297.473175 
	C373.663025,296.015350 374.147583,293.610321 375.077118,291.645447 
	C372.964325,290.764404 370.857971,289.135925 368.737762,289.117645 
	C346.921906,288.929688 325.103088,289.090759 303.286835,288.924561 
	C299.132538,288.892914 296.096069,290.434509 293.987640,293.627686 
	C289.141327,300.967255 284.545807,308.472443 279.558563,316.079285 
	C277.649292,318.702972 276.172089,321.270569 274.351318,323.565582 
	C273.428101,324.729248 271.884979,325.401093 270.622101,326.295258 
	C269.936005,325.092682 269.042145,323.959961 268.609253,322.672272 
	C267.831573,320.358978 267.330688,317.952637 266.707031,315.175537 
	C265.264435,308.995392 263.828888,303.224915 262.393372,297.454437 
	C261.053894,291.461090 259.787537,285.450195 258.355225,279.479126 
	C256.801788,273.003204 259.073425,269.847198 265.666138,269.844208 
	C316.261108,269.821472 366.856171,269.807800 417.450867,269.927979 
	C419.280670,269.932312 422.545013,271.215363 422.634552,272.144073 
	C422.818451,274.051758 421.816833,276.634918 420.409210,278.052216 
	C391.090393,307.572388 361.646210,336.968079 332.088257,366.697510 
z"/>
<path fill="#ED2C1D" opacity="1.000000" stroke="none" 
	d="
M229.036484,352.826538 
	C222.397751,346.308533 215.715347,339.834351 209.128586,333.264252 
	C190.275864,314.459290 171.457504,295.619873 152.635544,276.784088 
	C147.163620,271.308136 147.092514,267.768890 152.414581,262.444000 
	C177.473801,237.371582 202.552002,212.318146 228.232025,187.182755 
	C230.479752,188.474884 232.225708,189.733719 233.741226,191.226517 
	C246.852676,204.141312 259.922668,217.098190 273.005005,230.042542 
	C268.593658,234.575226 264.222809,239.148178 259.763641,243.633377 
	C243.394501,260.098145 244.186340,281.799347 262.068848,297.230743 
	C263.828888,303.224915 265.264435,308.995392 266.375183,315.379761 
	C253.712433,328.271271 241.374466,340.548920 229.036484,352.826538 
z"/>
<path fill="#FC6920" opacity="1.000000" stroke="none" 
	d="
M273.296387,229.877106 
	C259.922668,217.098190 246.852676,204.141312 233.741226,191.226517 
	C232.225708,189.733719 230.479752,188.474884 228.527832,187.002289 
	C241.091721,173.934769 253.915100,160.918900 266.875793,148.041229 
	C271.073792,143.870148 274.906769,144.123138 279.422333,148.612518 
	C291.918579,161.036255 304.342133,173.533112 316.932495,186.282532 
	C302.576294,200.946564 288.082001,215.329132 273.296387,229.877106 
z"/>
<path fill="#B60C81" opacity="1.000000" stroke="none" 
	d="
M229.183380,353.132812 
	C241.374466,340.548920 253.712433,328.271271 266.382263,315.789429 
	C267.330688,317.952637 267.831573,320.358978 268.609253,322.672272 
	C269.042145,323.959961 269.936005,325.092682 270.622101,326.295258 
	C271.884979,325.401093 273.428101,324.729248 274.351318,323.565582 
	C276.172089,321.270569 277.649292,318.702972 279.854980,316.252502 
	C282.939606,318.657379 285.457336,321.037903 287.932709,323.461731 
	C297.718994,333.044098 307.491974,342.640045 317.269897,352.230957 
	C304.255646,365.352753 291.307037,378.540710 278.185669,391.554474 
	C274.445831,395.263550 270.690643,394.797302 266.432434,390.558411 
	C254.034134,378.216339 241.693512,365.816376 229.183380,353.132812 
z"/>
<path fill="#99035A" opacity="1.000000" stroke="none" 
	d="
M317.569519,352.081635 
	C307.491974,342.640045 297.718994,333.044098 287.932709,323.461731 
	C285.457336,321.037903 282.939606,318.657379 280.144958,316.083679 
	C284.545807,308.472443 289.141327,300.967255 293.987640,293.627686 
	C296.096069,290.434509 299.132538,288.892914 303.286835,288.924561 
	C325.103088,289.090759 346.921906,288.929688 368.737762,289.117645 
	C370.857971,289.135925 372.964325,290.764404 375.077118,291.645447 
	C374.147583,293.610321 373.663025,296.015350 372.220917,297.473175 
	C354.184265,315.705994 336.008942,333.801544 317.569519,352.081635 
z"/>
</svg>