<svg version="1.1" id="Layer_1" xmlns="http://www.w3.org/2000/svg" xmlns:xlink="http://www.w3.org/1999/xlink" x="0px" y="0px"
	 width="100%" viewBox="0 0 1166 535" enable-background="new 0 0 1166 535" xml:space="preserve">
<path fill="#99045A" opacity="1.000000" stroke="none" 
	d="
M389.028717,386.244202 
	C389.023621,386.545105 388.892975,386.774506 388.032227,386.973633 
	C384.890442,387.753784 382.324615,388.407227 379.820892,389.246155 
	C367.876617,393.248138 357.069031,390.489929 347.677307,382.854279 
	C341.935394,378.186035 337.159515,372.329559 332.088257,366.697510 
	C361.646210,336.968079 391.090393,307.572388 420.409210,278.052216 
	C421.816833,276.634918 422.818451,274.051758 422.634552,272.144073 
	C422.545013,271.215363 419.280670,269.932312 417.450867,269.927979 
	C366.856171,269.807800 316.261108,269.821472 265.666138,269.844208 
	C259.073425,269.847198 256.801788,273.003204 258.355225,279.479126 
	C259.787537,285.450195 261.053894,291.461090 262.068848,297.230743 
	C244.186340,281.799347 243.394501,260.098145 259.763641,243.633377 
	C264.222809,239.148178 268.593658,234.575226 273.296387,229.877121 
	C288.082001,215.329132 302.576294,200.946564 317.379120,186.728485 
	C331.689117,200.876770 345.673126,214.878098 359.722260,228.813812 
	C360.953674,230.035263 362.577271,231.616730 364.077728,231.682373 
	C371.048431,231.987366 378.044037,231.957031 385.022064,231.751343 
	C388.013611,231.663147 388.723724,229.829758 386.900513,227.386612 
	C386.112732,226.330948 385.064575,225.468552 384.127502,224.525513 
	C366.669830,206.956039 349.211060,189.387604 331.953918,171.551422 
	C336.738617,166.688675 341.139008,161.891525 345.942566,157.539368 
	C356.650635,147.837616 368.886230,145.424927 382.510742,150.569046 
	C384.018158,151.138214 385.629059,151.433289 387.191986,151.855484 
	C387.191986,151.855484 387.099915,151.881470 387.141357,152.184540 
	C387.814087,152.650665 388.445435,152.813736 389.076752,152.976791 
	C389.076752,152.976791 389.010834,152.986755 388.972229,153.250626 
	C389.242615,153.758606 389.551636,154.002716 389.860657,154.246841 
	C393.272278,157.363708 396.807495,160.356628 400.075989,163.616959 
	C427.549896,191.021820 454.977692,218.472931 482.413422,245.916046 
	C495.065033,258.571045 495.001923,280.483246 482.286194,293.211578 
	C451.801880,323.726105 421.315338,354.238373 390.311035,385.068207 
	C389.537811,385.671295 389.283264,385.957733 389.028717,386.244202 
z"/>
<path fill="#ED2C1D" opacity="1.000000" stroke="none" 
	d="
M156.579895,385.887207 
	C125.005981,354.374603 93.380615,322.913269 61.894115,291.313568 
	C53.972103,283.363098 51.733761,267.323975 57.015831,256.463531 
	C59.127083,252.122589 61.880020,247.821808 65.258232,244.411469 
	C95.481583,213.900650 125.909790,183.592773 156.801178,152.955994 
	C157.554626,152.431625 157.784622,152.176483 158.014603,151.921326 
	C158.014603,151.921326 157.983047,151.993896 158.334900,151.993225 
	C161.497543,151.035736 164.260513,149.893402 167.127502,149.154770 
	C178.432587,146.242218 188.981674,148.112305 197.910034,155.641327 
	C203.704041,160.527237 208.680023,166.383194 213.860229,172.111511 
	C184.136520,201.992188 154.565872,231.556641 125.021446,261.147278 
	C119.125092,267.052856 119.156036,271.985565 125.065605,277.903107 
	C145.431213,298.296204 165.833221,318.653015 186.191513,339.053406 
	C195.601837,348.483215 204.943130,357.981903 214.082764,367.676300 
	C209.264374,372.471436 204.743790,377.107086 200.078079,381.591766 
	C193.292572,388.113983 185.099396,391.715942 175.722214,390.920624 
	C169.734131,390.412781 163.877991,388.348969 157.962692,386.982788 
	C157.962692,386.982788 158.024811,386.973175 157.897018,386.700073 
	C157.372787,386.247040 156.976334,386.067139 156.579895,385.887207 
z"/>
<path fill="#FC6920" opacity="1.000000" stroke="none" 
	d="
M214.022491,171.804504 
	C208.680023,166.383194 203.704041,160.527237 197.910034,155.641327 
	C188.981674,148.112305 178.432587,146.242218 167.127502,149.154770 
	C164.260513,149.893402 161.497543,151.035736 158.298706,151.977234 
	C159.011490,150.734924 160.057602,149.453232 161.221161,148.288940 
	C190.058105,119.433533 219.203918,90.878319 247.614944,61.609779 
	C259.709106,49.150574 286.292358,49.150299 298.385040,61.612423 
	C327.717163,91.840698 357.761902,121.377487 387.355743,151.524200 
	C385.629059,151.433289 384.018158,151.138214 382.510742,150.569046 
	C368.886230,145.424927 356.650635,147.837616 345.942566,157.539368 
	C341.139008,161.891525 336.738617,166.688675 331.672516,171.423096 
	C314.960236,155.340073 298.732819,139.115723 282.500214,122.896576 
	C275.103821,115.506310 270.650269,115.538216 263.189331,122.957291 
	C246.807663,139.247025 230.412277,155.522949 214.022491,171.804504 
z"/>
<path fill="#B50C81" opacity="1.000000" stroke="none" 
	d="
M158.072021,387.302734 
	C163.877991,388.348969 169.734131,390.412781 175.722214,390.920624 
	C185.099396,391.715942 193.292572,388.113983 200.078079,381.591766 
	C204.743790,377.107086 209.264374,372.471436 214.332886,367.807434 
	C227.295761,380.176819 239.812241,392.605530 252.247314,405.115173 
	C274.355225,427.355591 271.233002,427.533020 293.351440,405.292389 
	C306.129913,392.443359 319.078003,379.763000 331.949768,367.006744 
	C337.159515,372.329559 341.935394,378.186035 347.677307,382.854279 
	C357.069031,390.489929 367.876617,393.248138 379.820892,389.246155 
	C382.324615,388.407227 384.890442,387.753784 387.833984,387.027008 
	C358.593994,416.757416 329.227600,446.763214 299.156555,476.045319 
	C287.925598,486.981628 271.012482,488.835449 256.981079,482.289185 
	C251.890945,479.914429 247.068085,476.346680 243.056702,472.379456 
	C214.629028,444.264587 186.443832,415.904541 158.072021,387.302734 
z"/>
<path fill="#444444" opacity="1.000000" stroke="none" 
	d="
M659.845093,145.818054 
	C652.208862,141.687607 645.388245,136.042526 637.568176,133.607864 
	C607.598145,124.277184 574.591248,135.658752 562.728699,168.796402 
	C551.218994,200.948563 567.271973,236.430313 600.429810,246.177994 
	C618.229919,251.410812 635.484192,248.497482 652.368408,241.857254 
	C655.009033,240.818787 656.097839,239.085358 656.056519,236.127747 
	C655.905396,225.296616 655.846924,214.458908 656.077087,203.630539 
	C656.160339,199.711700 654.607300,198.848557 651.066956,198.937576 
	C643.072144,199.138611 635.067322,198.909454 627.069519,199.038544 
	C624.089600,199.086639 622.699890,198.082108 622.986084,195.008804 
	C623.109192,193.687134 623.145874,192.325531 622.974731,191.014297 
	C622.456848,187.044815 624.137817,185.861160 628.048340,185.923325 
	C641.044983,186.129837 654.049622,186.150391 667.045227,185.913818 
	C671.117554,185.839676 672.103088,187.299240 672.069153,191.107742 
	C671.910339,208.939529 671.939575,226.773880 672.056641,244.606308 
	C672.075684,247.512192 671.070312,249.050293 668.469788,250.308563 
	C640.542664,263.821259 611.772827,267.339478 582.945435,254.612991 
	C561.654907,245.213837 548.423584,227.895081 544.169495,204.801086 
	C541.040527,187.815033 542.495850,171.072784 550.820312,155.436935 
	C562.550720,133.403549 581.224670,121.547966 605.580994,117.964806 
	C622.760681,115.437431 639.372009,117.310654 654.966309,125.115219 
	C660.350342,127.809761 665.116760,131.738388 670.956299,135.630524 
	C666.869690,139.486359 663.535706,142.632111 659.845093,145.818054 
z"/>
<path fill="#444444" opacity="1.000000" stroke="none" 
	d="
M1030.026367,185.119354 
	C1023.403687,174.473419 1005.166138,174.884949 996.559875,182.837738 
	C988.551636,190.237869 985.245239,199.476837 985.064514,209.940903 
	C984.811401,224.596909 984.890015,239.261902 985.072693,253.919998 
	C985.120728,257.771271 984.052551,259.209595 980.020874,259.074890 
	C968.096558,258.676575 970.084595,260.513184 970.034241,248.971878 
	C969.923706,223.649918 970.123413,198.325989 969.892212,173.005661 
	C969.848022,168.162704 971.260498,166.248184 976.053650,166.974792 
	C977.193787,167.147614 978.395752,167.117859 979.545776,166.982162 
	C983.115356,166.561035 984.291626,168.211517 984.039368,171.604614 
	C983.834839,174.355453 983.997803,177.133636 983.997803,181.424042 
	C992.438354,170.033310 1002.291748,164.939438 1015.288086,164.811554 
	C1028.853271,164.678055 1038.038086,170.509613 1044.080933,181.675491 
	C1047.952881,177.993469 1051.679199,174.094894 1055.772217,170.629242 
	C1065.237183,162.614990 1091.866577,161.885544 1103.344116,173.008591 
	C1110.157715,179.611740 1113.669556,188.201157 1113.870728,197.545074 
	C1114.279541,216.528122 1113.924072,235.526627 1114.060425,254.517471 
	C1114.085815,258.050049 1112.849243,259.136200 1109.424683,259.050781 
	C1096.908569,258.738556 1099.140869,260.525635 1099.034546,248.874496 
	C1098.893433,233.382431 1099.062500,217.887787 1098.976685,202.394913 
	C1098.914917,191.247925 1092.729004,180.708221 1083.877808,178.205246 
	C1069.093628,174.024445 1056.309082,179.077744 1051.200317,195.586227 
	C1049.614136,200.711517 1049.201538,206.340515 1049.094360,211.755585 
	C1048.813843,225.910629 1048.890015,240.076294 1049.071899,254.234528 
	C1049.119995,257.971649 1047.918701,259.168518 1044.206787,259.063812 
	C1032.052368,258.721008 1034.121094,260.445435 1034.031982,249.157028 
	C1033.905762,233.164902 1034.310547,217.161575 1033.823853,201.183258 
	C1033.663452,195.911652 1031.444214,190.702728 1030.026367,185.119354 
z"/>
<path fill="#444444" opacity="1.000000" stroke="none" 
	d="
M919.849426,179.960556 
	C902.910156,171.599960 885.506348,180.344818 882.110229,198.740677 
	C881.392578,202.628159 881.081909,206.638428 881.048401,210.596054 
	C880.925598,225.094940 880.906189,239.596481 881.064392,254.094681 
	C881.103333,257.663239 880.230774,259.185333 876.342957,259.068695 
	C863.941345,258.696686 866.137146,260.537872 866.033997,248.785370 
	C865.896484,233.120010 866.091553,217.451584 865.930908,201.786652 
	C865.893921,198.184250 865.216980,194.541428 864.446777,191.001556 
	C860.870544,174.564957 839.941284,174.104675 830.678833,180.898209 
	C821.249695,187.814026 817.331238,197.617218 817.081848,208.853806 
	C816.752686,223.679749 816.863525,238.520538 817.086243,253.350449 
	C817.149658,257.572662 816.190430,259.287476 811.584717,259.096497 
	C800.354004,258.630859 802.070374,260.382263 802.028320,249.529221 
	C801.936646,225.863037 802.000000,202.196259 802.000000,178.529724 
	C802.000000,175.076813 802.000000,171.623901 802.000000,167.103638 
	C805.536682,167.103638 809.736145,166.934402 813.897705,167.255478 
	C814.671143,167.315155 815.775208,169.301132 815.889038,170.479034 
	C816.175659,173.444748 815.983826,176.456696 815.983826,180.731339 
	C824.595215,170.476822 834.200867,164.840561 847.212891,164.788712 
	C860.775879,164.734680 869.985535,170.457184 876.375183,182.221558 
	C882.348694,173.829742 889.469788,166.928253 899.981934,165.614334 
	C912.127869,164.096222 924.236389,163.808884 934.406067,172.659317 
	C942.491638,179.696106 945.606567,189.079300 945.864624,199.193130 
	C946.332214,217.514435 945.913757,235.856934 946.068848,254.188843 
	C946.100098,257.871582 945.017334,259.172882 941.249084,259.065857 
	C929.044067,258.719116 931.126465,260.437408 931.031616,249.191376 
	C930.903687,234.025864 931.325867,218.848785 930.876221,203.695526 
	C930.606140,194.593155 928.289673,185.909271 919.849426,179.960556 
z"/>
<path fill="#444444" opacity="1.000000" stroke="none" 
	d="
M739.020142,355.950439 
	C728.918274,369.771179 714.893616,375.539001 698.790649,375.804718 
	C686.217529,376.012146 674.680481,371.849640 665.383850,362.829559 
	C664.474182,361.946960 663.926636,360.691132 663.210938,359.608582 
	C662.807312,359.869781 662.403625,360.130951 662.000000,360.392151 
	C662.000000,373.320007 662.000732,386.247833 661.999573,399.175690 
	C661.999084,404.837708 661.913208,410.501373 662.027405,416.161041 
	C662.082458,418.889801 661.126282,420.064545 658.283508,420.024658 
	C644.330017,419.828857 647.087830,421.489716 647.050171,409.741180 
	C646.919983,369.108246 646.998718,328.474670 647.001221,287.841339 
	C647.001709,281.010284 647.009583,280.969025 653.707886,281.009979 
	C663.103210,281.067413 661.877075,280.048340 662.009338,289.252045 
	C662.032104,290.830902 662.177551,292.408020 662.289673,294.400391 
	C680.420471,273.668060 712.161682,272.429962 733.187439,290.977600 
	C749.367981,305.251068 754.053223,334.418427 739.020142,355.950439 
M720.477905,298.983856 
	C711.909973,292.191742 702.426514,289.208923 691.353882,290.853455 
	C672.444763,293.661987 661.296875,307.640533 660.164001,324.873230 
	C659.065063,341.588287 669.331177,357.354065 686.568604,361.825775 
	C699.923706,365.290283 712.747742,363.055725 722.465210,352.782562 
	C736.265198,338.193237 735.188538,313.771027 720.477905,298.983856 
z"/>
<path fill="#444444" opacity="1.000000" stroke="none" 
	d="
M782.814209,292.599518 
	C801.184082,272.686035 832.865662,275.076813 849.637390,289.076965 
	C871.555664,307.373260 870.783936,340.758026 855.559692,359.017365 
	C840.159790,377.487549 804.199524,383.992340 781.251648,360.250427 
	C781.148682,362.597778 781.011475,364.292297 781.009766,365.986938 
	C780.993042,382.317352 780.888000,398.649109 781.078735,414.977264 
	C781.124878,418.927124 779.893738,420.192535 775.961670,420.069641 
	C764.203613,419.702271 766.053955,421.427826 766.032227,410.407593 
	C765.951416,369.415070 765.997925,328.422272 766.002258,287.429596 
	C766.002930,281.011810 766.016235,281.011780 772.627808,281.000061 
	C772.794434,280.999756 772.961060,280.998901 773.127686,281.000183 
	C781.935242,281.067413 780.848328,280.246063 781.067871,288.678375 
	C781.104126,290.069397 782.036621,291.437103 782.814209,292.599518 
M849.850098,317.035248 
	C842.231567,289.814453 814.441833,284.433624 796.036682,295.704407 
	C773.298828,309.628418 772.992432,343.193237 795.421143,357.560516 
	C811.401855,367.797363 837.370483,365.109528 847.184937,343.531647 
	C850.938354,335.279480 851.904114,326.734070 849.850098,317.035248 
z"/>
<path fill="#444444" opacity="1.000000" stroke="none" 
	d="
M759.322266,242.369446 
	C762.964539,239.199875 766.306519,236.235825 769.961304,232.994354 
	C772.398132,234.858490 774.706055,237.019257 777.370850,238.564728 
	C780.885071,240.602905 780.102051,242.332901 777.812744,244.736343 
	C764.870850,258.323547 749.054871,262.780640 730.757507,260.180023 
	C717.226257,258.256836 706.631165,251.919128 698.388855,240.986404 
	C686.559814,225.296310 687.672913,197.502014 699.946655,182.322372 
	C714.580261,164.224197 739.552917,160.809189 758.669556,168.514618 
	C772.680115,174.161896 780.312012,185.518661 782.913391,200.227280 
	C783.601929,204.120300 783.539917,208.140060 784.029907,212.075790 
	C784.543152,216.197647 782.628296,217.088089 778.868591,217.065430 
	C756.552979,216.930862 734.236145,216.999588 711.919678,216.999985 
	C709.942627,217.000031 707.965576,217.000000 705.451843,217.000000 
	C706.625122,229.315262 712.013245,238.372437 722.465698,244.133545 
	C734.898682,250.986343 747.147522,250.390564 759.322266,242.369446 
M741.500000,205.000000 
	C750.445374,205.000000 759.390747,205.000000 768.667603,205.000000 
	C767.124695,192.786514 762.482849,183.279785 750.866211,179.136932 
	C746.330994,177.519547 741.176941,177.176392 736.290588,177.094574 
	C723.535217,176.880981 709.675842,187.847504 706.417419,200.127075 
	C705.524780,203.491150 706.221130,205.095947 710.071533,205.042847 
	C720.212646,204.903030 730.356934,204.998337 741.500000,205.000000 
z"/>
<path fill="#444444" opacity="1.000000" stroke="none" 
	d="
M611.963318,368.253967 
	C611.488159,365.573273 611.033936,363.321289 610.542480,360.884430 
	C606.873596,363.912750 603.530579,367.302002 599.615295,369.790955 
	C585.403015,378.825562 559.712646,378.394928 547.371216,363.005798 
	C539.074829,352.660553 542.669617,331.554688 554.455994,324.830078 
	C563.436340,319.706390 573.192200,317.466583 583.427002,317.000763 
	C591.047607,316.653900 598.666626,316.218170 606.291443,316.045959 
	C609.126099,315.981934 609.941101,314.887421 610.048462,312.168335 
	C610.477356,301.302826 603.073792,292.629913 592.447876,290.942871 
	C579.130676,288.828522 567.631348,292.490479 557.080505,300.888031 
	C556.459900,300.479706 555.722473,300.124481 555.144897,299.594940 
	C547.256714,292.362793 547.061646,290.180725 556.436340,285.492859 
	C574.857178,276.281433 593.742798,273.842682 612.201355,285.635437 
	C620.011658,290.625275 623.684082,298.431122 623.920166,307.516846 
	C624.235901,319.668152 623.838989,331.836578 624.051697,343.992340 
	C624.216431,353.405792 624.847168,362.811066 625.302063,372.915527 
	C621.748535,372.915527 617.948181,373.185272 614.239319,372.722290 
	C613.333679,372.609222 612.727905,370.093628 611.963318,368.253967 
M609.882019,328.917755 
	C608.379761,328.279327 606.865540,327.071503 605.377258,327.102539 
	C599.428467,327.226715 593.433960,327.362335 587.559143,328.207886 
	C581.708801,329.049957 575.830688,330.300568 570.240784,332.189240 
	C564.016602,334.292236 558.498901,338.452026 558.421082,345.424072 
	C558.372742,349.755554 560.209778,355.586212 563.330994,358.201965 
	C573.279785,366.539429 589.629822,365.226929 599.541687,356.957550 
	C608.068054,349.844086 610.761292,340.506622 609.882019,328.917755 
z"/>
<path fill="#444444" opacity="1.000000" stroke="none" 
	d="
M945.432739,353.132812 
	C943.648376,361.590179 938.916321,367.588470 931.718689,370.963013 
	C913.516846,379.496887 888.381531,376.705627 874.073792,361.670746 
	C870.930481,358.367645 871.242493,356.380249 874.967346,353.943176 
	C882.270020,349.165161 882.076355,349.151154 888.466003,354.908234 
	C897.963928,363.465820 909.109131,365.130157 920.960449,361.342438 
	C926.592712,359.542358 930.523132,355.545319 931.013977,349.030853 
	C931.515869,342.370605 927.651428,338.639832 922.165344,336.719513 
	C913.749756,333.773743 905.082642,331.552612 896.551575,328.928680 
	C888.099121,326.328888 879.821716,322.885834 877.155640,313.560974 
	C873.032532,299.140320 877.642578,287.053650 893.068420,281.172150 
	C907.405579,275.705780 921.453247,277.113251 934.605957,284.985321 
	C937.805542,286.900360 940.440491,289.899323 942.938538,292.747620 
	C943.568787,293.466187 943.203308,296.124969 942.377563,296.857330 
	C939.702087,299.230255 936.600037,301.122223 933.331299,303.433533 
	C927.923889,296.279541 921.565491,291.244537 912.713745,290.396240 
	C905.872498,289.740662 899.392273,290.986877 894.120483,295.511902 
	C887.640686,301.073822 888.631531,310.577606 896.552429,313.978210 
	C903.928406,317.144897 912.016479,318.632263 919.747437,321.001465 
	C923.536133,322.162537 927.262817,323.552795 930.953491,325.002350 
	C943.528137,329.941254 947.640442,340.839996 945.432739,353.132812 
z"/>
<path fill="#444444" opacity="1.000000" stroke="none" 
	d="
M1092.840088,324.949310 
	C1070.745972,314.093262 1048.989746,303.362549 1027.233398,292.631958 
	C1026.637085,292.337860 1026.038818,292.047729 1025.443970,291.750732 
	C1017.157837,287.612946 1016.587952,286.338196 1018.782349,275.910309 
	C1020.490784,276.596832 1022.148315,277.141296 1023.698425,277.904053 
	C1048.597778,290.155548 1073.475830,302.450378 1098.379761,314.692627 
	C1102.546875,316.741089 1106.888062,318.442749 1111.011963,320.569702 
	C1115.334473,322.799072 1115.520142,331.179596 1111.213257,333.314819 
	C1080.694946,348.445007 1050.118164,363.457550 1019.556580,378.500549 
	C1019.422058,378.566711 1019.238281,378.532837 1019.077576,378.545715 
	C1016.003540,370.734222 1017.573547,366.198669 1024.648682,362.704193 
	C1046.697754,351.813995 1068.759521,340.949799 1090.811401,330.065247 
	C1092.435669,329.263489 1094.019409,328.379303 1096.110840,327.275513 
	C1094.890869,326.360077 1094.034424,325.717377 1092.840088,324.949310 
z"/>
<path fill="#444444" opacity="1.000000" stroke="none" 
	d="
M1007.672852,284.733582 
	C1001.486145,299.054657 995.497498,313.047516 989.480286,327.028076 
	C983.267029,341.464325 976.969604,355.864594 970.823730,370.329407 
	C968.233887,376.424927 965.316223,377.487183 955.000122,375.173920 
	C957.632568,368.875488 960.186401,362.653687 962.826294,356.468597 
	C973.671936,331.057220 984.560364,305.664032 995.383240,280.242920 
	C996.593445,277.400238 998.066101,275.524292 1001.614746,275.933197 
	C1004.522827,276.268311 1007.500305,276.001495 1011.517944,276.001495 
	C1010.030212,279.415710 1008.944275,281.907837 1007.672852,284.733582 
z"/>
<path fill="#FC6920" opacity="1.000000" stroke="none" 
	d="
M388.933716,152.640778 
	C388.445435,152.813736 387.814087,152.650665 387.131348,152.137756 
	C387.650177,151.960205 388.220428,152.132477 388.933716,152.640778 
z"/>
<path fill="#FC6920" opacity="1.000000" stroke="none" 
	d="
M389.881409,153.944397 
	C389.551636,154.002716 389.242615,153.758606 388.973633,153.217316 
	C389.309814,153.160751 389.606018,153.401352 389.881409,153.944397 
z"/>
<path fill="#FC6920" opacity="1.000000" stroke="none" 
	d="
M157.748901,151.994904 
	C157.784622,152.176483 157.554626,152.431625 157.105011,152.824097 
	C157.084671,152.663757 157.283936,152.366104 157.748901,151.994904 
z"/>
<path fill="#B50C81" opacity="1.000000" stroke="none" 
	d="
M389.277557,386.090759 
	C389.283264,385.957733 389.537811,385.671295 390.015747,385.202881 
	C390.001526,385.326355 389.763947,385.631836 389.277557,386.090759 
z"/>
<path fill="#B50C81" opacity="1.000000" stroke="none" 
	d="
M156.775620,386.139435 
	C156.976334,386.067139 157.372787,386.247040 157.898499,386.731445 
	C157.675629,386.821198 157.323486,386.606445 156.775620,386.139435 
z"/>
<path fill="#FFFEFE" opacity="1.000000" stroke="none" 
	d="
M332.088257,366.697510 
	C319.078003,379.763000 306.129913,392.443359 293.351440,405.292389 
	C271.233002,427.533020 274.355225,427.355591 252.247314,405.115173 
	C239.812241,392.605530 227.295761,380.176819 214.565826,367.580505 
	C204.943130,357.981903 195.601837,348.483215 186.191513,339.053406 
	C165.833221,318.653015 145.431213,298.296204 125.065605,277.903107 
	C119.156036,271.985565 119.125092,267.052856 125.021446,261.147278 
	C154.565872,231.556641 184.136520,201.992188 213.860214,172.111511 
	C230.412277,155.522949 246.807663,139.247025 263.189331,122.957291 
	C270.650269,115.538216 275.103821,115.506310 282.500214,122.896576 
	C298.732819,139.115723 314.960236,155.340073 331.471130,171.690643 
	C349.211060,189.387604 366.669830,206.956039 384.127502,224.525513 
	C385.064575,225.468552 386.112732,226.330948 386.900513,227.386612 
	C388.723724,229.829758 388.013611,231.663147 385.022064,231.751343 
	C378.044037,231.957031 371.048431,231.987366 364.077728,231.682373 
	C362.577271,231.616730 360.953674,230.035263 359.722260,228.813812 
	C345.673126,214.878098 331.689117,200.876770 317.241028,186.447021 
	C304.342133,173.533112 291.918579,161.036255 279.422333,148.612518 
	C274.906769,144.123138 271.073792,143.870148 266.875793,148.041229 
	C253.915100,160.918900 241.091721,173.934769 227.919220,187.077454 
	C202.552002,212.318146 177.473801,237.371582 152.414581,262.444000 
	C147.092514,267.768890 147.163620,271.308136 152.635544,276.784088 
	C171.457504,295.619873 190.275864,314.459290 209.128586,333.264252 
	C215.715347,339.834351 222.397751,346.308533 229.183380,353.132812 
	C241.693512,365.816376 254.034134,378.216339 266.432434,390.558411 
	C270.690643,394.797302 274.445831,395.263550 278.185669,391.554474 
	C291.307037,378.540710 304.255646,365.352753 317.569519,352.081635 
	C336.008942,333.801544 354.184265,315.705994 372.220917,297.473175 
	C373.663025,296.015350 374.147583,293.610321 375.077118,291.645447 
	C372.964325,290.764404 370.857971,289.135925 368.737762,289.117645 
	C346.921906,288.929688 325.103088,289.090759 303.286835,288.924561 
	C299.132538,288.892914 296.096069,290.434509 293.987640,293.627686 
	C289.141327,300.967255 284.545807,308.472443 279.558563,316.079285 
	C277.649292,318.702972 276.172089,321.270569 274.351318,323.565582 
	C273.428101,324.729248 271.884979,325.401093 270.622101,326.295258 
	C269.936005,325.092682 269.042145,323.959961 268.609253,322.672272 
	C267.831573,320.358978 267.330688,317.952637 266.707031,315.175537 
	C265.264435,308.995392 263.828888,303.224915 262.393372,297.454437 
	C261.053894,291.461090 259.787537,285.450195 258.355225,279.479126 
	C256.801788,273.003204 259.073425,269.847198 265.666138,269.844208 
	C316.261108,269.821472 366.856171,269.807800 417.450867,269.927979 
	C419.280670,269.932312 422.545013,271.215363 422.634552,272.144073 
	C422.818451,274.051758 421.816833,276.634918 420.409210,278.052216 
	C391.090393,307.572388 361.646210,336.968079 332.088257,366.697510 
z"/>
<path fill="#ED2C1D" opacity="1.000000" stroke="none" 
	d="
M229.036484,352.826538 
	C222.397751,346.308533 215.715347,339.834351 209.128586,333.264252 
	C190.275864,314.459290 171.457504,295.619873 152.635544,276.784088 
	C147.163620,271.308136 147.092514,267.768890 152.414581,262.444000 
	C177.473801,237.371582 202.552002,212.318146 228.232025,187.182755 
	C230.479752,188.474884 232.225708,189.733719 233.741226,191.226517 
	C246.852676,204.141312 259.922668,217.098190 273.005005,230.042542 
	C268.593658,234.575226 264.222809,239.148178 259.763641,243.633377 
	C243.394501,260.098145 244.186340,281.799347 262.068848,297.230743 
	C263.828888,303.224915 265.264435,308.995392 266.375183,315.379761 
	C253.712433,328.271271 241.374466,340.548920 229.036484,352.826538 
z"/>
<path fill="#FC6920" opacity="1.000000" stroke="none" 
	d="
M273.296387,229.877106 
	C259.922668,217.098190 246.852676,204.141312 233.741226,191.226517 
	C232.225708,189.733719 230.479752,188.474884 228.527832,187.002289 
	C241.091721,173.934769 253.915100,160.918900 266.875793,148.041229 
	C271.073792,143.870148 274.906769,144.123138 279.422333,148.612518 
	C291.918579,161.036255 304.342133,173.533112 316.932495,186.282532 
	C302.576294,200.946564 288.082001,215.329132 273.296387,229.877106 
z"/>
<path fill="#B60C81" opacity="1.000000" stroke="none" 
	d="
M229.183380,353.132812 
	C241.374466,340.548920 253.712433,328.271271 266.382263,315.789429 
	C267.330688,317.952637 267.831573,320.358978 268.609253,322.672272 
	C269.042145,323.959961 269.936005,325.092682 270.622101,326.295258 
	C271.884979,325.401093 273.428101,324.729248 274.351318,323.565582 
	C276.172089,321.270569 277.649292,318.702972 279.854980,316.252502 
	C282.939606,318.657379 285.457336,321.037903 287.932709,323.461731 
	C297.718994,333.044098 307.491974,342.640045 317.269897,352.230957 
	C304.255646,365.352753 291.307037,378.540710 278.185669,391.554474 
	C274.445831,395.263550 270.690643,394.797302 266.432434,390.558411 
	C254.034134,378.216339 241.693512,365.816376 229.183380,353.132812 
z"/>
<path fill="#99035A" opacity="1.000000" stroke="none" 
	d="
M317.569519,352.081635 
	C307.491974,342.640045 297.718994,333.044098 287.932709,323.461731 
	C285.457336,321.037903 282.939606,318.657379 280.144958,316.083679 
	C284.545807,308.472443 289.141327,300.967255 293.987640,293.627686 
	C296.096069,290.434509 299.132538,288.892914 303.286835,288.924561 
	C325.103088,289.090759 346.921906,288.929688 368.737762,289.117645 
	C370.857971,289.135925 372.964325,290.764404 375.077118,291.645447 
	C374.147583,293.610321 373.663025,296.015350 372.220917,297.473175 
	C354.184265,315.705994 336.008942,333.801544 317.569519,352.081635 
z"/>
</svg>