<svg version="1.1" id="Layer_1" xmlns="http://www.w3.org/2000/svg" xmlns:xlink="http://www.w3.org/1999/xlink" x="0px" y="0px"
	 width="100%" viewBox="0 0 1166 535" enable-background="new 0 0 1166 535" xml:space="preserve">
<path fill="#99035A" opacity="1.000000" stroke="none" 
	d="
M385.875031,152.101593 
	C387.382263,153.366562 388.994202,154.526657 390.381317,155.911911 
	C420.332977,185.823685 450.393768,215.628159 480.126648,245.756149 
	C492.464264,258.257690 492.644775,280.361877 480.666199,292.604553 
	C449.667450,324.286652 418.096680,355.409027 386.197510,386.987671 
	C385.430939,387.512207 385.221130,387.803955 385.011353,388.095703 
	C385.011353,388.095703 385.009888,388.009308 384.804993,388.114807 
	C384.405090,388.511719 384.210114,388.803101 384.015137,389.094513 
	C384.015137,389.094513 384.033875,389.020905 383.681091,389.013519 
	C381.785736,389.564362 380.187347,390.004150 378.709534,390.699921 
	C368.475616,395.518005 358.282928,395.518402 348.099854,390.576691 
	C338.400940,385.869904 332.073700,377.389801 325.042053,369.544861 
	C355.082886,339.327789 384.961060,309.386017 414.950623,279.556274 
	C417.292114,277.227264 419.126343,274.581390 417.756958,271.839996 
	C417.060059,270.444885 413.550934,269.914062 411.311157,269.909546 
	C360.350586,269.806335 309.389709,269.829742 258.428925,269.832184 
	C257.097137,269.832245 255.752548,269.750366 254.435898,269.900024 
	C249.891022,270.416626 247.679932,274.031281 248.739365,278.558228 
	C250.245743,284.994843 251.512650,291.487518 252.594604,297.804413 
	C234.462830,282.604492 234.308044,257.262421 251.560211,241.905579 
	C256.001373,237.952316 259.903534,233.393494 264.352692,228.961884 
	C279.519012,213.881729 294.385925,198.952545 309.544006,184.160156 
	C320.655396,195.098083 331.464874,205.910095 342.300995,216.695312 
	C347.009888,221.382034 351.027649,227.868515 356.718719,230.157196 
	C362.600586,232.522568 370.133331,230.871460 376.941345,230.781891 
	C378.617584,230.759857 380.283905,229.978470 381.954773,229.546173 
	C381.158325,227.828491 380.749542,225.733109 379.503143,224.453857 
	C370.837219,215.559799 361.972290,206.860107 353.220184,198.049408 
	C343.678192,188.443542 334.189087,178.785110 324.883026,168.863434 
	C329.665436,163.971130 334.188507,159.310532 338.828857,154.769806 
	C349.500580,144.327240 365.582001,141.800949 379.016052,148.298660 
	C380.597229,149.063446 382.371063,149.429932 384.055573,149.981064 
	C384.055573,149.981064 383.999603,149.999771 384.002686,150.274963 
	C384.356354,150.699829 384.706909,150.849487 385.057495,150.999130 
	C385.057495,150.999130 384.996490,151.003494 384.998474,151.246811 
	C385.291962,151.693954 385.583496,151.897781 385.875031,152.101593 
z"/>
<path fill="#ED2B1D" opacity="1.000000" stroke="none" 
	d="
M142.872253,388.025604 
	C133.642487,378.911255 124.373627,369.836060 115.190872,360.674591 
	C94.092651,339.625366 73.122070,318.447418 51.927681,297.495667 
	C40.990093,286.683350 37.154953,273.758575 41.272663,259.277954 
	C43.022003,253.126114 46.944942,246.947662 51.464645,242.333420 
	C79.773972,213.431931 108.530533,184.968521 137.139679,156.360718 
	C138.484818,155.015640 139.835648,153.676270 141.750854,152.070282 
	C142.543289,151.507309 142.768692,151.208298 142.994095,150.909302 
	C142.994095,150.909302 142.981766,150.983414 143.277161,150.972839 
	C143.991577,150.535309 144.410614,150.108353 144.829651,149.681396 
	C144.829651,149.681396 144.697388,149.732971 145.062073,149.785812 
	C158.170609,143.296936 171.322449,141.823181 183.500687,150.074707 
	C191.076630,155.207886 197.183777,162.508789 203.807632,169.143982 
	C202.845871,170.281296 202.031342,171.116089 201.206711,171.940796 
	C171.513092,201.637177 141.810165,231.324280 112.131012,261.035095 
	C106.060318,267.112274 106.252724,272.464630 112.366081,278.563019 
	C137.614059,303.749359 162.824661,328.973206 188.022522,354.209686 
	C193.429474,359.624939 198.726181,365.150238 203.771423,370.807190 
	C198.868546,375.554291 194.442062,380.312653 189.629425,384.641693 
	C180.820541,392.565369 170.640747,396.620300 158.646164,393.956512 
	C154.322586,392.996338 150.143692,391.384583 145.898773,390.070190 
	C145.898773,390.070190 145.955612,390.016083 145.863281,389.742981 
	C145.171387,389.309509 144.571823,389.149078 143.972260,388.988647 
	C143.972260,388.988678 144.012543,388.987122 143.960083,388.720703 
	C143.562500,388.311401 143.217377,388.168488 142.872253,388.025604 
z"/>
<path fill="#FC691F" opacity="1.000000" stroke="none" 
	d="
M203.950150,168.836777 
	C197.183777,162.508789 191.076630,155.207886 183.500687,150.074707 
	C171.322449,141.823181 158.170609,143.296936 145.049255,149.715973 
	C145.679398,148.330963 146.576477,146.958221 147.710754,145.822372 
	C176.908524,116.584404 206.286163,87.523994 235.288528,58.093716 
	C251.548233,41.594120 277.557983,42.371418 292.780701,58.030411 
	C322.740234,88.848610 353.438019,118.949150 383.942993,149.663818 
	C382.371063,149.429932 380.597229,149.063446 379.016052,148.298660 
	C365.582001,141.800949 349.500580,144.327240 338.828857,154.769806 
	C334.188507,159.310532 329.665436,163.971130 324.592560,168.725983 
	C307.399658,152.190842 290.702667,135.507614 274.007202,118.822899 
	C266.861847,111.682121 261.461609,111.743401 254.173904,118.985588 
	C237.442490,135.612549 220.692566,152.220886 203.950150,168.836777 
z"/>
<path fill="#B50B81" opacity="1.000000" stroke="none" 
	d="
M145.750961,390.407898 
	C150.143692,391.384583 154.322586,392.996338 158.646164,393.956512 
	C170.640747,396.620300 180.820541,392.565369 189.629425,384.641693 
	C194.442062,380.312653 198.868546,375.554291 204.089417,370.972290 
	C221.172424,387.396454 237.853210,403.627563 254.001816,420.371887 
	C261.564178,428.213226 267.436371,427.095337 274.037476,420.448730 
	C290.890778,403.479340 307.937988,386.702515 324.907593,369.848633 
	C332.073700,377.389801 338.400940,385.869904 348.099854,390.576691 
	C358.282928,395.518402 368.475616,395.518005 378.709534,390.699921 
	C380.187347,390.004150 381.785736,389.564362 383.715515,389.029480 
	C382.168060,391.102051 380.282410,393.200256 378.291260,395.192993 
	C349.922180,423.584564 321.546448,451.969482 293.155762,480.339447 
	C278.971191,494.513611 254.617828,495.676453 238.742355,483.199615 
	C235.635727,480.758057 232.661362,478.110382 229.863266,475.319885 
	C202.977539,448.506836 176.140244,421.645203 149.300888,394.785675 
	C148.011734,393.495544 146.833191,392.094849 145.750961,390.407898 
z"/>
<path fill="#FFFFFF" opacity="1.000000" stroke="none" 
	d="
M624.872375,113.000000 
	C642.157959,113.724297 657.195618,119.167641 670.301086,129.792175 
	C672.422241,131.511826 672.677490,133.201157 670.458557,135.078369 
	C667.451111,137.622681 664.506042,140.240723 661.434570,142.913849 
	C652.314941,134.627838 641.759583,128.744537 629.468384,127.333916 
	C612.741516,125.414223 596.505432,127.390167 582.588684,138.011475 
	C568.190308,149.000381 560.603943,163.669861 558.877869,181.830826 
	C557.079468,200.753235 562.757324,217.096451 575.416443,230.561554 
	C583.994934,239.686218 595.119873,245.231827 607.980164,247.110153 
	C622.200195,249.187073 635.856018,247.616837 649.326233,243.017365 
	C657.982788,240.061554 658.000000,240.112015 658.000000,231.136398 
	C658.000000,219.982834 658.000000,208.829269 658.000000,197.279236 
	C646.824036,197.279236 635.749817,197.279236 624.339111,197.279236 
	C624.339111,192.488998 624.339111,188.082855 624.339111,183.335785 
	C640.511536,183.335785 656.914734,183.335785 673.718628,183.335785 
	C673.798767,184.337708 673.985779,185.595215 673.987000,186.852921 
	C674.005676,205.844528 673.872437,224.837738 674.106018,243.826492 
	C674.153625,247.694824 672.481689,249.585648 669.404785,250.906982 
	C657.062439,256.207336 644.400085,259.777710 630.877075,261.247864 
	C616.425171,262.819031 602.427429,261.917023 589.054993,256.843811 
	C563.518677,247.155899 547.552002,228.879700 543.045288,201.546066 
	C539.762451,181.635269 542.232361,162.672211 553.850586,145.565598 
	C566.218201,127.355606 583.519470,117.042290 605.171326,114.079582 
	C611.507935,113.212532 617.979553,113.332458 624.872375,113.000000 
z"/>
<path fill="#FFFFFF" opacity="1.000000" stroke="none" 
	d="
M955.970215,256.770844 
	C951.101807,257.601532 946.259399,257.950134 941.000000,258.328766 
	C941.000000,239.807709 941.314819,222.013397 940.865173,204.238419 
	C940.645142,195.540695 939.143494,186.820480 932.580872,180.094269 
	C927.083923,174.460342 919.954651,173.053619 912.772949,174.237518 
	C896.754150,176.878250 890.913940,188.250519 890.173706,199.898636 
	C889.144348,216.096451 889.323792,232.371475 889.008301,248.613876 
	C888.950623,251.581345 889.000000,254.550888 889.000000,257.755249 
	C883.963440,257.755249 879.224976,257.755249 874.000000,257.755249 
	C874.000000,253.427811 874.000000,249.148239 874.000000,244.868652 
	C874.000000,229.704498 874.217957,214.535736 873.898865,199.378311 
	C873.760254,192.796875 873.000549,186.101196 868.261414,180.751022 
	C860.741028,172.260712 845.434448,171.523422 835.308350,180.233643 
	C828.344055,186.224152 824.257568,193.964569 824.094666,203.115799 
	C823.773132,221.179153 823.999878,239.252274 823.999878,257.661743 
	C818.155457,257.661743 813.414368,257.661743 807.874268,257.661743 
	C807.874268,226.729263 807.874268,195.569458 807.874268,164.211868 
	C811.912720,164.211868 816.689209,164.211868 821.600342,164.211868 
	C822.140808,168.676666 822.678223,173.116531 823.229004,177.666946 
	C839.456177,154.993378 874.883545,157.097870 883.453369,177.637741 
	C886.670776,175.130417 890.562561,172.132095 894.416748,169.086105 
	C900.327515,164.414719 907.089539,162.285538 914.564209,161.976562 
	C924.298950,161.574219 933.908020,162.126602 942.066650,168.084290 
	C949.416870,173.451736 954.420044,181.087219 954.802246,190.074493 
	C955.739624,212.122971 955.664062,234.214539 955.970215,256.770844 
z"/>
<path fill="#FFFFFF" opacity="1.000000" stroke="none" 
	d="
M1014.853394,163.624023 
	C1022.255310,163.194534 1029.441406,162.346039 1036.452515,163.107422 
	C1045.787476,164.121140 1052.282593,169.806534 1056.134521,178.414276 
	C1056.391968,178.989456 1056.980835,179.416275 1057.643677,180.172501 
	C1062.914185,170.331131 1071.145996,164.399307 1081.896606,162.675903 
	C1094.550293,160.647415 1107.032715,161.226685 1117.430420,170.064835 
	C1123.564575,175.278931 1127.503052,182.619278 1127.747070,190.301514 
	C1128.457520,212.654861 1127.999268,235.045334 1127.999268,257.712891 
	C1124.051147,257.712891 1119.313354,257.712891 1114.222412,257.712891 
	C1114.151367,256.365845 1114.011353,254.929657 1114.009888,253.493332 
	C1113.994141,237.834793 1114.292847,222.167999 1113.852539,206.521835 
	C1113.682129,200.463104 1112.549927,194.219604 1110.641235,188.463074 
	C1105.741455,173.686203 1089.770142,171.573410 1079.069702,175.982025 
	C1069.181396,180.056061 1064.320190,188.283081 1063.208008,198.140610 
	C1061.970581,209.108017 1062.234497,220.254150 1062.031616,231.325928 
	C1061.873169,239.980392 1062.000000,248.640076 1062.000000,257.648560 
	C1057.184937,257.648560 1052.445068,257.648560 1047.216675,257.648560 
	C1047.155029,256.516632 1047.011353,255.095566 1047.010010,253.674377 
	C1046.994629,236.016876 1047.292847,218.351685 1046.830200,200.706299 
	C1046.682007,195.051651 1045.428223,189.046677 1043.109863,183.910843 
	C1038.883911,174.549118 1025.510132,171.658524 1015.997314,175.595276 
	C1004.706604,180.267807 998.296570,189.353333 997.175598,201.242554 
	C996.044434,213.239136 996.271667,225.368332 996.024292,237.441910 
	C995.888123,244.086227 996.000000,250.735626 996.000000,257.690887 
	C991.096069,257.690887 986.358887,257.690887 980.808838,257.690887 
	C980.808838,226.696594 980.808838,195.560745 980.808838,164.218109 
	C984.971680,164.218109 989.734375,164.218109 994.682373,164.218109 
	C994.985840,168.400421 995.285767,172.534744 995.513306,175.671295 
	C1001.965576,171.690948 1008.262634,167.806335 1014.853394,163.624023 
z"/>
<path fill="#FFFFFF" opacity="1.000000" stroke="none" 
	d="
M771.000000,349.000000 
	C771.000000,326.203918 771.000000,303.907837 771.000000,281.306122 
	C775.909668,281.306122 780.646301,281.306122 785.729126,281.306122 
	C785.729126,285.917419 785.729126,290.671021 785.729126,296.661560 
	C796.053223,282.766815 809.949585,277.995178 825.167297,278.282990 
	C840.594421,278.574707 854.687683,284.141113 864.266052,296.943573 
	C880.389282,318.493835 877.773743,352.109344 855.810181,368.416962 
	C833.465393,385.007599 801.439514,381.182190 786.126587,360.951202 
	C786.126587,382.467163 786.126587,403.470947 786.126587,424.735901 
	C781.006592,424.735901 776.269958,424.735901 771.000000,424.735901 
	C771.000000,399.660767 771.000000,374.580383 771.000000,349.000000 
M832.076172,292.022491 
	C830.911621,291.997345 829.692688,292.189423 828.590759,291.913818 
	C815.530884,288.647491 804.086426,292.903870 795.223938,301.735840 
	C786.702454,310.227844 783.077881,321.177887 784.828125,333.987701 
	C788.082764,357.807251 813.910034,373.357849 837.707581,362.583221 
	C852.261597,355.993744 857.968689,343.696014 858.106873,327.986694 
	C858.252441,311.429230 848.783386,297.439514 832.076172,292.022491 
z"/>
<path fill="#FFFFFF" opacity="1.000000" stroke="none" 
	d="
M649.000000,304.000000 
	C649.000000,296.192017 649.000000,288.884003 649.000000,281.289001 
	C653.943054,281.289001 658.681030,281.289001 663.776001,281.289001 
	C663.776001,285.945374 663.776001,290.695312 663.776001,296.712891 
	C673.928284,282.824127 687.705627,278.005859 702.741455,278.293945 
	C717.680298,278.580261 731.326233,283.781128 741.383179,295.866486 
	C756.108093,313.561432 755.706421,344.254272 740.942566,361.663147 
	C723.856323,381.810516 685.697205,386.304352 664.143616,361.952881 
	C664.143616,383.092621 664.143616,403.781769 664.143616,424.733765 
	C659.009705,424.733765 654.271912,424.733765 649.000000,424.733765 
	C649.000000,384.660278 649.000000,344.580139 649.000000,304.000000 
M668.956543,349.533142 
	C679.268433,364.889252 696.794678,369.765961 714.033691,363.341125 
	C739.591309,353.816071 742.104431,319.258789 726.965515,302.498932 
	C712.410217,286.385132 684.653870,287.064941 670.563416,304.875763 
	C660.439697,317.672516 659.516602,335.832428 668.956543,349.533142 
z"/>
<path fill="#FFFFFF" opacity="1.000000" stroke="none" 
	d="
M704.188721,243.685394 
	C696.074890,233.126450 692.360474,221.648254 692.920471,208.567108 
	C693.676636,190.903076 704.149414,172.576035 722.455261,165.750977 
	C737.975586,159.964493 752.792358,160.365555 767.512146,167.906387 
	C779.002686,173.792877 785.206970,183.662827 787.853027,195.763016 
	C789.169434,201.783203 788.955078,208.138138 789.466858,214.777649 
	C762.436401,214.777649 736.040039,214.777649 709.728516,214.777649 
	C707.626038,224.803070 715.395630,237.476334 727.339355,244.035156 
	C742.786377,252.517776 757.240417,248.855957 774.980713,231.753052 
	C778.645874,234.543869 782.362000,237.373550 786.055725,240.186142 
	C771.571960,262.582825 728.855164,270.913818 704.188721,243.685394 
M763.962158,181.441483 
	C751.361511,171.785294 738.074829,171.830765 724.618713,179.175003 
	C715.510742,184.146042 708.515930,196.186798 709.587769,203.784515 
	C731.014526,203.784515 752.437439,203.784515 774.155212,203.784515 
	C773.026428,195.372498 770.762451,187.798798 763.962158,181.441483 
z"/>
<path fill="#FFFFFF" opacity="1.000000" stroke="none" 
	d="
M583.134888,291.000000 
	C572.707581,291.775391 563.927856,295.384613 555.848572,302.306732 
	C553.371521,299.496948 550.637329,296.741028 548.428894,293.613800 
	C547.958923,292.948303 548.996094,290.330566 550.028931,289.630859 
	C558.938599,283.595154 568.573547,279.844666 579.531372,278.819031 
	C589.812134,277.856781 599.559692,278.657837 608.690796,283.357574 
	C619.410339,288.874908 624.848328,297.946228 624.989502,310.062286 
	C625.051697,315.392792 624.911133,320.726410 625.016479,326.055542 
	C625.342468,342.545898 625.742371,359.034760 626.118713,375.754578 
	C622.444946,375.754578 618.007629,375.754578 613.137390,375.754578 
	C612.637207,371.376343 612.129211,366.928955 611.579468,362.116516 
	C605.637024,370.427002 597.753418,375.776001 587.926025,377.506409 
	C574.135071,379.934753 560.849731,379.300537 549.623535,369.167694 
	C537.180664,357.936798 538.032715,330.029541 560.319397,322.989471 
	C569.967224,319.941864 579.712524,317.909088 589.919739,317.908142 
	C596.798645,317.907532 603.677429,317.034790 610.577515,316.550690 
	C612.363159,300.319855 602.414978,291.973389 588.098267,291.013428 
	C586.605591,290.913330 585.100403,291.000000 583.134888,291.000000 
M581.404785,366.000000 
	C600.980835,366.341583 614.049744,347.762970 610.296143,328.590729 
	C603.352966,329.056610 596.240601,329.015839 589.316711,330.138245 
	C581.783813,331.359344 574.337524,333.367798 567.018494,335.579224 
	C560.605652,337.516846 557.102112,342.832306 557.241577,349.080688 
	C557.384705,355.491760 560.200073,361.520996 567.230591,363.584564 
	C571.510864,364.840820 576.047180,365.224396 581.404785,366.000000 
z"/>
<path fill="#FFFFFF" opacity="1.000000" stroke="none" 
	d="
M883.243469,364.741638 
	C881.425354,363.270782 879.857666,362.053802 877.695740,360.375458 
	C882.841309,356.693695 886.966858,353.741821 891.098450,350.785583 
	C901.158325,365.131500 916.192322,369.160400 931.512817,363.636292 
	C936.823730,361.721375 940.523315,357.159851 940.960571,351.023712 
	C941.385681,345.057404 938.342102,340.890106 932.901123,339.074188 
	C923.045715,335.784973 912.997375,333.078949 903.085388,329.952576 
	C894.943542,327.384460 887.523621,323.241913 885.138794,314.524872 
	C880.688477,298.257935 887.241516,285.330719 904.691956,280.336090 
	C919.315247,276.150604 933.861511,277.595551 946.637512,287.030762 
	C949.183899,288.911316 951.291443,291.463959 953.290039,293.956329 
	C953.821777,294.619476 953.652283,296.791809 953.030762,297.274261 
	C949.771118,299.804688 946.262878,302.014923 942.838074,304.338348 
	C933.497620,289.912750 916.687988,288.804108 906.681885,293.585449 
	C900.461792,296.557678 898.502380,301.092438 899.041382,307.275665 
	C899.535400,312.943085 903.816040,315.478577 908.503479,316.920929 
	C917.986633,319.839020 927.666260,322.118408 937.151855,325.029297 
	C955.591980,330.688110 959.992310,346.460907 953.336487,362.016296 
	C949.903931,370.038574 942.648315,374.619537 934.511902,376.645691 
	C920.701904,380.084656 906.876221,379.689545 893.961487,372.890991 
	C890.144592,370.881683 886.965332,367.661072 883.243469,364.741638 
z"/>
<path fill="#FFFFFF" opacity="1.000000" stroke="none" 
	d="
M1051.311035,358.266113 
	C1071.403198,348.420654 1091.186035,338.806458 1111.469360,328.949005 
	C1083.874023,315.289581 1057.016724,301.995544 1030.159180,288.701355 
	C1030.159180,284.478271 1030.159180,280.341553 1030.159180,275.654114 
	C1031.801636,276.226501 1033.191650,276.553589 1034.439697,277.168854 
	C1064.728394,292.102997 1094.970093,307.133087 1125.323120,321.935272 
	C1128.702393,323.583221 1129.105713,325.779999 1129.063232,328.930237 
	C1129.021729,332.005249 1128.950073,334.373901 1125.463135,336.054199 
	C1103.010864,346.873474 1080.716919,358.020660 1058.312378,368.939941 
	C1049.118042,373.421021 1039.777954,377.603027 1030.001709,382.154968 
	C1030.001709,378.182373 1029.762085,374.549805 1030.135010,370.981232 
	C1030.261230,369.773468 1031.722534,368.327545 1032.940430,367.675537 
	C1038.892822,364.489166 1044.969116,361.534210 1051.311035,358.266113 
z"/>
<path fill="#FFFFFF" opacity="1.000000" stroke="none" 
	d="
M1004.760742,286.621338 
	C1006.064331,283.284454 1007.017883,280.219666 1008.358154,277.334564 
	C1008.700439,276.597717 1010.254883,276.099030 1011.274414,276.059662 
	C1015.087646,275.912170 1018.909912,276.000671 1023.579407,276.000671 
	C1021.573547,280.581482 1019.795105,284.625916 1018.030151,288.676300 
	C1006.506409,315.122406 994.985840,341.569855 983.461243,368.015594 
	C983.395447,368.166656 983.264526,368.290344 983.204407,368.442719 
	C978.864624,379.451202 978.864990,379.451355 965.006348,378.728180 
	C978.329041,347.813934 991.441711,317.387085 1004.760742,286.621338 
z"/>
<path fill="#FC691F" opacity="1.000000" stroke="none" 
	d="
M144.513000,149.566025 
	C144.410614,150.108353 143.991577,150.535309 143.240906,150.963013 
	C143.338287,150.459381 143.767319,149.955017 144.513000,149.566025 
z"/>
<path fill="#B50B81" opacity="1.000000" stroke="none" 
	d="
M144.097534,389.320679 
	C144.571823,389.149078 145.171387,389.309509 145.870056,389.781647 
	C145.387039,389.946503 144.804916,389.799622 144.097534,389.320679 
z"/>
<path fill="#FC691F" opacity="1.000000" stroke="none" 
	d="
M384.992706,150.731445 
	C384.706909,150.849487 384.356354,150.699829 384.005432,150.245575 
	C384.312683,150.115234 384.620300,150.289490 384.992706,150.731445 
z"/>
<path fill="#FC691F" opacity="1.000000" stroke="none" 
	d="
M385.893677,151.817749 
	C385.583496,151.897781 385.291962,151.693954 385.002075,151.216461 
	C385.306610,151.139816 385.609467,151.336853 385.893677,151.817749 
z"/>
<path fill="#B50B81" opacity="1.000000" stroke="none" 
	d="
M385.270020,388.000549 
	C385.221130,387.803955 385.430939,387.512207 385.897278,387.120148 
	C385.945435,387.315002 385.737061,387.610199 385.270020,388.000549 
z"/>
<path fill="#B50B81" opacity="1.000000" stroke="none" 
	d="
M142.979767,388.276947 
	C143.217377,388.168488 143.562500,388.311401 143.962341,388.740723 
	C143.707138,388.860870 143.397202,388.694580 142.979767,388.276947 
z"/>
<path fill="#B50B81" opacity="1.000000" stroke="none" 
	d="
M384.270355,389.001099 
	C384.210114,388.803101 384.405090,388.511719 384.848145,388.116241 
	C384.906036,388.310669 384.715820,388.609192 384.270355,389.001099 
z"/>
<path fill="#FC691F" opacity="1.000000" stroke="none" 
	d="
M142.721237,150.998245 
	C142.768692,151.208298 142.543289,151.507309 142.044556,151.903107 
	C141.996918,151.695648 142.222641,151.391418 142.721237,150.998245 
z"/>
<path fill="#FEFDFD" opacity="1.000000" stroke="none" 
	d="
M325.042053,369.544891 
	C307.937988,386.702515 290.890778,403.479340 274.037476,420.448730 
	C267.436371,427.095337 261.564178,428.213226 254.001816,420.371887 
	C237.853210,403.627563 221.172424,387.396454 204.391663,370.789978 
	C198.726181,365.150238 193.429474,359.624939 188.022522,354.209686 
	C162.824661,328.973206 137.614059,303.749359 112.366081,278.563019 
	C106.252724,272.464630 106.060318,267.112274 112.131012,261.035095 
	C141.810165,231.324280 171.513092,201.637177 201.206711,171.940796 
	C202.031342,171.116089 202.845871,170.281296 203.807632,169.143982 
	C220.692566,152.220886 237.442490,135.612549 254.173904,118.985588 
	C261.461609,111.743401 266.861847,111.682121 274.007202,118.822899 
	C290.702667,135.507614 307.399658,152.190842 324.386475,169.012115 
	C334.189087,178.785110 343.678192,188.443542 353.220184,198.049408 
	C361.972290,206.860107 370.837219,215.559799 379.503143,224.453857 
	C380.749542,225.733109 381.158325,227.828491 381.954773,229.546173 
	C380.283905,229.978470 378.617584,230.759857 376.941345,230.781891 
	C370.133331,230.871460 362.600586,232.522568 356.718719,230.157196 
	C351.027649,227.868515 347.009888,221.382034 342.300995,216.695312 
	C331.464874,205.910095 320.655396,195.098083 309.386108,183.845749 
	C296.255829,170.694092 283.595856,157.972214 270.881195,145.305222 
	C266.628510,141.068466 262.310883,140.458694 258.670319,144.066498 
	C245.344589,157.272369 232.205154,170.666183 218.686630,184.117447 
	C192.500183,210.118759 166.622314,235.991547 140.745300,261.865143 
	C134.205185,268.404388 134.182953,270.761230 140.779175,277.366547 
	C161.466034,298.081940 182.163361,318.786926 202.885300,339.467255 
	C208.171371,344.742706 213.563492,349.911896 219.037369,355.433716 
	C232.099014,368.675110 244.993805,381.649384 257.981384,394.530090 
	C262.438385,398.950439 265.475342,399.193451 269.811829,394.900116 
	C283.034882,381.808899 296.040680,368.498322 309.441650,355.135254 
	C328.920288,335.834045 348.127960,316.709808 367.165680,297.417908 
	C368.413605,296.153320 368.968719,293.503082 368.664032,291.696747 
	C368.505280,290.755676 365.767883,289.647064 364.189514,289.638306 
	C340.875824,289.508301 317.559418,289.418793 294.249054,289.727570 
	C291.501587,289.763977 287.801941,291.501038 286.236023,293.670990 
	C281.065430,300.836029 276.671265,308.561340 271.704102,316.262817 
	C269.251160,319.662323 267.115997,322.900818 264.882812,326.070221 
	C262.725861,329.131409 261.001190,328.819763 259.986847,325.221863 
	C259.201447,322.436127 258.535400,319.616760 257.669067,316.463379 
	C255.975159,310.061707 254.428513,304.008972 252.881866,297.956238 
	C251.512650,291.487518 250.245743,284.994843 248.739365,278.558228 
	C247.679932,274.031281 249.891022,270.416626 254.435898,269.900024 
	C255.752548,269.750366 257.097137,269.832245 258.428925,269.832184 
	C309.389709,269.829742 360.350586,269.806335 411.311157,269.909546 
	C413.550934,269.914062 417.060059,270.444885 417.756958,271.839996 
	C419.126343,274.581390 417.292114,277.227264 414.950623,279.556274 
	C384.961060,309.386017 355.082886,339.327789 325.042053,369.544891 
z"/>
<path fill="#ED2B1D" opacity="1.000000" stroke="none" 
	d="
M218.906876,355.129913 
	C213.563492,349.911896 208.171371,344.742706 202.885300,339.467255 
	C182.163361,318.786926 161.466034,298.081940 140.779175,277.366547 
	C134.182953,270.761230 134.205185,268.404388 140.745300,261.865143 
	C166.622314,235.991547 192.500183,210.118759 218.978577,184.276550 
	C224.649750,189.318146 229.766663,194.282761 234.780502,199.349365 
	C244.568558,209.240387 254.298996,219.188416 264.053284,229.112854 
	C259.903534,233.393494 256.001373,237.952316 251.560211,241.905579 
	C234.308044,257.262421 234.462830,282.604492 252.594604,297.804413 
	C254.428513,304.008972 255.975159,310.061707 257.387756,316.646393 
	C244.471436,329.828857 231.689148,342.479370 218.906876,355.129913 
z"/>
<path fill="#FC6920" opacity="1.000000" stroke="none" 
	d="
M264.352692,228.961884 
	C254.298996,219.188416 244.568558,209.240387 234.780502,199.349365 
	C229.766663,194.282761 224.649750,189.318146 219.287476,184.148331 
	C232.205154,170.666183 245.344589,157.272369 258.670319,144.066498 
	C262.310883,140.458694 266.628510,141.068466 270.881195,145.305222 
	C283.595856,157.972214 296.255829,170.694092 309.095001,183.708954 
	C294.385925,198.952545 279.519012,213.881729 264.352692,228.961884 
z"/>
<path fill="#B50B81" opacity="1.000000" stroke="none" 
	d="
M219.037354,355.433716 
	C231.689148,342.479370 244.471436,329.828857 257.535034,316.995331 
	C258.535400,319.616760 259.201447,322.436127 259.986847,325.221863 
	C261.001190,328.819763 262.725861,329.131409 264.882812,326.070221 
	C267.115997,322.900818 269.251160,319.662323 271.760437,316.597595 
	C275.082672,320.012390 277.995758,323.359192 281.079193,326.540863 
	C290.394318,336.152649 299.775574,345.700409 309.131042,355.273102 
	C296.040680,368.498322 283.034882,381.808899 269.811829,394.900116 
	C265.475342,399.193451 262.438385,398.950439 257.981384,394.530090 
	C244.993805,381.649384 232.099014,368.675110 219.037354,355.433716 
z"/>
<path fill="#99035A" opacity="1.000000" stroke="none" 
	d="
M309.441650,355.135254 
	C299.775574,345.700409 290.394318,336.152649 281.079193,326.540863 
	C277.995758,323.359192 275.082672,320.012390 272.035339,316.406311 
	C276.671265,308.561340 281.065430,300.836029 286.236023,293.670990 
	C287.801941,291.501038 291.501587,289.763977 294.249054,289.727570 
	C317.559418,289.418793 340.875824,289.508301 364.189514,289.638306 
	C365.767883,289.647064 368.505280,290.755676 368.664032,291.696747 
	C368.968719,293.503082 368.413605,296.153320 367.165680,297.417908 
	C348.127960,316.709808 328.920288,335.834045 309.441650,355.135254 
z"/>
</svg>