<svg version="1.1" id="Layer_1" xmlns="http://www.w3.org/2000/svg" xmlns:xlink="http://www.w3.org/1999/xlink" x="0px" y="0px"
	 width="100%" viewBox="0 0 2241 1070" enable-background="new 0 0 2241 1070" xml:space="preserve">
<path fill="#FFFFFF" opacity="1.000000" stroke="none" 
	d="
M265.976990,387.142212 
	C265.327240,386.259033 264.355225,385.929230 264.121582,385.317413 
	C262.012360,379.794769 259.795410,374.294769 258.077362,368.646027 
	C256.122955,362.220123 254.613708,355.657043 252.977081,349.136993 
	C251.922928,344.937347 251.467331,340.518921 249.897003,336.531952 
	C246.856262,328.811768 247.247452,320.833862 246.911041,312.838318 
	C246.729095,308.513519 246.094574,304.104340 244.920212,299.943237 
	C240.679443,284.916809 243.781143,269.639740 243.231888,254.502579 
	C243.060501,249.779541 245.960220,245.017914 246.838470,240.162613 
	C247.651474,235.668045 246.878540,230.797684 248.158066,226.495529 
	C250.565033,218.402573 249.410461,209.413422 254.817398,202.008224 
	C256.584900,199.587494 256.484497,195.865570 257.525330,192.837357 
	C259.234711,187.864044 260.876099,182.828629 263.113342,178.086990 
	C265.114105,173.846619 267.965332,170.015228 270.276947,165.910858 
	C271.594604,163.571274 273.226318,161.136948 273.585480,158.586014 
	C274.321259,153.359924 278.892883,150.985458 281.212433,146.990417 
	C285.730713,139.208420 292.148926,132.757492 297.240845,125.537788 
	C304.787140,114.838150 315.077332,107.115784 323.527649,97.494026 
	C328.335602,92.019569 335.182159,88.265427 341.328003,84.053703 
	C349.143372,78.697800 356.937347,73.229912 365.194885,68.625000 
	C371.980743,64.840775 379.371948,62.103287 386.602478,59.166824 
	C392.915802,56.602848 399.209015,53.402897 405.815918,52.284313 
	C415.967010,50.565678 425.574188,46.920650 435.914551,45.589504 
	C447.334442,44.119385 458.916412,44.521709 470.071106,42.644608 
	C489.288727,39.410690 508.410492,41.816257 527.547424,41.204239 
	C535.063110,40.963879 542.701721,42.726158 550.192749,44.081909 
	C557.414368,45.388889 564.597168,47.071392 571.652893,49.092121 
	C579.916809,51.458862 588.390259,53.590343 596.120483,57.215126 
	C609.877808,63.666122 623.340576,70.821930 636.521240,78.388901 
	C641.922119,81.489517 646.221741,86.483276 651.126770,90.487923 
	C652.628723,91.714241 654.431274,92.607101 656.176514,93.494690 
	C662.372192,96.645554 662.632263,102.265259 661.865295,107.979424 
	C661.593018,110.008301 660.160156,112.238007 658.608826,113.677460 
	C651.530518,120.245361 644.260254,126.609146 636.974426,132.949158 
	C634.507690,135.095703 631.873901,137.083069 629.129578,138.853394 
	C628.492188,139.264557 626.829346,138.814468 626.082520,138.211029 
	C620.641663,133.815063 615.458374,129.090057 609.904419,124.847778 
	C605.666809,121.610985 601.090088,118.788239 596.512268,116.033829 
	C589.314758,111.703171 582.183228,107.188683 574.654785,103.506279 
	C568.969543,100.725441 562.752258,98.984619 556.689819,97.035919 
	C550.603149,95.079445 544.495422,93.046196 538.249451,91.766663 
	C531.599609,90.404388 524.706360,90.243256 518.044128,88.926643 
	C503.637909,86.079659 489.101410,86.900597 474.621155,87.169754 
	C468.777802,87.278366 462.981567,89.343803 457.140961,90.390800 
	C453.467285,91.049339 449.692474,91.216927 446.066772,92.053970 
	C439.687103,93.526825 433.273865,95.010193 427.084015,97.107025 
	C420.414703,99.366272 413.826050,102.006210 407.493774,105.080612 
	C400.173035,108.634949 392.859344,112.379326 386.111053,116.891365 
	C378.278809,122.128204 370.366577,127.593643 363.759308,134.225388 
	C355.674652,142.340012 346.542145,149.556473 340.787750,160.000809 
	C336.813477,167.214111 330.901550,173.333328 326.496796,180.344345 
	C322.928284,186.024292 320.147369,192.227158 317.327789,198.341339 
	C314.711426,204.014847 312.035828,209.736816 310.247559,215.695908 
	C308.312134,222.145355 307.490173,228.921051 305.961517,235.503098 
	C304.841980,240.323563 303.007690,244.997955 302.150421,249.853699 
	C301.326477,254.520813 301.099091,259.334717 301.048035,264.088837 
	C300.908478,277.086121 300.659424,290.098328 301.133698,303.079773 
	C301.398468,310.327789 302.627014,317.609009 304.135681,324.723816 
	C305.626648,331.755341 307.463989,338.820007 310.153412,345.463715 
	C313.476532,353.672913 317.833954,361.463623 321.747742,369.433502 
	C322.813263,371.603394 324.107819,373.688873 324.925079,375.947723 
	C328.332672,385.366425 335.042358,392.616302 340.940826,400.360962 
	C346.476227,407.628906 351.815216,415.247711 358.431610,421.439453 
	C366.466217,428.958374 375.593414,435.358795 384.546692,441.829712 
	C390.451355,446.097260 396.650360,450.098724 403.148376,453.361328 
	C408.799988,456.198944 415.005493,457.987762 421.057159,459.961243 
	C429.507202,462.716827 437.994568,465.384583 446.560608,467.746796 
	C450.737366,468.898590 455.104156,469.633392 459.427521,469.924316 
	C468.161804,470.511902 477.131744,469.652283 485.600525,471.375153 
	C490.835693,472.440247 495.927917,473.212494 501.085297,472.904816 
	C512.826294,472.204407 524.582397,471.353271 536.244385,469.870850 
	C544.318359,468.844543 552.331909,466.988342 560.211121,464.895599 
	C566.651184,463.185059 572.811890,460.449066 579.174255,458.410339 
	C583.412109,457.052307 587.985535,456.595825 592.055420,454.891846 
	C598.899292,452.026489 606.842957,450.909058 611.506470,444.136841 
	C612.594055,442.557434 613.733948,440.689087 613.917908,438.859985 
	C618.101746,397.243042 615.132263,355.503784 615.931519,313.825195 
	C615.933960,313.700195 615.748657,313.571594 615.345459,313.047058 
	C579.583069,313.047058 543.511719,313.047058 507.221497,313.047058 
	C507.221497,296.912842 507.221497,281.175385 507.221497,265.218658 
	C561.090881,265.218658 614.825745,265.218658 669.000000,265.218658 
	C669.000000,266.962830 669.000000,268.579285 669.000000,270.195740 
	C669.000000,289.527252 668.901428,308.859406 669.019897,328.190186 
	C669.290039,372.272339 669.707581,416.353546 669.961975,460.435760 
	C670.007324,468.309662 668.337036,475.739105 661.554321,480.830078 
	C658.993408,482.752258 656.262207,484.669800 653.307312,485.804993 
	C642.460510,489.972198 631.547729,493.990082 620.537842,497.702301 
	C614.206299,499.837128 607.468018,500.812622 601.218445,503.133026 
	C590.935303,506.951080 580.434692,509.560852 569.593811,511.035370 
	C563.382690,511.880157 557.065552,512.469604 551.043762,514.092773 
	C521.689880,522.005127 491.735107,518.205994 462.029785,518.823608 
	C454.194580,518.986450 446.251740,517.327942 438.471710,515.891663 
	C429.806030,514.291931 421.070740,512.594055 412.728485,509.840088 
	C402.765472,506.551025 393.165802,502.148346 383.449677,498.129028 
	C377.124542,495.512482 370.703857,493.046967 364.630859,489.921356 
	C357.287018,486.141724 349.964966,482.172180 343.177002,477.495850 
	C333.812897,471.044769 324.734253,464.125214 315.972168,456.875916 
	C311.189087,452.918640 307.247253,447.925415 303.044189,443.292175 
	C299.570648,439.463257 296.173096,435.555939 292.919952,431.539124 
	C289.350189,427.131317 285.922058,422.604431 282.551331,418.041443 
	C280.241913,414.915161 278.042084,411.697571 275.973907,408.407227 
	C274.690460,406.365356 273.690704,404.136658 272.658600,401.947052 
	C270.405975,397.168091 268.213959,392.360626 265.976990,387.142212 
z"/>
<path fill="#FFFFFF" opacity="1.000000" stroke="none" 
	d="
M1261.594116,242.304230 
	C1250.375488,239.137573 1239.202148,237.727066 1228.149902,239.263504 
	C1221.306885,240.214798 1213.954834,240.794617 1207.882690,245.286545 
	C1205.619873,246.960464 1202.783325,247.959686 1200.086792,248.927917 
	C1190.895508,252.228088 1183.973511,259.055328 1177.527954,265.597656 
	C1170.534668,272.695801 1165.214844,281.662018 1160.166870,290.392761 
	C1155.611206,298.271881 1153.409668,307.101379 1151.494385,316.187744 
	C1150.195557,322.348816 1150.152344,328.243134 1150.099487,334.206238 
	C1149.598755,390.619720 1149.333008,447.035339 1148.995972,503.450287 
	C1148.992065,504.100403 1148.941040,504.750244 1148.898560,505.697815 
	C1130.743652,505.697815 1112.671753,505.697815 1094.299194,505.697815 
	C1094.299194,405.405670 1094.299194,305.005707 1094.299194,204.302734 
	C1109.921021,204.302734 1125.659424,204.302734 1141.893555,204.302734 
	C1142.919189,214.977249 1143.898193,225.811081 1145.065552,236.624573 
	C1145.243286,238.272125 1146.294434,239.825348 1146.941650,241.422180 
	C1148.615967,240.347305 1150.780762,239.629791 1151.872925,238.130798 
	C1155.190552,233.577286 1158.376465,229.161469 1163.901123,226.842331 
	C1165.968994,225.974274 1167.428467,223.649536 1169.155762,221.979126 
	C1174.524658,216.787186 1180.542358,213.065002 1187.864624,210.742081 
	C1194.623901,208.597748 1200.673462,204.303833 1207.231079,201.397736 
	C1210.258789,200.056000 1213.755859,199.779877 1217.033936,198.995514 
	C1230.754272,195.712601 1244.722534,195.417450 1258.680054,196.111725 
	C1266.398926,196.495682 1274.272217,197.236313 1281.689209,199.244370 
	C1288.882812,201.191986 1295.925659,204.366501 1302.414062,208.085251 
	C1311.335205,213.198273 1320.543457,218.209641 1326.744019,226.961105 
	C1330.499023,232.260757 1334.327026,237.508636 1337.683838,243.191360 
	C1340.364014,244.496155 1342.481323,243.491150 1344.957886,240.873383 
	C1348.010864,237.646515 1352.384644,235.711655 1355.948364,232.913681 
	C1359.454224,230.161087 1362.580566,226.930099 1366.020264,224.086685 
	C1369.814087,220.950531 1373.610107,217.765976 1377.709351,215.064270 
	C1381.876953,212.317627 1386.261841,209.779282 1390.833862,207.802063 
	C1395.492188,205.787567 1400.507812,204.608276 1405.337402,202.975876 
	C1406.852661,202.463745 1408.219482,201.271881 1409.744507,201.068558 
	C1418.276611,199.930984 1426.829346,198.936813 1435.388550,198.019867 
	C1442.516235,197.256302 1449.685913,195.943329 1456.795166,196.172287 
	C1467.038696,196.502213 1477.452393,197.073792 1487.405151,199.287872 
	C1496.501343,201.311356 1505.370361,205.058228 1513.808716,209.142136 
	C1522.522217,213.359283 1529.984009,219.516922 1537.468384,225.895660 
	C1542.891724,230.517868 1546.668213,235.978409 1550.947510,241.150925 
	C1554.889526,245.915604 1558.095337,251.549606 1560.470581,257.279449 
	C1563.020508,263.430603 1563.460205,270.492126 1566.232544,276.505463 
	C1568.946045,282.391022 1567.792969,288.147125 1567.917847,293.931946 
	C1568.445190,318.345154 1567.065552,342.923859 1569.468750,367.135803 
	C1571.689941,389.515778 1570.297485,411.733154 1570.871460,434.007446 
	C1571.450806,456.490662 1570.991577,479.000610 1570.977539,501.498871 
	C1570.977295,501.813751 1570.847656,502.128571 1570.531494,503.566589 
	C1554.462280,505.210266 1538.043335,506.889709 1521.000000,508.633026 
	C1521.000000,505.983398 1521.000000,504.212891 1521.000000,502.442383 
	C1521.000000,456.612457 1521.079346,410.782349 1520.954102,364.952759 
	C1520.913818,350.243225 1520.754150,335.508514 1519.826660,320.837341 
	C1519.345337,313.224426 1517.574463,305.580170 1515.465210,298.213715 
	C1513.193970,290.280579 1510.949463,281.965790 1506.652832,275.093140 
	C1502.460205,268.386627 1497.324829,262.052185 1491.497070,256.194092 
	C1485.481079,250.146912 1478.020020,247.137009 1471.461060,242.448853 
	C1468.392822,240.255722 1463.914062,239.343414 1460.010132,239.150345 
	C1450.698364,238.689865 1441.162476,237.831970 1432.058472,239.280624 
	C1418.918945,241.371445 1406.550049,246.271317 1395.331909,253.987823 
	C1384.515503,261.428070 1376.692261,271.166199 1371.089844,282.753082 
	C1368.534912,288.037201 1366.645386,293.715271 1365.061890,299.384399 
	C1358.510376,322.840607 1361.786865,347.064056 1359.638672,370.820526 
	C1356.532104,405.176056 1359.251099,439.470520 1357.983765,473.760803 
	C1357.593506,484.321014 1357.008789,494.874054 1356.499634,505.721313 
	C1340.362549,505.721313 1323.957642,505.721313 1307.000000,505.721313 
	C1307.000000,503.998810 1307.000000,502.230652 1307.000000,500.462463 
	C1307.000000,449.132965 1307.701660,397.788025 1306.573364,346.483337 
	C1306.233643,331.037079 1305.642700,315.491089 1304.832275,300.011841 
	C1304.482422,293.333130 1303.283325,286.341797 1300.707886,280.235718 
	C1298.060181,273.958527 1292.488037,268.940247 1289.656006,262.707520 
	C1287.420654,257.787537 1282.843994,255.921921 1279.538208,252.733078 
	C1275.313477,248.657578 1268.937622,246.818756 1263.512573,243.970688 
	C1262.909668,243.654144 1262.461670,243.041977 1261.594116,242.304230 
z"/>
<path fill="#FFFFFF" opacity="1.000000" stroke="none" 
	d="
M1784.594727,238.730072 
	C1773.367065,238.250610 1764.307983,243.396332 1754.874878,247.527863 
	C1745.392090,251.681122 1737.396484,257.974304 1730.306641,265.135895 
	C1724.489868,271.011444 1719.490601,277.914459 1715.173950,284.998657 
	C1710.362061,292.895447 1707.794800,301.930511 1705.166992,310.798767 
	C1704.345093,313.572845 1704.245117,316.589355 1704.034058,319.510742 
	C1703.304077,329.613525 1703.374878,339.829926 1701.863892,349.809784 
	C1697.836304,376.410309 1700.876831,403.102386 1700.084595,429.735046 
	C1699.353638,454.304901 1699.333740,478.895874 1698.996704,503.477509 
	C1698.987793,504.125397 1698.936646,504.772705 1698.891357,505.707397 
	C1682.058716,505.707397 1665.321411,505.707397 1648.291260,505.707397 
	C1648.291260,405.396515 1648.291260,305.003357 1648.291260,204.304977 
	C1663.915894,204.304977 1679.653687,204.304977 1695.726929,204.304977 
	C1696.244751,215.671234 1696.768921,227.175598 1697.328491,239.457352 
	C1702.511108,236.248322 1707.479370,233.290817 1712.322388,230.140579 
	C1717.363281,226.861526 1722.183228,223.236359 1727.281250,220.052933 
	C1733.723877,216.029892 1740.341675,212.286438 1746.899536,208.449066 
	C1751.364746,205.836258 1755.838989,203.876953 1761.121216,202.600189 
	C1770.189331,200.408279 1779.427368,202.878220 1787.943970,200.637726 
	C1796.227661,198.458542 1804.255249,199.242661 1812.363037,199.154327 
	C1819.325439,199.078476 1826.625732,199.268066 1833.197998,201.254700 
	C1843.347534,204.322647 1854.277222,205.478226 1862.734009,213.607132 
	C1867.007812,217.715118 1871.964478,221.097656 1876.155640,225.596481 
	C1882.908691,232.845535 1887.254761,241.387787 1892.005859,249.797287 
	C1892.575439,250.805573 1893.553345,251.583130 1894.646484,252.809143 
	C1896.067261,250.989655 1897.897095,249.326202 1898.890381,247.260498 
	C1904.079346,236.469421 1913.201660,228.932556 1921.278809,220.670624 
	C1925.346802,216.509628 1931.287720,214.111008 1936.536865,211.194519 
	C1941.038940,208.693069 1945.640625,206.279602 1950.424438,204.404465 
	C1954.425049,202.836365 1958.693970,201.690384 1962.947754,201.085724 
	C1971.960693,199.804459 1981.391602,200.197601 1990.002441,197.682968 
	C1999.956665,194.776077 2009.716675,196.368637 2019.507935,196.221191 
	C2026.876587,196.110245 2034.801147,196.685822 2041.532227,199.347900 
	C2050.599365,202.933899 2059.920654,205.869202 2068.832031,210.320206 
	C2081.710693,216.752731 2091.713623,225.921600 2100.649902,236.223648 
	C2107.586670,244.220871 2112.614014,253.842133 2116.212402,264.286255 
	C2123.365234,285.047089 2119.327881,306.377777 2121.172607,327.360626 
	C2124.741455,367.957275 2122.457031,408.581085 2122.810303,449.183502 
	C2122.973389,467.912170 2121.098633,486.658508 2120.131836,505.715515 
	C2105.708008,505.715515 2090.636475,505.715515 2075.588135,505.715515 
	C2072.223145,491.241241 2072.447021,476.564484 2073.548340,461.832825 
	C2073.698730,459.822845 2072.824463,457.720398 2073.056885,455.734741 
	C2075.797852,432.319794 2076.291260,408.711090 2074.565430,385.362183 
	C2073.183838,366.670410 2073.749023,348.054230 2072.887939,329.429199 
	C2072.582764,322.826111 2071.328857,316.209473 2069.907227,309.730743 
	C2068.298096,302.395477 2066.063721,295.194061 2064.011719,287.959869 
	C2061.085693,277.644257 2056.137207,268.551300 2049.070801,260.315521 
	C2042.460815,252.611755 2034.332275,247.988785 2025.326294,243.746948 
	C2015.323364,239.035507 2004.872925,238.267899 1994.441650,238.268875 
	C1986.309937,238.269638 1977.812134,239.643814 1970.151855,242.331146 
	C1962.766968,244.921860 1956.345459,250.162262 1949.325195,253.909744 
	C1937.383789,260.284119 1930.688232,271.391083 1923.568970,282.079987 
	C1921.839233,284.677063 1920.943726,287.919403 1920.074951,290.981445 
	C1918.381836,296.950226 1916.981201,303.002014 1915.447266,309.016266 
	C1915.366699,309.332092 1915.074341,309.609222 1915.044067,309.920319 
	C1914.348877,317.055450 1913.258667,324.182281 1913.078125,331.331757 
	C1912.529053,353.075104 1913.520752,374.925537 1911.733398,396.554199 
	C1908.735596,432.827728 1911.051392,469.099945 1909.751099,505.673828 
	C1893.462036,505.673828 1877.058716,505.673828 1860.231323,505.673828 
	C1859.831665,500.377991 1859.116699,494.871613 1859.057373,489.358215 
	C1858.892334,474.029266 1858.881836,458.696228 1859.027100,443.366882 
	C1859.259644,418.824158 1859.890259,394.283386 1859.927734,369.741150 
	C1859.956665,350.825775 1859.739136,331.888947 1858.790161,313.003937 
	C1858.435547,305.947662 1855.868286,298.965302 1853.999023,292.033112 
	C1852.209717,285.397736 1850.577148,278.624847 1847.827393,272.373444 
	C1845.552246,267.201141 1841.997925,262.514038 1838.566284,257.945435 
	C1832.963013,250.486084 1824.375610,246.975098 1816.655396,242.378372 
	C1815.353638,241.603271 1813.502441,241.791275 1811.931641,241.421341 
	C1803.074463,239.335449 1794.283447,236.683838 1784.594727,238.730072 
z"/>
<path fill="#FFFFFF" opacity="1.000000" stroke="none" 
	d="
M1310.665771,742.823608 
	C1309.890137,749.372803 1309.799805,755.657166 1308.884521,761.818970 
	C1308.190552,766.492249 1306.397217,770.996582 1305.181519,775.599426 
	C1303.749512,781.021301 1302.954834,786.682556 1300.909790,791.854858 
	C1297.726074,799.907166 1295.666260,808.420898 1289.607422,815.338074 
	C1285.727051,819.768250 1283.900513,825.931152 1280.483398,830.852234 
	C1277.152832,835.648560 1273.203857,840.082642 1269.103271,844.260437 
	C1263.824097,849.639099 1258.403320,854.955261 1252.520752,859.642212 
	C1247.311646,863.792542 1241.658081,867.583740 1235.717407,870.572510 
	C1225.681152,875.621765 1215.468872,880.473877 1204.936646,884.333252 
	C1197.317627,887.125000 1188.947632,887.789612 1181.111328,890.082275 
	C1164.723633,894.876892 1147.989258,892.805908 1131.422241,892.765442 
	C1122.617798,892.743958 1113.623535,891.044067 1105.071289,888.765198 
	C1095.890625,886.318909 1086.894775,882.809631 1078.253296,878.821777 
	C1070.852783,875.406616 1063.956421,870.834167 1057.036011,866.459045 
	C1047.656616,860.529114 1039.444824,853.190491 1032.169922,844.794556 
	C1031.650635,844.195068 1030.458008,844.178711 1029.000000,843.702148 
	C1029.000000,845.932373 1029.000000,847.703430 1029.000000,849.474548 
	C1029.000000,911.306091 1028.946289,973.137817 1029.104614,1034.968994 
	C1029.116943,1039.790283 1027.829346,1041.228027 1022.976379,1041.112061 
	C1009.484497,1040.789062 995.976013,1040.818481 982.482361,1041.102417 
	C977.998474,1041.196655 976.897827,1039.762817 976.910156,1035.428223 
	C977.051270,985.763367 977.000000,936.097961 977.000000,886.432739 
	C977.000000,785.768921 976.999878,685.105103 977.000183,584.441284 
	C977.000244,578.001343 977.001831,578.000427 983.610352,578.000183 
	C997.910278,577.999573 1012.210144,578.000000 1026.836914,578.000000 
	C1026.836914,593.065613 1026.836914,607.836731 1026.836914,623.098450 
	C1027.955444,622.671997 1028.960815,622.614075 1029.235962,622.135986 
	C1034.773682,612.511108 1043.516968,605.975952 1051.807129,599.121399 
	C1059.044312,593.137390 1066.802368,587.945618 1075.945068,584.804932 
	C1083.051270,582.363708 1089.654053,578.461914 1096.501953,575.254700 
	C1097.064819,574.991089 1097.805054,575.136475 1098.439941,574.991577 
	C1105.602173,573.356567 1112.713867,571.445557 1119.935547,570.144470 
	C1124.597290,569.304626 1129.422607,569.011841 1134.167969,569.064636 
	C1147.588745,569.213745 1161.035767,569.245850 1174.411865,570.185791 
	C1180.711914,570.628418 1186.927368,572.855103 1193.084229,574.612915 
	C1201.810303,577.104187 1210.775879,579.159302 1219.032837,582.782288 
	C1228.053589,586.740417 1236.401123,592.242615 1245.010254,597.127686 
	C1256.540161,603.670227 1264.851807,613.882141 1273.914429,623.142700 
	C1277.723633,627.035156 1280.064941,632.372681 1283.028809,637.081543 
	C1287.266602,643.814575 1291.690430,650.445618 1295.590088,657.370667 
	C1297.838257,661.363220 1299.463867,665.764526 1300.919312,670.131958 
	C1303.142944,676.804993 1305.480591,683.507935 1306.844727,690.381714 
	C1308.420410,698.322632 1309.110107,706.450134 1309.966064,714.519836 
	C1310.789185,722.278625 1311.406860,730.061951 1311.936890,737.846619 
	C1312.040649,739.371460 1311.331055,740.951538 1310.665771,742.823608 
M1048.459473,657.016113 
	C1046.908569,659.019165 1045.166382,660.904053 1043.842651,663.047363 
	C1039.874268,669.472839 1035.536255,675.751099 1032.366821,682.563477 
	C1029.765625,688.154724 1028.355347,694.362305 1026.912476,700.414734 
	C1025.020386,708.351196 1022.696106,716.353394 1022.255737,724.420105 
	C1021.806213,732.655029 1023.408142,741.002563 1024.135132,749.298767 
	C1024.161865,749.603333 1024.504150,749.868958 1024.582642,750.181946 
	C1026.101440,756.237915 1027.359375,762.372559 1029.179932,768.335693 
	C1030.810303,773.676025 1032.853149,778.918274 1035.114014,784.026855 
	C1036.298462,786.703491 1038.296265,789.031982 1040.006226,791.461792 
	C1044.188721,797.405273 1048.131104,803.547729 1052.691895,809.188293 
	C1060.265015,818.554138 1069.591919,826.023682 1080.037598,831.961243 
	C1086.217041,835.473755 1092.704590,838.455383 1099.129639,841.515808 
	C1100.390869,842.116455 1102.074585,841.766052 1103.438843,842.224854 
	C1109.943604,844.412354 1116.280884,847.252869 1122.922852,848.826599 
	C1127.970703,850.022644 1133.384277,849.897583 1138.639038,849.947266 
	C1147.101807,850.027344 1155.524658,849.875916 1163.749268,847.102234 
	C1168.436768,845.521484 1173.721191,845.590881 1178.277466,843.768555 
	C1185.860840,840.735718 1193.294189,837.162476 1200.380981,833.101746 
	C1207.171997,829.210571 1213.732666,824.776917 1219.866577,819.915527 
	C1227.593384,813.791870 1232.703857,805.423462 1238.128052,797.246033 
	C1245.682251,785.857178 1248.883057,772.836060 1252.651978,760.198059 
	C1255.396729,750.994080 1255.361694,740.870605 1255.844116,731.121338 
	C1256.079712,726.361267 1254.103882,721.517700 1254.120605,716.715393 
	C1254.153809,707.131653 1251.876587,698.123230 1248.638184,689.268738 
	C1247.162231,685.233032 1245.662231,681.174255 1243.750244,677.336609 
	C1239.957153,669.723206 1235.669678,662.525940 1230.245239,655.762939 
	C1224.314575,648.368835 1218.102905,641.588806 1210.427490,636.124695 
	C1207.017334,633.696838 1203.448975,631.491882 1200.022583,629.085632 
	C1193.033203,624.177246 1185.494751,620.367859 1177.289062,618.036804 
	C1172.822632,616.768127 1168.248535,615.756287 1163.656494,615.079773 
	C1155.463745,613.872864 1147.242188,612.568726 1138.990601,612.165894 
	C1134.092651,611.926758 1129.126953,613.759766 1124.169434,613.906372 
	C1115.307373,614.168396 1107.211426,616.635559 1098.935425,619.738525 
	C1087.647461,623.970703 1077.454834,629.816406 1068.343628,637.384216 
	C1061.397583,643.153503 1055.384766,650.046509 1048.459473,657.016113 
z"/>
<path fill="#FFFFFF" opacity="1.000000" stroke="none" 
	d="
M646.004639,612.959656 
	C648.054321,610.707458 649.931335,608.683594 652.089294,607.025208 
	C660.874695,600.273865 669.671082,593.531067 678.635620,587.022400 
	C681.050110,585.269348 684.000122,584.164246 686.828430,583.087830 
	C694.409607,580.202820 701.955139,577.148743 709.715942,574.837280 
	C714.902161,573.292603 720.593079,573.440613 725.777222,571.891235 
	C738.187195,568.182129 750.853943,569.085144 763.468750,569.060608 
	C769.885925,569.048157 776.370972,569.204163 782.705688,570.115723 
	C791.125977,571.327332 799.790955,572.376099 807.680603,575.301941 
	C815.414490,578.170166 823.295349,580.816467 830.874023,584.475708 
	C840.386902,589.068909 849.063354,594.262390 857.627380,600.424744 
	C865.260986,605.917542 872.516724,611.604065 878.790405,618.466431 
	C882.648987,622.686951 884.850952,628.761047 889.252930,632.059387 
	C894.672363,636.119995 896.258057,642.136597 899.728271,647.098938 
	C902.853088,651.567566 904.928833,656.863342 906.927002,662.004211 
	C909.820190,669.447693 912.562195,676.985718 914.729919,684.663757 
	C916.344116,690.381042 917.461853,696.346436 917.894836,702.267578 
	C918.890198,715.879272 920.089661,729.551147 919.736084,743.160400 
	C919.496948,752.364136 916.822266,761.515442 915.106140,770.665588 
	C914.218445,775.398865 913.399536,780.193787 911.913391,784.753540 
	C910.078003,790.384460 907.627319,795.818848 905.355957,801.302307 
	C903.403931,806.015076 901.772766,810.939636 899.193359,815.292725 
	C896.266418,820.232422 894.382385,825.716553 889.417542,829.672607 
	C885.524536,832.774658 883.753601,838.397705 880.227417,842.134033 
	C874.214966,848.504761 868.083252,854.987732 861.041077,860.100464 
	C853.562073,865.530396 845.051575,869.583862 836.829407,873.931946 
	C830.138245,877.470337 823.332336,880.860107 816.336243,883.727844 
	C812.227112,885.412231 807.651611,885.967957 803.277344,886.994995 
	C796.283813,888.636963 789.291504,890.286133 782.278015,891.839111 
	C781.003967,892.121155 779.631226,891.993408 778.304077,891.994446 
	C766.473083,892.004028 754.626221,892.375366 742.816467,891.874573 
	C734.239441,891.510803 725.568359,890.638184 717.202393,888.796814 
	C709.026306,886.997131 700.938660,884.242615 693.259033,880.885010 
	C684.273010,876.956299 675.369812,872.536926 667.170654,867.194641 
	C658.983826,861.860352 651.682983,855.157471 644.061584,848.971008 
	C642.368958,847.596985 640.960388,845.873047 639.421021,844.310181 
	C639.012512,844.581970 638.603943,844.853699 638.195435,845.125427 
	C638.195435,910.200073 638.195435,975.274719 638.195435,1040.674438 
	C621.126465,1040.674438 604.388672,1040.674438 587.324707,1040.674438 
	C587.324707,886.806519 587.324707,732.756226 587.324707,578.352905 
	C603.484192,578.352905 619.889526,578.352905 636.811401,578.352905 
	C636.811401,592.636169 636.811401,607.198853 636.811401,621.761597 
	C637.285034,622.029968 637.758728,622.298340 638.232361,622.566711 
	C640.808594,619.496521 643.384888,616.426270 646.004639,612.959656 
M853.037842,786.726562 
	C855.900208,779.096069 858.897156,771.511658 861.536621,763.804749 
	C862.258118,761.698364 861.668274,759.179565 862.092651,756.927734 
	C863.279663,750.628967 865.408752,744.418884 865.827026,738.085388 
	C866.430237,728.951721 866.534424,719.726624 864.065369,710.673279 
	C862.626953,705.398987 862.524841,699.703247 860.682312,694.609070 
	C857.603516,686.096436 853.995483,677.717773 849.873657,669.659485 
	C847.011414,664.063782 843.468933,658.591553 839.238281,653.972717 
	C832.858643,647.007690 825.767883,640.660156 818.670776,634.400085 
	C815.056335,631.211975 811.033691,628.237122 806.717957,626.156372 
	C801.318970,623.553467 795.317871,622.231262 789.776855,619.883789 
	C781.338440,616.308777 772.679932,614.230774 763.494568,613.913208 
	C759.007935,613.758118 754.555969,612.665710 750.081055,612.050293 
	C749.274658,611.939392 748.415222,611.986206 747.610718,612.130066 
	C744.327454,612.717468 741.078369,613.554871 737.774841,613.955994 
	C733.059082,614.528625 728.102051,614.083679 723.617615,615.365845 
	C716.748657,617.329773 710.113220,620.206543 703.530945,623.048645 
	C697.632385,625.595581 691.403748,627.881836 686.281860,631.605286 
	C678.668152,637.140320 671.270203,643.264404 664.943237,650.198792 
	C657.954224,657.858643 651.280334,666.167236 646.309265,675.205322 
	C641.360474,684.202820 637.974854,694.259705 635.257385,704.221313 
	C633.108276,712.099792 632.610840,720.515625 632.161011,728.735535 
	C631.920654,733.126831 633.655396,737.589417 633.920288,742.054138 
	C634.268250,747.918884 635.238892,753.516357 636.582336,759.289246 
	C638.411926,767.151245 641.621765,774.098389 644.815430,781.333618 
	C649.937073,792.936951 657.338135,802.808350 665.574890,812.164124 
	C672.233398,819.727356 679.266968,826.828796 688.596680,831.391785 
	C696.261169,835.140442 703.073730,841.220154 711.057495,843.567993 
	C719.727844,846.117676 728.509949,849.877563 738.009033,849.006531 
	C738.504272,848.961121 739.023071,848.930481 739.505615,849.023865 
	C752.657654,851.570190 765.468384,848.953247 778.221375,846.251831 
	C782.721558,845.298462 787.057068,843.517944 791.419922,841.979248 
	C795.777588,840.442444 800.259460,839.100647 804.362549,837.030640 
	C814.033813,832.151611 822.999512,826.198303 830.454956,818.181152 
	C831.569519,816.982605 833.347656,816.364563 834.350342,815.105042 
	C837.769775,810.809387 841.154663,806.464905 844.221375,801.915649 
	C847.351929,797.271851 850.091675,792.364441 853.037842,786.726562 
z"/>
<path fill="#FFFFFF" opacity="1.000000" stroke="none" 
	d="
M1029.027832,288.081848 
	C1030.369141,294.115265 1031.597900,299.746674 1033.027588,305.326599 
	C1034.177002,309.812744 1035.584961,314.232300 1036.837036,318.692932 
	C1037.011597,319.314850 1036.993042,320.002686 1036.993408,320.660065 
	C1037.001221,336.564667 1036.999512,352.469299 1036.999512,368.780457 
	C953.432129,368.780457 869.027405,368.780457 784.814941,368.780457 
	C783.787231,372.077728 782.144043,374.952179 782.173035,377.809692 
	C782.218384,382.280090 783.042786,386.831970 784.189026,391.177368 
	C785.393433,395.743286 786.985901,400.295563 789.087585,404.515747 
	C792.442566,411.252533 795.635864,418.272125 800.209229,424.151825 
	C806.885498,432.734985 814.247681,440.930969 822.237976,448.293060 
	C827.362122,453.014404 833.976746,456.247894 840.223389,459.586823 
	C847.309082,463.374268 854.488770,467.247437 862.058716,469.809235 
	C875.036499,474.201172 888.760437,473.770966 902.131775,472.685791 
	C909.413025,472.094879 916.448364,468.365112 923.574158,465.989868 
	C938.586426,460.985809 951.378845,452.290802 963.456909,442.288727 
	C968.796814,437.866669 974.776733,434.224152 980.207275,429.902527 
	C983.365173,427.389526 985.888977,424.090546 988.964233,421.455933 
	C989.818237,420.724243 992.039856,420.479370 992.925415,421.071320 
	C999.383118,425.388580 1005.785889,429.811554 1011.957214,434.526794 
	C1017.731079,438.938416 1023.199158,443.750305 1029.687622,449.118988 
	C1021.170959,458.539124 1013.212280,468.436859 1004.066284,477.078003 
	C997.843445,482.957336 990.217346,487.524231 982.742554,491.856598 
	C975.408203,496.107635 967.604919,499.639648 959.764282,502.903015 
	C951.074463,506.519775 942.371582,510.203888 932.763184,511.083618 
	C926.505798,511.656494 920.133301,512.369385 914.138733,514.130493 
	C900.563477,518.118652 886.817810,515.370361 873.181763,515.783875 
	C865.997375,516.001770 858.620056,514.521851 851.555481,512.853455 
	C842.571228,510.731659 833.563171,508.261932 825.034729,504.789551 
	C817.020569,501.526550 809.468567,497.014099 801.993713,492.578613 
	C796.429993,489.277191 791.722168,484.290192 785.895691,481.736450 
	C778.600037,478.538727 775.444763,471.041748 768.543274,467.438538 
	C764.902588,465.537781 762.679443,460.757202 760.060059,457.102112 
	C755.744812,451.080750 751.319458,445.101318 747.531067,438.751892 
	C744.850281,434.258881 743.157532,429.178284 740.999329,424.370911 
	C738.826782,419.531403 736.501221,414.755371 734.504700,409.845001 
	C733.852356,408.240479 734.129150,406.281586 733.796448,404.519592 
	C732.572144,398.035309 732.145264,391.216797 729.742859,385.192200 
	C727.505920,379.582703 729.599365,373.751862 727.717407,368.782440 
	C725.294495,362.384644 726.084106,356.132355 726.136963,349.853058 
	C726.191284,343.405884 727.172852,336.944061 728.068420,330.533356 
	C728.802734,325.276978 729.579773,319.957977 731.100525,314.895874 
	C733.490356,306.940826 736.214905,299.052368 739.372986,291.372253 
	C742.176514,284.554474 745.338867,277.804932 749.117859,271.488983 
	C753.248169,264.585785 758.055420,258.050934 762.973999,251.668701 
	C766.374451,247.256302 770.241150,243.137894 774.302917,239.316925 
	C779.328857,234.588928 784.504089,229.928146 790.110291,225.933701 
	C795.834961,221.854843 801.934753,218.145203 808.276794,215.128403 
	C816.937317,211.008728 825.956116,207.630920 834.885071,204.096176 
	C836.650391,203.397308 838.717651,203.494049 840.623047,203.111008 
	C851.858826,200.852264 863.033936,198.645782 874.524292,197.468140 
	C881.167175,196.787308 887.873474,195.911819 894.486877,196.165085 
	C903.565735,196.512772 912.658020,197.664505 921.634583,199.140503 
	C928.084229,200.201019 934.538086,201.863174 940.655762,204.150864 
	C947.711609,206.789337 954.406311,210.397018 961.246094,213.608780 
	C967.175964,216.393295 973.246399,218.931305 978.954590,222.116196 
	C982.721558,224.217957 986.177246,227.030441 989.383362,229.951614 
	C995.449036,235.478287 1001.479675,241.086472 1007.035583,247.111877 
	C1009.907898,250.226944 1011.736877,254.305649 1014.027466,257.955048 
	C1017.234375,263.064270 1020.784912,267.998444 1023.525452,273.347198 
	C1025.840942,277.866333 1027.212769,282.868958 1029.027832,288.081848 
M790.569031,300.052032 
	C786.434326,309.545654 782.911560,319.161530 784.251526,329.873535 
	C851.578491,329.873535 918.535034,329.873535 985.618347,329.873535 
	C985.091248,326.582550 984.668701,323.415833 984.058350,320.285797 
	C983.476440,317.301636 982.332031,314.386841 982.077209,311.386993 
	C981.377197,303.146332 977.300964,296.201721 974.041199,288.918457 
	C969.881104,279.623901 964.184570,271.451447 956.365417,264.905731 
	C951.048523,260.454681 945.937622,255.437210 939.903748,252.241730 
	C931.910889,248.008713 923.245789,244.874832 914.602295,242.101395 
	C908.987000,240.299576 902.895874,239.979355 897.016663,239.002792 
	C896.051758,238.842529 895.078430,238.587189 894.112610,238.602448 
	C887.081726,238.713608 879.867981,237.946365 873.070312,239.281387 
	C865.358704,240.795914 857.949646,244.024933 850.539612,246.850708 
	C843.689758,249.462860 836.595032,251.829117 830.358032,255.557999 
	C821.247681,261.004852 813.153503,267.945953 806.337708,276.252380 
	C800.355225,283.543121 794.826477,291.086548 790.569031,300.052032 
z"/>
<path fill="#FFFFFF" opacity="1.000000" stroke="none" 
	d="
M249.651001,833.346558 
	C248.901413,832.173157 248.333939,831.343140 248.010818,830.426880 
	C243.375748,817.285217 242.662628,803.718933 242.813293,789.890930 
	C242.902267,781.725647 245.678192,774.446167 247.598053,766.838745 
	C250.536575,755.195007 256.195892,745.143494 265.071594,736.971924 
	C270.042816,732.395081 274.698486,727.399841 280.073914,723.362122 
	C284.182983,720.275574 289.368744,718.667480 293.768890,715.911987 
	C299.567047,712.281067 306.211853,711.748047 312.445435,709.742798 
	C318.763550,707.710327 324.948547,705.821350 331.552734,704.861572 
	C339.449829,703.713867 347.353912,702.133362 355.006348,699.891602 
	C367.736938,696.162292 380.889587,698.571899 393.567657,696.692261 
	C411.475861,694.037292 429.431519,695.654358 447.272308,693.931641 
	C452.709351,693.406616 458.068115,692.070923 463.999115,691.010681 
	C463.999115,685.868591 464.840698,679.931580 463.827637,674.329956 
	C461.574493,661.871643 459.065460,649.083496 450.434479,639.275879 
	C445.497131,633.665405 439.086029,629.020447 432.598724,625.195374 
	C425.603333,621.070618 417.891327,617.992920 410.200714,615.285950 
	C406.308685,613.916016 401.778748,614.124451 397.529724,614.050476 
	C388.200592,613.888000 378.834961,613.521301 369.543762,614.136963 
	C360.569733,614.731628 351.841217,616.863037 343.183929,619.745972 
	C334.281799,622.710510 325.827515,626.429688 317.630096,630.822327 
	C313.746918,632.903137 310.353119,635.910522 306.441071,637.920898 
	C301.137695,640.646301 296.754700,644.328857 292.627655,648.539062 
	C291.976715,649.203064 288.938202,648.743347 288.096069,647.813538 
	C280.303162,639.210083 272.718170,630.416504 265.177490,621.588745 
	C264.428986,620.712524 263.985046,619.215942 264.063507,618.052002 
	C264.571564,610.516846 268.627625,605.406677 275.203339,601.945923 
	C280.189545,599.321655 284.960541,596.289856 289.934082,593.639832 
	C294.976013,590.953308 300.031799,588.233521 305.290680,586.026672 
	C314.412476,582.198608 323.525330,578.360718 333.484039,576.909790 
	C342.360138,575.616760 351.254578,574.112061 359.937256,571.900940 
	C376.335846,567.724731 392.908356,570.653870 409.373962,570.272156 
	C416.176331,570.114441 423.087250,572.807556 429.877808,574.490479 
	C436.551910,576.144531 443.544708,577.302429 449.667206,580.214050 
	C459.723083,584.996216 470.255432,589.188416 478.291656,597.551270 
	C482.608063,602.043091 487.967255,605.553223 492.143280,610.153320 
	C495.626831,613.990540 498.682159,618.491028 500.836823,623.196960 
	C504.209656,630.563538 507.181091,638.207947 509.338165,646.006958 
	C511.006989,652.040649 511.753143,658.478943 511.885834,664.759033 
	C512.227234,680.916077 510.999603,697.161255 512.220581,713.232788 
	C514.370972,741.538391 513.769409,769.836487 514.025879,798.146851 
	C514.231995,820.897217 514.521301,843.649292 515.103149,866.392151 
	C515.247009,872.012390 516.670471,877.599915 517.572632,883.651245 
	C502.199188,883.651245 487.457916,883.651245 471.544128,883.651245 
	C470.728577,877.727051 469.737793,871.463257 469.035797,865.167297 
	C468.334961,858.882080 467.923370,852.564575 467.272614,844.945129 
	C463.689423,848.252930 460.926483,850.585754 458.414246,853.163025 
	C450.635468,861.143066 443.123047,869.070984 432.801636,874.378296 
	C425.168030,878.303528 418.049377,882.726746 409.624878,885.285217 
	C401.839752,887.649475 394.026459,888.784119 386.159058,890.341125 
	C372.410461,893.061951 358.708466,892.931885 344.926605,892.944824 
	C339.675659,892.949768 334.187958,893.188354 329.222382,891.818726 
	C319.130188,889.035095 308.849823,887.226318 299.135223,882.440125 
	C291.031158,878.447510 283.416077,873.970154 275.988312,868.995422 
	C267.961792,863.619446 261.498077,856.597412 256.404755,848.533752 
	C253.550781,844.015381 252.054657,838.639465 249.651001,833.346558 
M461.787506,734.301697 
	C448.895111,734.534485 435.995392,734.578552 423.113251,735.076782 
	C416.302826,735.340088 409.523529,736.399536 402.729065,737.088562 
	C399.477661,737.418335 396.160828,737.428040 392.985413,738.106140 
	C387.995209,739.171875 383.136139,740.843384 378.154846,741.961121 
	C371.432861,743.469482 364.555359,744.352600 357.914764,746.137146 
	C350.836182,748.039490 344.082062,751.240601 336.954376,752.843689 
	C329.493866,754.521606 322.659546,756.980103 315.951874,760.802002 
	C303.334198,767.991394 297.725281,779.145935 296.095001,792.727417 
	C294.947327,802.288452 297.480804,811.421265 301.557770,820.046631 
	C306.377991,830.244568 314.280670,837.243774 324.880127,840.952271 
	C329.522278,842.576416 334.399506,843.595764 339.230560,844.597473 
	C346.925934,846.193237 354.621765,848.004272 362.412323,848.856201 
	C368.827759,849.557739 375.419708,848.556152 381.862518,849.119873 
	C388.858643,849.732178 394.909698,846.739563 401.109344,844.777222 
	C407.764801,842.670532 414.106812,839.298950 420.230743,835.849365 
	C430.421570,830.109070 438.411896,821.736328 445.075989,812.290833 
	C449.057037,806.648315 452.061615,800.297302 455.308167,794.160583 
	C460.467377,784.408447 462.400421,773.643982 463.818573,762.931152 
	C464.771759,755.730591 464.136108,748.297424 463.909210,740.977722 
	C463.848663,739.023621 462.677826,737.103943 461.787506,734.301697 
z"/>
<path fill="#FFFFFF" opacity="1.000000" stroke="none" 
	d="
M1415.667847,842.372192 
	C1420.220093,844.122742 1424.394409,845.973694 1428.764771,846.900391 
	C1435.238281,848.273071 1441.989868,850.308472 1448.367432,849.636719 
	C1455.570801,848.877869 1462.970703,850.459717 1470.164429,847.268616 
	C1475.139893,845.061523 1481.468140,845.929077 1486.477661,843.767395 
	C1493.854858,840.584045 1501.641357,837.947205 1507.400024,831.464539 
	C1512.540771,825.677673 1516.936646,819.860413 1518.056641,811.985718 
	C1518.367188,809.801636 1519.447754,807.738831 1519.986816,805.573486 
	C1522.886108,793.926880 1518.199341,784.800903 1510.833862,776.165771 
	C1504.679688,768.950623 1496.001099,767.093018 1487.902954,764.155212 
	C1478.933716,760.901306 1469.591919,758.676514 1460.417969,755.984558 
	C1451.364624,753.328186 1442.305298,750.690674 1433.271851,747.967773 
	C1421.256348,744.346008 1409.189331,740.870361 1397.296875,736.877625 
	C1392.475220,735.258850 1388.089478,732.370605 1383.442871,730.193176 
	C1378.852539,728.042053 1373.640991,726.788696 1369.671631,723.837463 
	C1363.150391,718.988831 1355.579224,715.152466 1351.869019,707.030945 
	C1349.073975,700.912537 1344.745239,695.452454 1342.307739,689.226257 
	C1340.288696,684.069153 1339.798462,678.252075 1339.060181,672.670654 
	C1338.142578,665.734009 1337.027466,658.721313 1337.219482,651.775208 
	C1337.352661,646.955444 1339.650024,642.216431 1340.770142,637.392517 
	C1341.211182,635.493652 1340.797974,633.393860 1341.254639,631.501587 
	C1344.901123,616.389771 1354.051636,604.605896 1365.321289,594.657166 
	C1370.236816,590.317871 1376.994751,588.015686 1383.020874,584.997864 
	C1389.886719,581.559387 1396.830200,578.267151 1403.834229,575.121460 
	C1405.243774,574.488464 1407.180542,575.117676 1408.697876,574.623413 
	C1428.587646,568.143738 1449.125488,568.572449 1469.610352,569.129517 
	C1476.491821,569.316650 1483.565063,570.223083 1490.136475,572.186768 
	C1499.737061,575.055664 1509.211548,578.644531 1518.294556,582.880737 
	C1533.579712,590.009521 1546.882812,600.020569 1558.000366,612.832825 
	C1561.281494,616.614258 1564.400391,620.100586 1564.152588,625.798645 
	C1563.936035,630.779785 1561.767090,633.603455 1557.757446,636.077698 
	C1553.256348,638.855042 1549.243774,642.410706 1544.874023,645.417603 
	C1540.098145,648.703918 1535.299438,652.007629 1530.237061,654.809265 
	C1526.895142,656.658875 1524.484863,653.552734 1523.250610,651.362793 
	C1516.658813,639.666443 1506.500977,631.784058 1495.328491,625.233948 
	C1489.067871,621.563660 1482.149292,619.065918 1475.126953,616.684937 
	C1463.047974,612.589478 1450.946289,614.298523 1438.881226,614.204102 
	C1431.699951,614.147827 1424.855103,617.019226 1418.018311,619.720215 
	C1411.152832,622.432495 1404.744263,625.511414 1399.750610,630.801697 
	C1394.001465,636.892212 1390.070801,644.160889 1390.075439,652.803467 
	C1390.078735,658.935486 1389.348267,665.031250 1391.827026,671.178833 
	C1394.646484,678.171265 1399.799316,682.507629 1405.717896,686.187317 
	C1410.334717,689.057800 1415.319336,691.389160 1420.306152,693.583252 
	C1422.009155,694.332458 1424.305420,693.607910 1426.178467,694.116699 
	C1436.770752,696.994385 1447.309326,700.068970 1457.881470,703.021667 
	C1464.016724,704.735352 1470.185303,706.330139 1476.330933,708.007568 
	C1483.588623,709.988770 1490.914185,711.762817 1498.071655,714.059021 
	C1507.757812,717.166626 1517.637329,719.996094 1526.788452,724.312866 
	C1531.500488,726.535583 1536.150879,730.066040 1540.574829,733.007507 
	C1547.052734,737.314453 1551.589600,743.063660 1556.909790,748.140198 
	C1563.131348,754.076965 1566.120117,762.250488 1568.975830,770.263855 
	C1573.170776,782.035522 1572.481812,794.329651 1571.785034,806.393860 
	C1571.226562,816.061401 1570.239990,825.968994 1564.345825,834.492432 
	C1562.672119,836.912842 1561.990356,840.062561 1561.057617,842.943787 
	C1558.318481,851.406189 1552.463867,858.008545 1546.704102,864.183350 
	C1541.907959,869.325317 1535.109619,872.693604 1528.948730,876.437195 
	C1524.438599,879.177673 1519.527588,881.259521 1514.784058,883.612366 
	C1514.356934,883.824219 1513.845337,883.862061 1513.376953,883.994812 
	C1507.531250,885.652039 1501.716431,887.432678 1495.823608,888.900818 
	C1493.935791,889.371155 1491.767090,888.674927 1489.855103,889.095520 
	C1478.671265,891.555847 1467.397827,893.199158 1455.927490,892.975220 
	C1444.673706,892.755554 1433.230835,893.471375 1422.239136,891.606140 
	C1414.711182,890.328735 1406.497803,890.290894 1399.527832,885.509583 
	C1396.397461,883.362183 1391.956177,883.142334 1388.125122,881.996277 
	C1379.062012,879.285095 1370.494141,875.565125 1362.953247,869.711365 
	C1357.462280,865.448730 1351.820435,861.376892 1346.402588,857.024780 
	C1340.376099,852.183899 1334.602417,847.028381 1328.571045,842.194031 
	C1325.415283,839.664673 1321.943115,837.530212 1318.015625,834.801697 
	C1317.408691,832.708252 1318.411621,831.428833 1321.296387,829.806458 
	C1326.545776,826.854187 1331.127319,822.715454 1335.991699,819.077271 
	C1343.593628,813.391724 1351.163086,807.662109 1358.819824,802.051331 
	C1361.993286,799.725708 1365.542114,801.764282 1368.135742,805.372986 
	C1371.894775,810.603333 1376.492554,815.249146 1380.903809,819.984924 
	C1383.198608,822.448730 1385.662598,824.849548 1388.397217,826.789734 
	C1394.125977,830.853943 1399.968384,834.789124 1405.999512,838.382202 
	C1408.845703,840.077759 1412.234619,840.862000 1415.667847,842.372192 
z"/>
<path fill="#FFFFFF" opacity="1.000000" stroke="none" 
	d="
M1917.254395,611.988770 
	C1920.964478,613.669434 1924.254883,615.365967 1927.577148,616.997070 
	C1935.243530,620.761108 1942.927124,624.489929 1950.600708,628.239380 
	C1957.936157,631.823608 1965.303101,635.346069 1972.592041,639.022644 
	C1981.503418,643.517395 1990.305420,648.229919 1999.234009,652.689758 
	C2007.667480,656.902344 2016.248901,660.818909 2024.683228,665.029907 
	C2034.932739,670.147461 2045.042969,675.545166 2055.316406,680.613098 
	C2061.943115,683.882202 2068.774170,686.734314 2075.475098,689.855713 
	C2079.267578,691.622253 2083.010254,693.501770 2086.725098,695.427063 
	C2091.189697,697.740845 2095.510742,700.349609 2100.056152,702.485291 
	C2107.125732,705.807129 2114.442383,708.672302 2120.268555,714.098022 
	C2121.421143,715.171326 2122.603271,716.622009 2122.939697,718.089417 
	C2124.152344,723.378540 2126.330322,728.922363 2125.659180,734.044312 
	C2124.855957,740.172241 2125.186768,747.286804 2120.763428,752.207825 
	C2118.122559,755.145630 2113.763916,756.648071 2110.014648,758.458679 
	C2101.798828,762.426331 2093.411621,766.042236 2085.219727,770.057373 
	C2076.434082,774.363342 2067.823730,779.024841 2059.077637,783.413086 
	C2052.507568,786.709595 2045.804077,789.740417 2039.232422,793.034058 
	C2032.323242,796.496887 2025.565796,800.266357 2018.620361,803.652039 
	C2012.014648,806.872253 2005.152344,809.571716 1998.584106,812.861877 
	C1991.191895,816.564697 1984.024048,820.713074 1976.712036,824.579590 
	C1974.479248,825.760254 1972.092163,826.648865 1969.776611,827.673157 
	C1962.756470,830.778564 1955.619141,833.647461 1948.745117,837.048218 
	C1939.229736,841.755798 1929.981079,847.000732 1920.489258,851.758118 
	C1912.630615,855.696960 1904.590332,859.273682 1896.621338,862.991150 
	C1886.590576,867.670349 1876.493530,872.212219 1866.532593,877.035156 
	C1858.690308,880.832092 1851.101318,885.156067 1843.230957,888.889893 
	C1836.576904,892.046570 1829.664429,894.655151 1822.896240,897.575745 
	C1817.451416,899.925415 1812.051270,902.379272 1806.533813,904.830261 
	C1801.875000,895.123230 1804.204712,884.612854 1804.257080,874.437317 
	C1804.282104,869.588257 1806.081909,864.097046 1808.833496,860.107605 
	C1811.287720,856.549194 1815.965332,854.301819 1820.003418,852.103394 
	C1829.017334,847.195923 1838.251221,842.693298 1847.382446,838.000244 
	C1854.391602,834.397705 1861.356934,830.708923 1868.385620,827.145203 
	C1875.100098,823.740906 1881.873657,820.453491 1888.616577,817.105347 
	C1900.468628,811.220459 1912.276123,805.243896 1924.183594,799.473511 
	C1930.687134,796.321838 1937.415283,793.635559 1943.936035,790.517395 
	C1950.370239,787.440613 1956.636230,784.013367 1963.041992,780.874573 
	C1967.304932,778.785828 1971.762695,777.089294 1975.995117,774.944519 
	C1986.236938,769.754578 1996.306763,764.217224 2006.630127,759.198730 
	C2011.778076,756.696228 2017.395020,755.177124 2022.676514,752.924255 
	C2026.089355,751.468628 2029.232666,749.394897 2032.577515,747.763855 
	C2040.074341,744.108154 2047.643066,740.600037 2055.135254,736.935059 
	C2057.424072,735.815491 2059.558105,734.380127 2062.534424,732.637939 
	C2058.917969,730.694946 2055.475830,728.797607 2051.991211,726.982544 
	C2041.807983,721.678101 2031.678589,716.263123 2021.387573,711.175537 
	C2015.232910,708.132812 2008.680420,705.891174 2002.542480,702.818604 
	C1989.081299,696.079834 1975.844727,688.891296 1962.366211,682.188416 
	C1955.515747,678.781677 1948.184204,676.338867 1941.349365,672.904663 
	C1932.396851,668.406311 1923.792603,663.219177 1914.895996,658.603088 
	C1910.065796,656.096924 1904.890625,654.265137 1899.958862,651.942932 
	C1892.380005,648.374207 1884.837646,644.723206 1877.351318,640.964478 
	C1867.708984,636.123352 1858.172852,631.069946 1848.522217,626.245728 
	C1842.361084,623.165894 1836.041992,620.403503 1829.853882,617.375610 
	C1822.341431,613.699829 1814.870483,609.937073 1807.450928,606.078430 
	C1806.719604,605.698120 1806.066650,604.389038 1806.061279,603.506775 
	C1805.974976,589.526794 1806.000610,575.546082 1806.000610,560.378479 
	C1811.469238,561.723022 1816.650513,562.460693 1821.399780,564.308594 
	C1826.614136,566.337402 1831.440918,569.369568 1836.418091,571.999573 
	C1844.429443,576.232788 1852.348755,580.648926 1860.452515,584.696167 
	C1867.061768,587.997009 1873.973633,590.691467 1880.588135,593.982666 
	C1887.845337,597.593689 1894.885132,601.638855 1902.083008,605.372925 
	C1904.750366,606.756653 1907.605713,607.774902 1910.359497,608.995728 
	C1912.535278,609.960327 1914.686768,610.979797 1917.254395,611.988770 
z"/>
<path fill="#FFFFFF" opacity="1.000000" stroke="none" 
	d="
M1706.684082,637.623474 
	C1708.988037,631.763306 1710.778076,626.121216 1713.132446,620.725342 
	C1715.065674,616.294922 1718.023315,612.306213 1719.897949,607.856750 
	C1723.175781,600.076965 1725.898560,592.065369 1728.993164,584.205750 
	C1731.211914,578.570801 1733.838379,573.092285 1735.942749,567.417725 
	C1737.489868,563.246399 1740.788940,562.112427 1744.484131,562.064453 
	C1757.314087,561.897583 1770.147705,561.986938 1782.979858,562.006348 
	C1788.229370,562.014282 1789.095947,563.857239 1786.772339,568.628601 
	C1783.186157,575.992615 1779.991089,583.545898 1776.528320,590.971436 
	C1773.208130,598.091309 1769.586182,605.075195 1766.426025,612.263550 
	C1764.310791,617.074951 1762.967041,622.222290 1760.919189,627.067627 
	C1758.771606,632.148743 1756.123535,637.015930 1753.828003,642.037598 
	C1751.790527,646.494568 1749.977661,651.053589 1747.992432,655.535095 
	C1743.458008,665.770996 1738.820068,675.961365 1734.338745,686.220276 
	C1731.458496,692.813782 1728.750366,699.483215 1726.023071,706.142334 
	C1723.300171,712.791016 1720.863037,719.565796 1717.907593,726.107788 
	C1714.863647,732.845703 1711.108521,739.264221 1708.111206,746.020691 
	C1705.721313,751.407776 1704.207764,757.178528 1701.930054,762.622009 
	C1699.515137,768.393250 1696.581177,773.944946 1694.011597,779.654541 
	C1690.605713,787.222473 1687.410400,794.885620 1683.978027,802.441223 
	C1681.450562,808.004639 1678.462402,813.365906 1676.086548,818.989197 
	C1673.048218,826.180603 1670.681641,833.660400 1667.538574,840.801575 
	C1664.499146,847.707092 1660.737915,854.291321 1657.503662,861.116272 
	C1656.071045,864.139648 1655.114868,867.394104 1654.014282,870.568604 
	C1651.909058,876.641663 1649.558228,882.372559 1644.829468,887.211609 
	C1641.668213,890.446472 1638.192505,892.691589 1634.191650,892.838684 
	C1622.244141,893.278015 1610.270020,892.996460 1597.326416,892.996460 
	C1598.809448,887.994324 1599.842773,883.513550 1601.469971,879.260132 
	C1603.748901,873.303528 1606.478882,867.519897 1608.999512,861.655212 
	C1610.706299,857.684387 1612.314819,853.669922 1614.093262,849.731812 
	C1616.665771,844.034790 1619.462524,838.437256 1621.961182,832.708923 
	C1624.764160,826.283081 1627.279053,819.732056 1630.030640,813.282959 
	C1635.319702,800.887451 1640.704834,788.533081 1646.014771,776.146484 
	C1648.723267,769.828491 1651.197144,763.405090 1654.065796,757.161987 
	C1657.097046,750.565369 1660.693481,744.224487 1663.628052,737.588379 
	C1666.065552,732.076477 1667.748169,726.235413 1670.043945,720.654846 
	C1672.546509,714.571472 1675.365112,708.617920 1678.056396,702.612366 
	C1679.694702,698.956299 1681.328857,695.298035 1683.006348,691.659851 
	C1687.114380,682.750061 1691.344604,673.894836 1695.324585,664.928467 
	C1697.128296,660.864685 1698.334473,656.539612 1700.028931,652.422302 
	C1702.035156,647.547302 1704.275513,642.768555 1706.684082,637.623474 
z"/>
</svg>