<svg version="1.1" id="Layer_1" xmlns="http://www.w3.org/2000/svg" xmlns:xlink="http://www.w3.org/1999/xlink" x="0px" y="0px"
	 width="100%" viewBox="0 0 2298 1070" enable-background="new 0 0 2298 1070" xml:space="preserve">
<path fill="#454545" opacity="1.000000" stroke="none" 
	d="
M251.850693,286.906586 
	C252.244263,293.011719 252.236908,299.177185 253.144226,305.204987 
	C254.051331,311.231415 255.791931,317.140991 257.310272,323.065125 
	C261.081635,337.780212 266.091400,352.040466 273.759064,365.220886 
	C279.524994,375.132294 285.180603,385.144104 291.609711,394.619751 
	C295.393280,400.196198 300.568359,404.834076 305.161896,409.853485 
	C308.107849,413.072449 310.823914,416.601746 314.186340,419.319733 
	C322.498566,426.038757 330.743011,432.968445 339.729492,438.690887 
	C348.731079,444.422913 358.497162,449.002899 368.115662,453.704163 
	C377.986237,458.528625 388.512360,461.421173 399.167145,464.185394 
	C408.682007,466.653900 418.399689,467.309143 427.834595,469.280701 
	C442.451355,472.334991 456.923401,470.425751 471.423309,470.755554 
	C479.520081,470.939758 487.801758,469.508301 495.758331,467.725677 
	C506.213806,465.383148 516.479248,462.134705 526.738647,458.989441 
	C539.308777,455.135803 551.890442,451.271210 564.260559,446.835327 
	C569.853455,444.829742 573.719604,440.733765 573.968689,433.965240 
	C574.132507,429.511261 575.853027,425.091339 575.835327,420.660278 
	C575.816711,415.991730 574.227234,411.349091 573.931396,406.656830 
	C573.593689,401.301025 573.898560,395.902527 573.973206,390.523285 
	C574.181702,375.511108 574.306946,360.496521 574.685669,345.488464 
	C574.871216,338.134705 576.029785,330.779327 575.818787,323.451416 
	C575.691406,319.024933 575.073486,313.384521 572.331909,310.585571 
	C569.206177,307.394409 563.498779,305.326843 558.869507,305.244720 
	C531.714050,304.762848 504.545715,305.001770 477.381744,305.002136 
	C465.502960,305.002289 462.931824,302.476471 462.926117,290.469574 
	C462.925293,288.725708 463.619080,286.986053 463.943207,285.235535 
	C464.105225,284.360596 464.483521,283.346588 464.209839,282.598114 
	C461.808685,276.032043 461.960846,269.379181 465.558746,263.600342 
	C466.888184,261.465027 471.125305,261.140045 474.914703,259.998962 
	C478.285400,259.968140 480.778900,259.964081 483.269714,259.880890 
	C491.882538,259.593262 500.494507,259.278046 509.106781,258.973328 
	C511.192169,259.316803 513.276611,259.951904 515.363098,259.958771 
	C536.549500,260.028442 557.736206,259.995605 579.860168,259.988037 
	C594.254028,259.979675 607.710571,259.974762 621.167114,259.969849 
	C627.787964,258.804321 633.230591,265.842346 633.115540,275.850311 
	C632.737000,308.781128 632.353088,341.711975 632.038086,374.643433 
	C631.926575,386.306274 631.850891,397.973419 632.040771,409.634033 
	C632.262390,423.244354 633.016663,436.848175 633.105591,450.457672 
	C633.159668,458.737183 634.198975,467.790466 627.401245,474.089081 
	C623.266785,477.920013 617.824707,480.508514 612.661926,483.022308 
	C604.339600,487.074493 595.866394,490.865967 587.260315,494.270386 
	C580.530396,496.932678 573.485596,498.791748 566.612793,501.103119 
	C562.523315,502.478424 558.585754,504.393585 554.423035,505.445862 
	C543.583984,508.185944 532.538757,510.165375 521.801208,513.236389 
	C511.140411,516.285461 500.187561,516.644165 489.413849,518.368164 
	C468.703827,521.682190 448.046387,519.436584 427.399231,519.785828 
	C417.666656,519.950500 407.858856,517.014526 398.123535,515.269165 
	C389.348022,513.695984 380.530029,512.199036 371.908325,509.978882 
	C364.827118,508.155426 357.952972,505.462891 351.084869,502.894073 
	C343.383942,500.013763 335.607544,497.228027 328.201935,493.693085 
	C319.265930,489.427704 310.801422,484.183136 301.921112,479.790344 
	C290.697968,474.238647 281.693848,465.747192 271.768433,458.430786 
	C260.313202,449.986633 250.972107,439.538025 242.591492,428.591675 
	C232.669373,415.631958 224.272888,401.310974 216.719421,386.797150 
	C211.457016,376.685516 208.529083,365.321136 204.933517,354.392914 
	C202.480637,346.937805 200.367645,339.337463 198.677460,331.675262 
	C197.323166,325.535797 197.305496,319.095123 195.874252,312.980164 
	C191.079803,292.495880 193.415253,271.723969 193.118271,251.081482 
	C192.966187,240.510712 194.283646,229.958099 197.640121,219.720184 
	C199.313843,214.614960 199.429413,209.009476 200.987976,203.853424 
	C203.360641,196.004150 206.139923,188.255112 209.179123,180.636063 
	C212.522888,172.253540 215.945099,163.853470 220.087936,155.851822 
	C224.522827,147.286087 229.726120,139.107224 234.793442,130.882355 
	C243.013535,117.540176 253.790833,106.268631 265.007111,95.538048 
	C273.463318,87.448044 282.721252,80.148491 291.988983,72.970520 
	C298.585663,67.861320 305.401062,62.765297 312.806458,59.024685 
	C329.016510,50.836720 345.195190,42.419209 363.315125,38.794037 
	C372.840851,36.888271 382.146393,33.880554 391.673340,31.982742 
	C399.135162,30.496307 406.769348,29.801979 414.354736,29.028263 
	C422.808563,28.165968 431.299194,27.671846 439.763519,26.904034 
	C446.089355,26.330210 452.406464,24.968134 458.713806,25.047136 
	C467.877319,25.161913 477.045410,26.087692 486.179565,26.991199 
	C493.275909,27.693136 500.338684,28.793104 507.384979,29.913692 
	C510.198334,30.361103 512.950073,31.263565 515.690247,32.090115 
	C523.113586,34.329288 530.587952,36.430801 537.908081,38.972805 
	C547.149780,42.182133 556.560669,45.144367 565.347656,49.361279 
	C575.986206,54.466747 586.232666,60.473133 596.300110,66.657204 
	C603.879639,71.313026 610.910889,76.861618 618.184570,82.015106 
	C620.923218,83.955467 623.939880,85.623466 626.261719,87.976265 
	C627.265015,88.992928 627.697144,92.304184 626.910522,93.086121 
	C619.677490,100.276459 612.120361,107.140831 604.656982,114.099403 
	C601.297302,117.231804 597.520813,120.031769 594.690002,123.585236 
	C591.730530,127.300186 588.622742,126.638603 585.564880,124.837967 
	C574.150757,118.116714 562.987122,110.967552 551.532898,104.317665 
	C542.324951,98.971893 533.141357,93.385590 523.375366,89.258743 
	C514.597351,85.549408 505.097961,83.463089 495.814545,81.054993 
	C483.870239,77.956665 471.819427,75.597000 459.315735,76.014610 
	C455.016754,76.158180 450.588104,73.812927 446.351654,74.172325 
	C433.998260,75.220314 421.666473,76.768990 409.415039,78.688545 
	C400.812988,80.036331 392.116119,81.598221 383.898590,84.363319 
	C374.644348,87.477257 365.684692,91.662880 356.956696,96.091454 
	C347.607422,100.835251 338.028168,105.550987 329.742645,111.848961 
	C321.094482,118.422630 313.538025,126.561371 306.114349,134.580643 
	C298.791595,142.490921 291.387390,150.561417 285.565186,159.561874 
	C279.160980,169.461960 274.323334,180.407944 269.182068,191.080780 
	C265.886688,197.921692 262.722290,204.923157 260.508331,212.161316 
	C258.083374,220.089355 256.558594,228.326859 255.124817,236.514114 
	C253.753616,244.344025 253.003265,252.282654 252.018982,260.715271 
	C252.179520,261.532013 252.117966,261.754761 251.873260,261.925354 
	C251.921799,262.710876 251.970337,263.496399 251.793915,265.043732 
	C251.662857,272.839233 251.756775,279.872894 251.850693,286.906586 
z"/>
<path fill="#454545" opacity="1.000000" stroke="none" 
	d="
M1636.253296,311.151825 
	C1636.075928,298.557037 1635.953979,285.961121 1635.701660,273.367828 
	C1635.535767,265.075043 1634.900269,256.783447 1634.976562,248.495911 
	C1635.103394,234.714264 1635.451050,220.928375 1636.049194,207.159210 
	C1636.557251,195.462967 1650.453979,191.720596 1658.408081,195.075836 
	C1660.999756,196.169067 1664.781494,196.822403 1667.081055,195.720123 
	C1671.562256,193.571976 1675.358276,195.321136 1679.449341,195.982178 
	C1683.023071,196.559647 1684.926880,198.241150 1685.147339,202.188171 
	C1685.390503,206.543060 1686.931519,210.857574 1686.915283,215.185974 
	C1686.898438,219.657562 1685.315063,224.109848 1685.137207,228.599106 
	C1685.023193,231.477585 1686.212402,234.407745 1687.140625,238.868179 
	C1690.976196,234.425903 1693.765869,231.256638 1696.488037,228.030228 
	C1704.328125,218.737061 1713.721436,211.272720 1724.097412,205.082138 
	C1734.372192,198.951965 1745.205078,193.866623 1756.996948,191.517868 
	C1764.009155,190.121170 1771.353882,190.353546 1778.337402,188.862289 
	C1789.258423,186.530167 1800.096436,188.126373 1810.791870,189.244385 
	C1821.366577,190.349731 1832.192993,191.917130 1841.585693,197.882919 
	C1849.668457,203.016663 1857.998047,207.803329 1865.761108,213.380081 
	C1869.175171,215.832626 1871.621948,219.739716 1874.210938,223.208145 
	C1878.475464,228.921753 1882.424683,234.871536 1886.731812,240.551147 
	C1887.190674,241.156021 1889.660278,241.170120 1890.331787,240.538437 
	C1899.244141,232.154388 1907.813110,223.399506 1916.841309,215.145782 
	C1930.765381,202.416260 1946.630005,194.239655 1965.630249,190.457550 
	C1982.528687,187.093765 1999.265503,186.976776 2016.136963,187.069244 
	C2022.275635,187.102875 2028.426758,189.337387 2034.527100,190.761047 
	C2041.339111,192.350815 2048.035400,194.509720 2054.900879,195.777252 
	C2061.945557,197.077820 2067.838623,200.628448 2073.857910,204.044647 
	C2089.625244,212.993439 2100.905518,226.324875 2109.582764,241.866898 
	C2113.390137,248.685837 2116.007080,256.187286 2118.957764,263.462799 
	C2126.186279,281.286865 2122.501953,300.146545 2124.207764,318.495239 
	C2128.369141,363.256927 2124.829834,408.056610 2126.023682,452.818085 
	C2126.383301,466.304443 2126.219482,479.812744 2125.929199,493.303131 
	C2125.851074,496.933014 2124.678467,500.620117 2123.479980,504.098755 
	C2123.093262,505.221222 2121.067627,505.865570 2119.701904,506.549469 
	C2112.629883,510.091034 2105.711914,511.393097 2097.652588,508.556915 
	C2092.738281,506.827576 2086.771973,508.070923 2081.277832,508.010132 
	C2074.228271,507.932159 2072.006104,505.869171 2072.004395,499.095673 
	C2071.989014,440.955597 2072.144775,382.814758 2071.857178,324.676117 
	C2071.807129,314.528778 2071.132080,304.067169 2068.538086,294.339478 
	C2065.971436,284.715454 2063.478760,274.630402 2056.829346,266.461487 
	C2052.376465,260.991028 2048.886475,254.624176 2043.926880,249.705795 
	C2036.841187,242.678787 2028.147217,237.835297 2018.190186,235.702972 
	C2007.857910,233.490234 1997.569580,230.141220 1986.914673,231.157791 
	C1976.552490,232.146469 1966.033813,233.740479 1956.852661,239.068130 
	C1949.557495,243.301514 1942.170044,247.831863 1936.097168,253.576752 
	C1930.864258,258.527191 1927.192139,265.227234 1923.254150,271.423401 
	C1917.406128,280.625122 1914.823608,291.052521 1911.848511,301.470551 
	C1907.063477,318.226715 1907.270386,335.209595 1907.005127,352.271881 
	C1906.846191,362.491516 1906.410156,372.707153 1906.070068,382.923615 
	C1905.732788,393.057343 1905.218994,403.187378 1905.041504,413.323608 
	C1904.863647,423.486084 1904.751465,433.661987 1905.065918,443.817932 
	C1905.563232,459.874878 1906.900146,475.920166 1906.895386,491.970123 
	C1906.893799,497.235901 1906.502808,503.890076 1900.262085,506.826813 
	C1896.984985,508.368896 1893.277466,509.991821 1889.797607,509.921967 
	C1879.286621,509.711029 1868.778320,508.842224 1858.298096,507.902924 
	C1854.515991,507.563934 1852.913208,504.934204 1852.943237,500.980682 
	C1853.066162,484.816650 1852.996460,468.651093 1852.996948,452.486115 
	C1852.997925,419.156219 1853.818237,385.797333 1852.640747,352.509094 
	C1852.082275,336.720001 1851.662842,320.882538 1850.678345,305.114319 
	C1850.175415,297.056671 1846.789917,289.170227 1844.629517,281.227570 
	C1842.789185,274.461365 1841.190918,267.596527 1838.794434,261.027466 
	C1837.486816,257.443451 1835.262573,253.858276 1832.554688,251.181137 
	C1822.901611,241.638397 1810.862793,236.335510 1797.805542,233.294907 
	C1795.268433,232.704056 1792.481201,233.277817 1789.838745,233.016815 
	C1787.990723,232.834320 1786.198242,232.121155 1784.369995,231.692322 
	C1783.430420,231.471939 1782.413452,231.069763 1781.522095,231.235870 
	C1773.211060,232.784698 1764.766846,233.907654 1756.673340,236.238174 
	C1750.654541,237.971329 1744.878174,240.918823 1739.379761,244.011566 
	C1727.041382,250.951614 1717.914062,261.414978 1710.333008,273.070160 
	C1702.518433,285.084412 1697.571533,298.280731 1693.787109,312.276703 
	C1688.583008,331.523376 1690.606079,350.827637 1690.174927,370.140991 
	C1689.662720,393.084534 1689.140747,416.032715 1689.084106,438.980042 
	C1689.038574,457.413818 1689.724731,475.848694 1689.988892,494.284454 
	C1690.065552,499.628540 1689.258667,505.413940 1683.671631,507.280884 
	C1676.904541,509.542175 1670.119263,511.718781 1662.275879,508.634277 
	C1657.058594,506.582581 1650.431885,508.221680 1644.448242,507.946014 
	C1642.674194,507.864258 1640.884399,507.022125 1639.201782,506.296387 
	C1636.120728,504.967407 1635.571899,502.392487 1635.804565,499.291656 
	C1635.995239,496.749237 1635.725586,494.172211 1636.002319,490.896698 
	C1636.563354,487.877228 1636.970947,485.571686 1636.972534,483.265900 
	C1637.005005,436.188751 1637.033569,389.111511 1636.953369,342.034454 
	C1636.935791,331.739868 1636.497681,321.446014 1636.253296,311.151825 
z"/>
<path fill="#454545" opacity="1.000000" stroke="none" 
	d="
M1338.882812,464.948578 
	C1338.915039,465.421417 1338.947266,465.894257 1338.727783,466.926788 
	C1338.581543,468.962372 1338.686890,470.438232 1338.792114,471.914124 
	C1338.841919,472.405121 1338.891602,472.896149 1338.722290,474.050934 
	C1338.601440,477.768250 1338.699707,480.821777 1338.797852,483.875305 
	C1338.950684,490.121857 1340.000610,496.364899 1337.137329,502.447662 
	C1335.374512,506.192810 1332.412109,507.837311 1328.857300,507.907471 
	C1316.699219,508.147369 1304.532593,508.085663 1292.371216,507.949646 
	C1287.195312,507.891785 1283.203613,501.671295 1283.978516,495.575836 
	C1284.434570,491.987610 1284.935181,488.370605 1284.944092,484.765381 
	C1285.018677,454.775513 1285.111206,424.784607 1284.946167,394.795410 
	C1284.772461,363.219910 1284.459106,331.643158 1283.833130,300.074371 
	C1283.744507,295.607483 1281.443970,291.206512 1280.342773,286.731812 
	C1279.126343,281.789062 1278.643311,276.596985 1276.869995,271.878265 
	C1274.840332,266.477478 1271.622925,261.534821 1269.140137,256.289612 
	C1266.090942,249.847961 1260.203003,246.311234 1254.867065,242.340439 
	C1251.399414,239.759918 1247.377808,237.536682 1243.260376,236.289169 
	C1231.281372,232.659760 1218.942383,229.125031 1206.428345,231.249420 
	C1193.716431,233.407394 1181.184082,236.474304 1169.992432,244.075836 
	C1158.188477,252.093307 1149.109497,262.579956 1140.894287,273.711121 
	C1136.043457,280.283813 1133.524170,288.626556 1130.247192,296.297485 
	C1127.058228,303.762238 1126.316406,311.849762 1124.562622,319.666016 
	C1122.698120,327.975342 1123.930176,336.046204 1122.688965,344.869568 
	C1121.957275,355.064117 1121.479126,364.536407 1121.000977,374.008698 
	C1121.005005,399.312134 1121.009033,424.615570 1120.979248,450.853943 
	C1121.594360,457.510010 1122.243652,463.231171 1122.892822,468.952301 
	C1122.930054,469.416656 1122.967407,469.880981 1122.720215,470.889954 
	C1122.564697,473.264709 1122.693481,475.094818 1122.822388,476.924957 
	C1122.867432,478.034424 1122.912598,479.143890 1122.734375,480.856567 
	C1122.623169,482.940582 1122.735107,484.421356 1122.847046,485.902130 
	C1122.879272,486.385620 1122.911621,486.869141 1122.690430,487.916931 
	C1121.963867,491.025055 1121.490845,493.568817 1121.017822,496.112610 
	C1121.048950,505.312897 1120.318848,505.319672 1111.315918,508.347076 
	C1105.659180,510.249268 1101.009521,509.715881 1095.452148,508.392365 
	C1089.771973,507.039551 1083.529175,508.034912 1077.532715,508.027557 
	C1072.065186,508.020844 1068.983887,505.112518 1068.983643,499.783905 
	C1068.979492,400.492981 1069.011230,301.202026 1068.913696,201.911224 
	C1068.909302,197.474854 1070.027588,195.756989 1074.744141,195.898178 
	C1085.229980,196.212082 1095.763062,196.473312 1106.217651,195.815109 
	C1114.267700,195.308258 1116.757446,198.628326 1117.976807,207.931763 
	C1119.139771,216.804535 1120.034302,225.712509 1121.135498,235.383118 
	C1124.259766,232.318054 1127.362671,229.612839 1130.071655,226.558212 
	C1142.208374,212.872452 1157.404297,203.569016 1173.955688,196.477020 
	C1180.229736,193.788773 1187.191284,192.672546 1193.876465,190.987106 
	C1199.516113,189.565292 1205.171265,187.503326 1210.887573,187.248032 
	C1220.102051,186.836563 1229.392700,187.409393 1238.611084,188.100830 
	C1243.417236,188.461319 1248.192017,189.757339 1252.883789,190.998398 
	C1259.772827,192.820679 1266.828369,194.371613 1273.353394,197.126572 
	C1282.749146,201.093567 1291.326782,206.925064 1298.376831,214.189987 
	C1305.881348,221.923203 1312.161499,230.847519 1318.931641,239.287430 
	C1319.934448,240.537552 1320.692749,241.983734 1321.787964,243.687378 
	C1327.614014,236.349991 1332.877808,228.879822 1339.034668,222.237289 
	C1343.814453,217.080383 1349.465942,212.622345 1355.179810,208.472931 
	C1360.278564,204.770050 1365.927490,201.797348 1371.452393,198.715439 
	C1379.046265,194.479462 1387.170776,191.742569 1395.874634,190.952682 
	C1403.817993,190.231827 1412.127563,190.815140 1419.627930,188.615158 
	C1429.572144,185.698334 1439.383667,187.146072 1449.191650,187.119812 
	C1455.612305,187.102615 1461.990234,189.894073 1468.476929,190.581543 
	C1475.080933,191.281448 1481.048218,193.581787 1487.285522,195.472397 
	C1495.766846,198.043152 1502.763550,202.800232 1509.919678,207.439194 
	C1524.376587,216.811005 1535.096313,229.792511 1543.209229,244.730530 
	C1547.091919,251.879883 1549.439087,259.914581 1552.051270,267.692841 
	C1558.987427,288.348083 1556.669678,309.781189 1556.991333,331.905243 
	C1557.629517,338.537262 1558.283325,344.248444 1558.937012,349.959625 
	C1558.958984,350.425385 1558.980835,350.891144 1558.712646,351.978271 
	C1558.020508,355.024841 1557.274292,357.449860 1557.273560,359.875183 
	C1557.268921,373.859161 1557.323364,387.845642 1557.609497,401.826111 
	C1557.726685,407.547241 1558.474365,413.255463 1558.935303,418.969574 
	C1558.952148,419.438385 1558.968994,419.907166 1558.767822,420.891632 
	C1558.650024,422.572327 1558.750122,423.737335 1558.850220,424.902374 
	C1558.891357,425.385284 1558.932373,425.868225 1558.684204,426.984009 
	C1557.998291,429.341949 1557.287720,431.061890 1557.259399,432.792999 
	C1557.135742,440.337250 1557.106201,447.887238 1557.287720,455.429260 
	C1557.332153,457.275513 1558.302124,459.099457 1558.846558,460.933624 
	C1558.889893,461.421509 1558.933105,461.909424 1558.843384,463.058350 
	C1558.757690,465.112671 1558.805054,466.505920 1558.852295,467.899200 
	C1558.905762,468.695251 1558.959351,469.491333 1558.794067,471.004150 
	C1558.689087,479.129486 1558.802734,486.538055 1558.916504,493.946625 
	C1558.939575,494.428223 1558.962646,494.909790 1558.798340,495.901917 
	C1558.452637,496.622711 1558.265503,496.803009 1558.049438,496.953247 
	C1557.698608,498.215240 1557.335938,499.474091 1556.999023,500.739777 
	C1555.858398,505.024475 1553.369873,507.926178 1548.695190,507.964325 
	C1536.371094,508.064789 1524.045654,508.027191 1511.720825,507.996307 
	C1507.454712,507.985626 1505.859497,505.871857 1504.680908,501.562836 
	C1503.325684,496.607727 1505.079468,492.248047 1505.067871,487.624573 
	C1504.948853,440.657166 1505.643677,393.674683 1504.584595,346.730865 
	C1504.283325,333.378479 1504.091553,319.822510 1502.663940,306.520844 
	C1501.140137,292.323425 1497.265747,278.251038 1489.497314,266.075134 
	C1484.864258,258.813232 1478.373047,252.633774 1472.203247,246.483292 
	C1465.571899,239.872757 1456.826294,237.393661 1447.925171,234.995697 
	C1438.217041,232.380341 1428.491943,229.684311 1418.537354,231.209946 
	C1409.937012,232.528030 1401.440063,235.078369 1393.179810,237.908035 
	C1384.007690,241.050049 1376.149536,246.854019 1369.123535,253.361862 
	C1361.705078,260.233185 1355.624878,268.389252 1351.372192,277.676086 
	C1347.364990,286.426727 1344.813354,295.533051 1342.776123,305.049438 
	C1339.920166,318.390320 1338.807373,331.649292 1338.669678,345.916504 
	C1337.998535,349.930725 1337.231445,353.185028 1337.274292,356.428558 
	C1337.406006,366.340637 1337.848999,376.248596 1338.171143,386.158142 
	C1338.135132,388.094757 1338.099121,390.031342 1337.908936,392.742981 
	C1337.524658,394.822449 1337.098755,396.126282 1337.094727,397.431458 
	C1337.055542,410.066254 1337.048950,422.701569 1337.146118,435.335846 
	C1337.158447,436.947266 1337.817505,438.553741 1338.176880,440.162506 
	C1338.176880,440.162506 1338.107178,440.476593 1337.957275,441.037354 
	C1338.166016,449.381592 1338.524414,457.165100 1338.882812,464.948578 
z"/>
<path fill="#454545" opacity="1.000000" stroke="none" 
	d="
M598.803040,1002.875244 
	C599.220825,1012.687378 599.922180,1022.499084 599.936218,1032.311768 
	C599.943176,1037.180908 599.439026,1042.345581 597.697815,1046.802979 
	C596.772888,1049.170776 592.769592,1051.665161 590.058105,1051.779297 
	C577.414001,1052.311157 564.735657,1052.074951 552.069946,1052.020386 
	C547.943237,1052.002563 543.643738,1046.812500 543.943420,1041.694092 
	C544.354614,1034.670044 545.899048,1027.677002 545.904602,1020.669861 
	C546.018188,876.843140 545.982178,733.016357 545.973755,589.189575 
	C545.973450,583.465149 547.795166,581.178650 553.569092,581.086121 
	C566.231689,580.883301 578.901550,580.914734 591.564758,581.100403 
	C595.355835,581.156006 597.890564,582.761230 598.171082,587.448547 
	C598.810120,598.127014 600.056824,608.769165 601.101624,619.906006 
	C602.317749,618.967041 603.774597,618.116089 604.888245,616.940063 
	C616.163391,605.033264 629.320312,595.706238 644.002075,588.530823 
	C651.959900,584.641663 659.967285,580.803040 668.177795,577.502441 
	C672.634399,575.710938 677.510254,574.735046 682.291199,574.027100 
	C690.963318,572.742920 699.711060,571.976440 708.416992,570.910217 
	C713.256714,570.317505 718.111023,568.799622 722.897095,569.022400 
	C734.034729,569.540710 745.542297,569.367676 756.140381,572.259155 
	C767.663452,575.402893 779.401733,578.119385 790.569275,583.171814 
	C806.751831,590.493164 822.163391,599.087646 835.536926,610.378418 
	C848.732727,621.519104 860.332520,634.479614 868.413940,650.382446 
	C873.975525,661.326599 879.206421,672.319275 882.490479,684.068481 
	C885.690186,695.515991 887.824341,707.120544 888.608887,719.200256 
	C889.102478,726.799622 890.413025,734.587952 889.844849,742.172607 
	C889.026245,753.100403 887.215881,764.006226 885.049866,774.764648 
	C883.238708,783.759888 881.006775,792.801575 877.685913,801.325867 
	C874.143494,810.419067 869.640137,819.252502 864.591370,827.617004 
	C857.263855,839.757019 848.261597,850.654236 837.577148,860.148987 
	C826.931030,869.609558 815.927368,878.753967 803.092957,884.814148 
	C792.789429,889.679260 781.430725,892.265808 770.668030,896.211975 
	C748.910095,904.189636 726.242798,903.305603 703.735657,902.877075 
	C692.560913,902.664246 681.403564,900.603027 670.825439,896.300232 
	C663.691833,893.398621 656.348022,891.018494 649.145386,888.280945 
	C638.554565,884.255676 629.557678,877.563965 620.619629,870.831482 
	C616.637695,867.832092 612.702637,864.712830 609.122925,861.257751 
	C606.747131,858.964600 605.089478,855.939270 602.998108,853.331787 
	C602.449890,852.648315 601.482910,852.300720 599.111938,850.764709 
	C599.111938,859.352539 599.111938,866.663391 598.961060,874.767822 
	C598.940369,881.436768 599.070496,887.312073 599.200684,893.187378 
	C599.186401,893.546875 599.172119,893.906311 598.995117,894.923218 
	C598.565552,897.880066 598.073242,900.178772 598.066101,902.479065 
	C597.976440,931.209961 597.942566,959.941101 597.963257,988.672119 
	C597.964294,990.101685 598.598145,991.530884 598.937378,992.960205 
	C598.965881,993.737488 598.994385,994.514709 598.793274,995.988770 
	C598.643433,998.748840 598.723267,1000.812012 598.803040,1002.875244 
M657.001282,629.715027 
	C655.610596,630.203613 654.010681,630.401855 652.863525,631.228394 
	C645.934998,636.220276 639.050781,641.278198 632.265076,646.462463 
	C622.891418,653.623779 616.164978,663.081421 610.287231,673.092834 
	C605.869202,680.618042 601.772339,688.306519 599.965149,697.103333 
	C598.134644,706.013550 594.115112,714.630127 593.355774,723.570679 
	C591.930420,740.356201 592.627563,757.271545 598.215454,773.474976 
	C602.215881,785.075073 606.446411,796.692810 614.257751,806.392334 
	C620.729126,814.427979 627.243591,822.296326 635.371155,829.051331 
	C647.374878,839.027832 660.630432,846.053467 675.205933,850.887390 
	C680.124146,852.518494 685.362305,853.225464 690.485718,854.187317 
	C697.665588,855.535339 704.830872,857.283081 712.081787,857.857422 
	C723.559265,858.766541 734.759827,856.837830 746.047180,854.219177 
	C756.952148,851.689331 766.929688,847.409485 776.123169,841.604004 
	C783.908569,836.687744 790.856201,830.342834 797.776917,824.183350 
	C807.660767,815.386658 814.120972,803.850220 820.491272,792.567261 
	C824.437500,785.577698 826.051208,777.251343 828.531128,769.467407 
	C829.170349,767.461121 829.004456,765.213074 829.419495,763.117920 
	C830.550842,757.407227 832.671387,751.735046 832.776733,746.017700 
	C832.914246,738.549988 833.839539,731.092834 831.183533,723.459045 
	C828.306885,715.191162 827.678284,706.156921 825.835449,697.506775 
	C824.967407,693.432251 824.037537,689.243713 822.267578,685.519409 
	C819.799255,680.325439 816.843750,675.286560 813.514343,670.594604 
	C807.002625,661.418274 801.341919,651.079895 793.027527,643.880310 
	C782.254822,634.552063 769.721924,627.273438 755.671082,622.629883 
	C743.315979,618.546692 731.055664,614.882324 718.061829,615.237122 
	C709.277405,615.476990 700.516663,616.956726 691.768555,618.065430 
	C679.678833,619.597595 668.342834,623.540161 657.001282,629.715027 
z"/>
<path fill="#454545" opacity="1.000000" stroke="none" 
	d="
M947.015747,934.009949 
	C946.979004,889.359009 946.922363,844.708130 946.910278,800.057190 
	C946.892273,733.426575 946.881775,666.796021 946.958984,600.165466 
	C946.964172,595.712219 947.549622,591.232239 948.205994,586.815369 
	C948.785095,582.918213 951.136963,581.063965 955.339111,580.908447 
	C965.093933,580.547302 974.830688,579.408081 984.580444,579.335022 
	C988.843567,579.303040 993.734192,580.166504 997.178467,582.407959 
	C999.526733,583.936096 1000.465454,588.470581 1000.946045,591.817139 
	C1001.555359,596.059814 1000.582275,600.528259 1001.178223,604.774902 
	C1001.768433,608.980713 1003.461121,613.031799 1004.985901,618.226318 
	C1009.069580,614.479553 1012.030457,612.150391 1014.525085,609.398682 
	C1021.032288,602.221008 1028.956055,597.121155 1037.530518,592.846252 
	C1046.418579,588.414856 1055.206421,583.780640 1064.129395,579.422058 
	C1066.565430,578.232117 1069.304688,577.621887 1071.948608,576.907349 
	C1078.202637,575.217163 1084.419067,573.279907 1090.773193,572.103577 
	C1095.620850,571.206177 1100.653076,571.102661 1105.608643,571.032959 
	C1116.772583,570.875793 1127.985352,570.332214 1139.091797,571.137451 
	C1148.352295,571.808777 1157.481323,574.226257 1166.683716,575.780823 
	C1180.058105,578.040039 1192.570557,583.041077 1204.508057,589.066528 
	C1216.435791,595.087036 1227.985229,602.063049 1237.395020,611.879761 
	C1244.048950,618.821533 1251.198730,625.403381 1257.036743,632.985474 
	C1266.223022,644.916077 1273.814209,657.915710 1278.223267,672.506653 
	C1280.538574,680.168823 1282.673950,687.887878 1285.121460,695.507080 
	C1290.219360,711.376831 1290.668579,727.774963 1289.867676,744.112000 
	C1289.342529,754.825562 1287.334717,765.538879 1285.145630,776.076660 
	C1283.254150,785.181274 1280.501953,794.149780 1277.531128,802.976868 
	C1273.584229,814.704163 1268.262573,825.883179 1260.485229,835.588989 
	C1253.968018,843.722107 1247.462891,852.040894 1239.828125,859.053406 
	C1232.062866,866.185913 1223.227539,872.297302 1214.316162,878.005676 
	C1199.588501,887.439514 1183.306396,893.586304 1166.296021,897.371155 
	C1153.904053,900.128601 1141.475830,903.197571 1128.500610,902.155762 
	C1122.306274,901.658508 1115.984253,902.633240 1109.811157,902.021362 
	C1101.933960,901.240723 1094.112427,899.714050 1086.334961,898.166443 
	C1078.987793,896.704529 1071.659912,895.042358 1064.457397,892.996948 
	C1060.214844,891.792053 1056.117920,889.898315 1052.158081,887.910889 
	C1044.533325,884.084106 1036.743530,880.450256 1029.595947,875.845703 
	C1021.959839,870.926453 1014.957947,865.015564 1007.741516,859.456665 
	C1005.708557,857.890686 1003.894592,856.040527 1001.455200,853.849121 
	C1001.275452,855.801575 1001.035583,857.199890 1001.034363,858.598511 
	C1001.007690,888.911255 1000.996826,919.224060 1001.005554,949.536804 
	C1001.013306,976.456116 1001.094177,1003.375610 1001.026184,1030.294678 
	C1001.014954,1034.744873 1000.467957,1039.199463 1000.054626,1043.641357 
	C999.640686,1048.089722 995.803589,1051.958252 991.428711,1051.996948 
	C979.263916,1052.104614 967.096497,1052.108032 954.932068,1051.974854 
	C950.169617,1051.922729 946.966248,1047.776978 946.911194,1041.919556 
	C946.845337,1034.922119 946.926392,1027.923340 947.236328,1020.124634 
	C947.749146,1017.858521 948.159241,1016.393188 948.161560,1014.927124 
	C948.201599,989.694031 948.214478,964.460876 948.141541,939.227905 
	C948.136536,937.487549 947.407898,935.749207 947.015747,934.009949 
M1192.362061,829.849060 
	C1192.982544,829.079285 1193.488037,828.166748 1194.240723,827.561035 
	C1206.571289,817.638489 1214.087646,804.163025 1221.236694,790.511963 
	C1223.501221,786.187927 1224.693359,781.263916 1226.082520,776.528320 
	C1228.493286,768.309631 1232.121948,760.112732 1232.635864,751.746765 
	C1233.555054,736.783569 1234.493286,721.499939 1230.563843,706.788391 
	C1227.033813,693.571960 1222.432007,680.600525 1214.178101,669.375000 
	C1209.106934,662.478149 1204.380859,655.201538 1198.485474,649.070801 
	C1192.183594,642.517456 1185.287354,636.112854 1177.552002,631.476196 
	C1169.341553,626.554565 1160.022827,623.226074 1150.849976,620.240295 
	C1142.307373,617.459717 1133.404663,614.969299 1124.509888,614.272705 
	C1110.076294,613.142090 1095.866333,615.297729 1081.922485,619.935242 
	C1070.433228,623.756409 1059.561401,628.130920 1049.221191,634.745300 
	C1036.060547,643.163818 1024.656860,653.128662 1016.130676,665.971619 
	C1009.320068,676.230408 1003.747009,687.144531 999.390381,698.979126 
	C995.189331,710.391235 995.702209,722.082886 993.431580,733.506409 
	C992.002014,740.699097 994.614746,748.696472 995.422180,756.331909 
	C995.664124,758.619507 995.530090,761.043213 996.261719,763.165527 
	C999.064331,771.295044 1001.357605,779.742859 1005.322144,787.294250 
	C1010.683777,797.506470 1016.699036,807.558472 1023.788940,816.618835 
	C1028.891602,823.139648 1035.730957,828.633911 1042.656372,833.311646 
	C1051.348145,839.182312 1060.673218,844.282959 1070.200195,848.688416 
	C1076.255371,851.488464 1083.139526,852.563904 1089.715698,854.148560 
	C1095.783447,855.610596 1101.924561,857.681946 1108.054199,857.755737 
	C1116.851929,857.861694 1125.608154,858.541504 1134.595947,856.342224 
	C1143.718506,854.109985 1152.793457,852.301392 1161.571777,848.671326 
	C1172.664917,844.084106 1182.666138,837.973755 1192.362061,829.849060 
z"/>
<path fill="#454545" opacity="1.000000" stroke="none" 
	d="
M877.627930,515.082275 
	C872.828064,515.051086 868.488220,515.185486 864.165222,514.974670 
	C852.492126,514.405640 840.710999,514.486938 829.188110,512.820557 
	C816.154968,510.935730 802.985291,508.856812 790.828064,503.184265 
	C782.341736,499.224548 773.503174,495.835205 765.515991,491.036041 
	C755.101013,484.778076 744.946472,477.953949 736.841187,468.575134 
	C730.286438,460.990570 722.729248,454.166077 716.917542,446.070587 
	C708.124207,433.821930 701.627380,420.278534 697.817444,405.483490 
	C695.679199,397.179810 694.104126,388.851318 692.548096,380.434692 
	C689.511353,364.009125 690.902710,347.625854 691.369995,331.357758 
	C691.712158,319.445221 695.711548,307.581146 698.567261,295.813538 
	C701.324036,284.453430 705.886292,273.773193 712.211426,263.858765 
	C715.405273,258.852448 717.745422,253.249359 721.295532,248.536789 
	C725.054688,243.546677 729.660400,239.160141 734.128540,234.744965 
	C744.742371,224.256851 756.548950,215.486481 769.699707,208.219009 
	C779.141235,203.001343 788.707275,198.557968 799.091187,195.875748 
	C806.118225,194.060593 813.394470,193.074097 820.267517,190.825272 
	C837.276001,185.260178 854.764343,187.145050 872.086670,187.069565 
	C877.681458,187.045181 883.286499,189.294388 888.885620,190.509171 
	C889.367737,190.613785 889.842590,190.878601 890.317505,190.870834 
	C902.160645,190.677383 912.702271,195.994003 923.670349,199.204651 
	C930.478577,201.197601 936.609619,205.565750 942.973633,208.999420 
	C951.787476,213.754898 959.714355,219.719742 966.725830,226.887115 
	C974.115662,234.441223 980.532593,242.659515 986.487122,251.474136 
	C994.177612,262.858215 998.107788,275.662079 1002.319153,288.257019 
	C1005.591736,298.044586 1006.586853,308.672546 1007.893555,319.015503 
	C1009.104126,328.597839 1008.958313,338.357330 1010.296692,347.914612 
	C1010.795227,351.474426 1011.374878,354.493683 1010.205688,358.092010 
	C1008.408081,363.624451 1006.017517,365.999756 1000.229309,366.000458 
	C956.738586,366.005920 913.247803,366.003998 869.757080,366.004639 
	C830.598755,366.005249 791.440369,365.999695 752.282043,366.013123 
	C745.701965,366.015350 745.612671,366.072510 747.045410,372.770905 
	C748.981018,381.820679 750.212463,391.150635 753.357605,399.772522 
	C756.022217,407.077454 760.840210,413.630676 764.964783,420.357422 
	C767.706787,424.829285 770.426270,429.473083 773.990723,433.252441 
	C784.125732,443.998352 796.081116,452.397461 809.540771,458.536072 
	C816.320618,461.628174 823.207581,464.491638 830.104309,467.316315 
	C831.593079,467.926025 833.340881,467.881866 834.954529,468.211456 
	C845.832520,470.433258 856.845947,472.083740 867.893738,470.815735 
	C874.711548,470.033173 881.486755,468.050995 888.022034,465.841217 
	C896.621216,462.933502 905.248474,459.834137 913.331970,455.761688 
	C920.025940,452.389282 926.318298,448.223633 931.542480,442.310516 
	C935.921631,437.353882 942.042358,433.962616 947.228394,429.680145 
	C949.614807,427.709564 951.721680,425.362091 953.760193,423.016022 
	C958.591614,417.455750 963.490112,417.630005 968.924805,422.336975 
	C974.817139,427.440308 981.106750,432.330536 987.901855,436.085449 
	C996.905884,441.061005 998.963867,449.799011 991.812073,457.251251 
	C985.602356,463.721863 979.864502,470.771820 972.994690,476.448242 
	C965.499573,482.641266 957.301575,488.213196 948.751465,492.838776 
	C939.232849,497.988403 929.140198,502.220581 918.975098,505.981110 
	C912.255676,508.466949 904.984436,509.491028 897.930908,511.035614 
	C891.339294,512.479065 884.708923,513.745850 877.627930,515.082275 
M786.660522,323.146606 
	C789.483459,323.221954 792.306458,323.362213 795.129395,323.362976 
	C844.330627,323.376404 893.531799,323.373413 942.733032,323.371155 
	C945.724854,323.371002 948.722351,323.442688 951.704346,323.264862 
	C952.421875,323.222046 953.087708,322.314728 953.828979,320.935486 
	C953.487366,316.161774 954.165894,311.021088 952.606140,306.685577 
	C948.506775,295.290863 944.418518,283.681488 938.431580,273.244110 
	C933.755005,265.091095 927.319885,257.008789 919.702881,251.725388 
	C910.819580,245.563522 901.112488,239.673981 889.766846,237.871216 
	C882.458130,236.709854 875.301880,233.373703 868.054749,233.302261 
	C854.601562,233.169662 840.927856,231.115189 827.654968,235.117844 
	C820.808655,237.182465 813.400940,238.491364 807.426514,242.096542 
	C797.021851,248.375153 787.027771,255.580551 777.798157,263.490295 
	C768.662109,271.319763 760.776672,280.606171 755.784485,291.832520 
	C753.345886,297.316467 751.614075,303.115448 749.160767,308.591949 
	C745.879211,315.917389 747.872986,320.409302 755.489258,321.873627 
	C755.812500,321.935730 756.152466,321.953766 756.456116,322.068146 
	C766.106567,325.703461 775.911133,324.103119 786.660522,323.146606 
z"/>
<path fill="#454545" opacity="1.000000" stroke="none" 
	d="
M374.324280,890.522217 
	C368.407867,892.743225 362.892059,895.001770 357.203613,896.672363 
	C350.254944,898.713135 343.240845,901.224182 336.113281,901.811951 
	C323.061829,902.888123 309.882446,903.349365 296.800690,902.866760 
	C282.767700,902.348999 269.230194,898.872986 256.053162,893.634949 
	C247.489120,890.230713 239.375381,886.308167 231.642212,881.331909 
	C221.579956,874.856873 212.714523,866.785950 206.263748,857.078064 
	C201.204041,849.463623 196.417877,840.983398 195.798370,831.059937 
	C195.309875,823.234741 193.303116,815.486023 193.051239,807.668457 
	C192.586731,793.250977 195.712265,779.119507 201.233841,766.040283 
	C209.468414,746.534729 222.896118,731.223938 243.078140,722.893250 
	C252.321793,719.077637 261.370361,714.638550 270.874542,711.649780 
	C279.516022,708.932312 288.654388,707.794067 297.574677,705.964172 
	C303.446106,704.759644 309.317017,703.552368 315.193329,702.372070 
	C316.331146,702.143494 317.489990,701.917297 318.644135,701.888000 
	C331.260559,701.567932 343.881378,701.390076 356.494293,700.971191 
	C373.944244,700.391541 391.386627,699.585205 408.835907,698.983215 
	C417.123718,698.697327 423.581085,686.289429 419.826752,680.539185 
	C419.238678,679.638550 418.932800,678.392517 418.920135,677.301270 
	C418.692932,657.776855 408.171478,643.483887 394.459198,631.413147 
	C386.263214,624.198364 375.748566,620.800720 365.120117,617.949524 
	C349.774811,613.833069 334.253845,614.958130 318.915680,616.349243 
	C309.605957,617.193604 300.423767,620.651917 291.460815,623.738892 
	C283.978973,626.315735 276.626709,629.571106 269.715851,633.421387 
	C262.338318,637.531677 255.554260,642.704773 248.495148,647.389954 
	C243.276581,650.853638 240.064575,651.207703 235.720764,646.925232 
	C229.146912,640.444092 222.999008,633.477783 217.175964,626.306885 
	C213.265854,621.491699 214.398300,614.712891 218.246201,610.038391 
	C225.398438,601.349731 235.213806,597.087280 245.160278,592.865784 
	C252.733765,589.651428 260.049652,585.774231 267.757294,582.947571 
	C275.480438,580.115173 283.636841,578.484741 291.439606,575.843689 
	C300.299744,572.844788 309.571442,572.317688 318.547363,570.466064 
	C330.039398,568.095337 341.507111,568.243652 352.552124,569.434631 
	C363.286865,570.592285 374.220459,572.203125 384.984375,575.157654 
	C400.238495,579.344849 413.944336,586.242554 427.401947,593.781738 
	C439.071228,600.319031 448.944122,609.327820 455.988403,621.051941 
	C460.492889,628.549011 463.890900,636.336243 466.391235,644.842773 
	C469.319824,654.806091 470.092621,664.649780 470.123413,674.866089 
	C470.270844,723.799805 470.052124,772.750122 471.402374,821.654785 
	C471.782684,835.428772 471.274139,849.523743 473.537598,863.036682 
	C475.186890,872.882874 474.218719,882.395996 475.114929,892.466187 
	C467.379028,893.361877 459.967682,894.739441 452.528046,894.914734 
	C446.719910,895.051636 440.590759,894.523682 435.169586,892.652954 
	C432.458740,891.717529 430.138641,887.379456 429.169312,884.125366 
	C426.927765,876.600647 425.689331,868.781372 423.866028,861.123962 
	C423.519135,859.667175 422.352386,858.405579 421.188568,856.410461 
	C415.502289,861.358215 410.425415,866.092468 405.010559,870.401978 
	C399.104950,875.101990 393.018951,879.606262 386.754211,883.812439 
	C382.972015,886.351685 378.700104,888.161499 374.324280,890.522217 
M265.330109,840.127136 
	C273.226135,845.706482 280.524597,851.739502 290.528412,854.310974 
	C297.375641,856.071228 303.941650,858.588684 311.154480,858.905457 
	C325.744690,859.546265 340.018188,858.808533 354.061920,853.867065 
	C365.678864,849.779541 375.913025,843.559631 385.338440,836.027832 
	C394.649353,828.587463 402.129944,819.345581 407.904602,808.843872 
	C409.984100,805.062134 412.749451,801.361633 413.643646,797.282471 
	C415.849640,787.219543 420.147736,777.467773 418.967560,766.787292 
	C418.852905,765.749878 419.443787,764.613708 419.788239,763.549561 
	C423.863495,750.959656 419.082092,739.300354 404.448517,739.169312 
	C390.685608,739.045959 376.900299,740.189636 363.144257,741.076904 
	C356.636322,741.496582 350.134369,742.388062 343.700867,743.483643 
	C336.151245,744.769226 328.689972,746.565674 321.169525,748.033752 
	C315.357727,749.168152 309.127625,749.190979 303.764465,751.377991 
	C292.547363,755.952087 280.273041,757.901123 270.130096,765.234253 
	C258.542175,773.612061 249.517197,783.380615 250.218216,798.820190 
	C250.512604,805.304016 250.896851,811.929260 252.487701,818.172363 
	C254.559662,826.303589 257.709808,834.215881 265.330109,840.127136 
z"/>
<path fill="#454545" opacity="1.000000" stroke="none" 
	d="
M1372.411865,675.412842 
	C1378.769897,685.765381 1387.817383,691.332153 1399.165283,694.153259 
	C1405.419556,695.708008 1411.163940,699.223999 1417.369019,701.087158 
	C1427.203491,704.040039 1437.297485,706.121155 1447.161255,708.985901 
	C1460.092651,712.741394 1472.972900,716.701477 1485.749512,720.951416 
	C1495.125488,724.070190 1504.746948,726.944153 1513.431519,731.503357 
	C1521.334961,735.652405 1528.408447,741.582642 1535.335815,747.343323 
	C1545.690308,755.953796 1551.349243,767.710083 1554.727905,780.420959 
	C1558.242188,793.641846 1557.626343,807.364685 1556.764526,820.782349 
	C1556.266357,828.541077 1553.150269,836.382874 1549.982056,843.650879 
	C1546.568115,851.482056 1542.604004,859.399170 1537.296509,866.006958 
	C1528.040405,877.530701 1515.839966,885.556396 1501.693848,890.238220 
	C1493.206421,893.047180 1484.599121,895.492737 1476.061401,898.152100 
	C1455.058105,904.694336 1433.571167,903.604614 1412.082153,902.137146 
	C1406.014893,901.722778 1399.815308,901.414185 1393.977051,899.898804 
	C1384.612305,897.468140 1375.376831,894.394714 1366.314941,890.985901 
	C1358.498047,888.045410 1350.482056,885.080933 1343.470825,880.669983 
	C1330.037231,872.218689 1316.548584,863.572754 1306.955444,850.386658 
	C1302.140015,843.767822 1303.248413,837.264343 1309.095703,831.283081 
	C1316.440308,823.770203 1325.543579,819.324829 1334.993286,815.601868 
	C1337.870117,814.468445 1342.397217,814.553589 1344.931274,816.103516 
	C1351.361816,820.036743 1357.311646,824.859558 1363.055298,829.790466 
	C1374.084839,839.259094 1386.315430,846.762329 1399.577515,852.510254 
	C1403.834839,854.355469 1408.640137,855.229736 1413.287109,855.816956 
	C1421.370728,856.838440 1429.546387,857.994080 1437.645020,857.759949 
	C1444.083130,857.573853 1450.466064,855.407898 1456.869385,854.101196 
	C1461.980225,853.058228 1467.219360,852.407898 1472.163574,850.834961 
	C1481.538086,847.852783 1489.449219,842.323425 1495.226562,834.378662 
	C1500.204590,827.533081 1503.307495,819.882690 1503.172607,811.020203 
	C1503.040649,802.364563 1502.668701,793.842712 1496.955200,786.837585 
	C1491.266846,779.863342 1483.753174,775.294678 1475.305542,772.273560 
	C1465.332886,768.707092 1455.391968,765.045166 1445.356567,761.664185 
	C1440.949707,760.179504 1436.325317,759.352173 1431.830688,758.114014 
	C1419.798584,754.799683 1407.698120,751.699158 1395.782471,748.005310 
	C1380.298584,743.205322 1364.812012,738.234192 1350.729980,729.961914 
	C1338.313477,722.667969 1329.213989,712.195557 1324.134033,698.743469 
	C1321.651855,692.170349 1321.008911,684.925049 1318.882080,678.189697 
	C1316.276978,669.939758 1316.552612,661.529785 1317.078369,653.220093 
	C1317.847656,641.061035 1321.374390,629.597656 1327.351440,618.796936 
	C1337.356079,600.717957 1353.957520,590.718750 1371.621460,582.196777 
	C1379.072510,578.602173 1387.167969,575.995300 1395.246826,574.148682 
	C1403.296875,572.308716 1411.681519,571.287720 1419.940430,571.147400 
	C1434.559082,570.899048 1449.197510,571.482483 1463.818726,571.977417 
	C1466.792114,572.078125 1469.793457,573.125305 1472.666260,574.083496 
	C1481.230225,576.939514 1489.914917,579.541382 1498.229980,583.014709 
	C1517.898804,591.230774 1534.712769,603.254150 1547.429077,620.746643 
	C1550.818848,625.409363 1548.596802,634.306885 1543.246948,638.542175 
	C1535.949341,644.319397 1528.388062,649.770325 1520.836548,655.217896 
	C1514.436890,659.834473 1510.537720,658.469604 1504.815308,651.347412 
	C1491.907227,635.281860 1476.262085,623.435547 1455.801025,617.884338 
	C1442.195923,614.193176 1428.582031,613.866516 1415.360229,616.473755 
	C1402.569214,618.996033 1390.625122,624.490967 1380.781128,634.393005 
	C1373.995972,641.218262 1370.103760,649.113098 1368.589478,657.721436 
	C1367.633545,663.154907 1370.816284,669.316589 1372.411865,675.412842 
z"/>
<path fill="#454545" opacity="1.000000" stroke="none" 
	d="
M1842.917480,844.928101 
	C1850.261353,841.041260 1857.365356,837.443542 1864.497314,833.902161 
	C1876.018188,828.181641 1887.557373,822.498230 1899.088745,816.798950 
	C1913.201294,809.823914 1927.323975,802.868896 1941.423462,795.867432 
	C1953.413208,789.913513 1965.355469,783.863953 1977.356934,777.933655 
	C1990.358765,771.508972 2003.405884,765.176025 2016.430664,758.797729 
	C2029.067627,752.609375 2041.712036,746.436340 2054.322266,740.193970 
	C2055.827148,739.449036 2057.137207,738.310486 2059.818604,736.479797 
	C2050.553467,731.850098 2042.386719,727.746216 2034.199341,723.684204 
	C2024.300415,718.773132 2014.362305,713.940918 2004.480957,708.994812 
	C1993.317749,703.407104 1982.201172,697.726135 1971.059692,692.094910 
	C1963.005737,688.024109 1955.014038,683.821350 1946.866699,679.946655 
	C1938.531738,675.982727 1929.930054,672.573120 1921.643433,668.515930 
	C1908.107178,661.888428 1894.760376,654.875366 1881.281372,648.129517 
	C1864.742676,639.852417 1848.146729,631.689575 1831.582397,623.463440 
	C1824.756714,620.073608 1817.693359,617.069214 1811.195801,613.133972 
	C1802.682617,607.978027 1796.044678,601.115173 1797.035645,590.025024 
	C1797.791748,581.562134 1798.915283,573.131226 1799.948975,564.695129 
	C1800.058838,563.799255 1800.663086,562.964050 1801.342407,561.399475 
	C1816.391724,568.272827 1831.244873,574.872498 1845.922485,581.841675 
	C1852.747559,585.082214 1859.122070,589.261902 1865.897705,592.618530 
	C1874.939331,597.097778 1884.239624,601.053345 1893.305054,605.487061 
	C1902.765015,610.113831 1911.993164,615.216736 1921.475952,619.793640 
	C1934.060547,625.867554 1946.896118,631.424866 1959.437988,637.582581 
	C1976.329102,645.875549 1993.008789,654.598450 2009.844482,663.005981 
	C2022.639648,669.395813 2035.522095,675.611938 2048.394287,681.846252 
	C2055.393066,685.235840 2062.487793,688.427490 2069.473877,691.842163 
	C2078.477539,696.242981 2087.382812,700.845703 2096.393799,705.231506 
	C2102.652588,708.277710 2109.208496,710.760132 2115.287354,714.117554 
	C2122.842285,718.290161 2125.967041,725.540588 2125.864014,733.790833 
	C2125.791748,739.571655 2125.140381,745.604919 2123.263184,751.009705 
	C2122.064209,754.460999 2118.672852,757.907471 2115.367920,759.731323 
	C2104.601318,765.672913 2093.413818,770.849609 2082.405518,776.355286 
	C2072.073486,781.522522 2061.827881,786.866333 2051.425781,791.887207 
	C2041.438843,796.707642 2031.195923,801.002441 2021.255005,805.912231 
	C2009.453247,811.741089 1997.908447,818.088379 1986.152588,824.012939 
	C1972.533325,830.876526 1958.834839,837.584778 1945.117432,844.250488 
	C1930.048706,851.572693 1914.834473,858.599548 1899.839355,866.067993 
	C1884.263184,873.825928 1868.975464,882.165405 1853.370361,889.862976 
	C1840.293701,896.313293 1826.951172,902.225891 1813.703979,908.327820 
	C1810.813721,909.659180 1807.901245,911.371399 1804.854858,911.750732 
	C1803.362671,911.936584 1801.023438,909.786804 1799.996704,908.121338 
	C1798.692627,906.005554 1798.583984,903.191345 1797.515015,900.884399 
	C1794.705444,894.820740 1798.525513,875.685425 1802.070679,870.116699 
	C1806.904053,862.524109 1814.550415,859.164062 1821.543945,854.953735 
	C1828.147949,850.977783 1835.607178,848.422668 1842.917480,844.928101 
z"/>
<path fill="#454545" opacity="1.000000" stroke="none" 
	d="
M1720.901489,578.955872 
	C1723.605469,570.542297 1729.320190,565.485718 1737.019653,562.632385 
	C1739.097290,561.862549 1741.885498,561.325989 1743.797363,562.078979 
	C1752.854614,565.646179 1762.204102,563.261780 1771.374023,564.002991 
	C1773.906128,564.207581 1776.440308,564.386536 1779.826782,564.641541 
	C1775.314697,574.903625 1771.198364,584.078918 1767.239258,593.321533 
	C1763.248291,602.639282 1759.506958,612.064209 1755.485107,621.368286 
	C1751.162354,631.368408 1746.517456,641.230042 1742.239258,651.248657 
	C1737.687256,661.908386 1733.476440,672.713501 1728.967773,683.392334 
	C1726.426392,689.411865 1723.568726,695.297363 1720.882935,701.256531 
	C1717.713623,708.288635 1714.498047,715.301453 1711.442261,722.382812 
	C1706.290405,734.321167 1701.268433,746.315369 1696.154419,758.270142 
	C1692.449463,766.931152 1688.721680,775.582764 1684.936401,784.208862 
	C1679.511230,796.571411 1673.926514,808.864868 1668.593140,821.266602 
	C1663.980713,831.991699 1659.760254,842.885742 1655.114746,853.596008 
	C1650.621582,863.955017 1645.839233,874.189392 1641.118164,884.448303 
	C1639.182983,888.653442 1637.242920,892.874146 1634.963867,896.894287 
	C1634.066772,898.476807 1632.441406,899.937927 1630.799927,900.758972 
	C1620.722046,905.800110 1610.330566,906.666565 1599.407715,903.391907 
	C1595.384277,902.185608 1590.914795,902.467407 1586.698364,902.075073 
	C1584.317627,896.073120 1587.807861,891.571838 1589.680054,886.842407 
	C1592.230957,880.398376 1595.159180,874.104309 1597.890869,867.731018 
	C1601.064331,860.327515 1604.313721,852.953674 1607.323364,845.483704 
	C1610.983643,836.398804 1614.294556,827.172363 1618.005615,818.109070 
	C1621.272827,810.129700 1624.893433,802.295288 1628.338745,794.388489 
	C1631.512085,787.105774 1634.600952,779.785767 1637.836792,772.531189 
	C1640.491089,766.580444 1643.458130,760.765869 1646.005371,754.771484 
	C1648.197510,749.612793 1649.856812,744.229187 1651.997559,739.046448 
	C1654.768433,732.338623 1657.837402,725.754517 1660.680542,719.075623 
	C1664.499023,710.105530 1668.127319,701.053650 1672.012329,692.112915 
	C1677.987549,678.360718 1684.211182,664.715942 1690.137817,650.943176 
	C1694.215088,641.468140 1697.843872,631.800415 1701.899292,622.315613 
	C1706.158203,612.355347 1710.700684,602.516602 1715.091675,592.612549 
	C1717.046997,588.201904 1718.935181,583.761536 1720.901489,578.955872 
z"/>
<path fill="#616161" opacity="1.000000" stroke="none" 
	d="
M1636.189209,311.606903 
	C1636.497681,321.446014 1636.935791,331.739868 1636.953369,342.034454 
	C1637.033569,389.111511 1637.005005,436.188751 1636.972534,483.265900 
	C1636.970947,485.571686 1636.563354,487.877228 1636.202148,490.565125 
	C1636.081299,431.318909 1636.103271,371.690460 1636.189209,311.606903 
z"/>
<path fill="#616161" opacity="1.000000" stroke="none" 
	d="
M1558.954346,418.503113 
	C1558.474365,413.255463 1557.726685,407.547241 1557.609497,401.826111 
	C1557.323364,387.845642 1557.268921,373.859161 1557.273560,359.875183 
	C1557.274292,357.449860 1558.020508,355.024841 1558.658447,352.324463 
	C1558.920654,374.045074 1558.947021,396.040863 1558.954346,418.503113 
z"/>
<path fill="#616161" opacity="1.000000" stroke="none" 
	d="
M598.984375,992.507446 
	C598.598145,991.530884 597.964294,990.101685 597.963257,988.672119 
	C597.942566,959.941101 597.976440,931.209961 598.066101,902.479065 
	C598.073242,900.178772 598.565552,897.880066 599.010010,895.192749 
	C599.487061,896.983093 600.068115,899.164490 600.042908,901.338928 
	C599.749023,926.720764 599.351868,952.101257 599.013672,977.482605 
	C598.948975,982.338989 599.021973,987.197266 598.984375,992.507446 
z"/>
<path fill="#616161" opacity="1.000000" stroke="none" 
	d="
M946.963684,934.475464 
	C947.407898,935.749207 948.136536,937.487549 948.141541,939.227905 
	C948.214478,964.460876 948.201599,989.694031 948.161560,1014.927124 
	C948.159241,1016.393188 947.749146,1017.858521 947.272095,1019.656372 
	C946.980835,991.639282 946.946228,963.290100 946.963684,934.475464 
z"/>
<path fill="#616161" opacity="1.000000" stroke="none" 
	d="
M1338.491943,385.864899 
	C1337.848999,376.248596 1337.406006,366.340637 1337.274292,356.428558 
	C1337.231445,353.185028 1337.998535,349.930725 1338.594971,346.385681 
	C1338.800781,359.250519 1338.806763,372.411102 1338.491943,385.864899 
z"/>
<path fill="#616161" opacity="1.000000" stroke="none" 
	d="
M620.984375,259.595825 
	C607.710571,259.974762 594.254028,259.979675 580.318726,259.977783 
	C580.740417,259.315552 581.634277,258.100281 582.542480,258.089478 
	C594.449585,257.947693 606.358826,257.950317 618.267029,258.016022 
	C619.114136,258.020721 619.956909,258.801758 620.984375,259.595825 
z"/>
<path fill="#616161" opacity="1.000000" stroke="none" 
	d="
M508.811768,258.654602 
	C500.494507,259.278046 491.882538,259.593262 483.269714,259.880890 
	C480.778900,259.964081 478.285400,259.968140 475.314270,259.989288 
	C476.264099,259.306824 477.689636,258.079254 479.122009,258.071259 
	C488.919464,258.016296 498.718323,258.217316 508.811768,258.654602 
z"/>
<path fill="#616161" opacity="1.000000" stroke="none" 
	d="
M1558.874390,460.469910 
	C1558.302124,459.099457 1557.332153,457.275513 1557.287720,455.429260 
	C1557.106201,447.887238 1557.135742,440.337250 1557.259399,432.792999 
	C1557.287720,431.061890 1557.998291,429.341949 1558.619629,427.343140 
	C1558.863770,438.048370 1558.882935,449.027283 1558.874390,460.469910 
z"/>
<path fill="#616161" opacity="1.000000" stroke="none" 
	d="
M1338.495361,439.898132 
	C1337.817505,438.553741 1337.158447,436.947266 1337.146118,435.335846 
	C1337.048950,422.701569 1337.055542,410.066254 1337.094727,397.431458 
	C1337.098755,396.126282 1337.524658,394.822449 1337.981445,393.152405 
	C1338.140137,405.481964 1338.020264,418.177185 1338.043091,430.872162 
	C1338.048340,433.793121 1338.543945,436.713226 1338.495361,439.898132 
z"/>
<path fill="#616161" opacity="1.000000" stroke="none" 
	d="
M1121.412354,373.912628 
	C1121.479126,364.536407 1121.957275,355.064117 1122.618408,345.339172 
	C1122.890747,353.531464 1123.027588,361.976471 1123.012207,370.421234 
	C1123.010132,371.553711 1122.238892,372.684814 1121.412354,373.912628 
z"/>
<path fill="#616161" opacity="1.000000" stroke="none" 
	d="
M1338.917847,464.484131 
	C1338.524414,457.165100 1338.166016,449.381592 1337.935059,441.196686 
	C1338.368164,444.439606 1338.810059,448.078979 1338.943115,451.729614 
	C1339.092041,455.820984 1338.961670,459.922546 1338.917847,464.484131 
z"/>
<path fill="#616161" opacity="1.000000" stroke="none" 
	d="
M1122.932861,468.489685 
	C1122.243652,463.231171 1121.594360,457.510010 1120.987549,451.312256 
	C1121.718384,453.746918 1122.675171,456.627075 1123.017578,459.578522 
	C1123.339722,462.355621 1123.013794,465.207886 1122.932861,468.489685 
z"/>
<path fill="#616161" opacity="1.000000" stroke="none" 
	d="
M1558.974121,349.497009 
	C1558.283325,344.248444 1557.629517,338.537262 1556.994751,332.368286 
	C1557.679565,337.618439 1558.345337,343.326416 1558.974121,349.497009 
z"/>
<path fill="#616161" opacity="1.000000" stroke="none" 
	d="
M1558.954834,493.482727 
	C1558.802734,486.538055 1558.689087,479.129486 1558.737549,471.400604 
	C1558.930908,478.393127 1558.962036,485.705963 1558.954834,493.482727 
z"/>
<path fill="#616161" opacity="1.000000" stroke="none" 
	d="
M599.496521,892.944336 
	C599.070496,887.312073 598.940369,881.436768 598.944092,875.151672 
	C599.302917,878.403381 599.573914,882.062805 599.736023,885.727051 
	C599.838745,888.048096 599.779175,890.376282 599.496521,892.944336 
z"/>
<path fill="#616161" opacity="1.000000" stroke="none" 
	d="
M251.894226,286.445679 
	C251.756775,279.872894 251.662857,272.839233 251.742737,265.435181 
	C251.923615,272.038147 251.930695,279.011444 251.894226,286.445679 
z"/>
<path fill="#616161" opacity="1.000000" stroke="none" 
	d="
M1338.828857,483.433289 
	C1338.699707,480.821777 1338.601440,477.768250 1338.671265,474.418884 
	C1338.846069,477.079132 1338.852905,480.035217 1338.828857,483.433289 
z"/>
<path fill="#616161" opacity="1.000000" stroke="none" 
	d="
M1121.413086,496.015442 
	C1121.490845,493.568817 1121.963867,491.025055 1122.635498,488.277161 
	C1122.492188,490.688141 1122.150269,493.303223 1121.413086,496.015442 
z"/>
<path fill="#616161" opacity="1.000000" stroke="none" 
	d="
M1122.867554,476.506134 
	C1122.693481,475.094818 1122.564697,473.264709 1122.675049,471.237305 
	C1122.913818,472.722473 1122.913208,474.404877 1122.867554,476.506134 
z"/>
<path fill="#616161" opacity="1.000000" stroke="none" 
	d="
M1338.821777,471.511139 
	C1338.686890,470.438232 1338.581543,468.962372 1338.662109,467.277283 
	C1338.849121,468.414795 1338.850342,469.761475 1338.821777,471.511139 
z"/>
<path fill="#616161" opacity="1.000000" stroke="none" 
	d="
M598.859863,1002.452148 
	C598.723267,1000.812012 598.643433,998.748840 598.740479,996.374878 
	C598.917114,998.052429 598.916931,1000.040710 598.859863,1002.452148 
z"/>
<path fill="#616161" opacity="1.000000" stroke="none" 
	d="
M1122.887085,485.501099 
	C1122.735107,484.421356 1122.623169,482.940582 1122.666260,481.268738 
	C1122.856689,482.418488 1122.891846,483.759247 1122.887085,485.501099 
z"/>
<path fill="#616161" opacity="1.000000" stroke="none" 
	d="
M1558.877441,424.519470 
	C1558.750122,423.737335 1558.650024,422.572327 1558.699463,421.237549 
	C1558.867554,422.090698 1558.886108,423.113647 1558.877441,424.519470 
z"/>
<path fill="#616161" opacity="1.000000" stroke="none" 
	d="
M1558.879639,467.501831 
	C1558.805054,466.505920 1558.757690,465.112671 1558.780762,463.421753 
	C1558.869751,464.450897 1558.888306,465.777679 1558.879639,467.501831 
z"/>
<path fill="#616161" opacity="1.000000" stroke="none" 
	d="
M1558.250488,496.884003 
	C1558.265503,496.803009 1558.452637,496.622711 1558.731201,496.258118 
	C1558.858521,496.419861 1558.725098,496.656830 1558.250488,496.884003 
z"/>
<path fill="#616161" opacity="1.000000" stroke="none" 
	d="
M251.891296,261.717957 
	C252.117966,261.754761 252.179520,261.532013 251.957001,261.177307 
	C251.856110,261.097534 251.909348,261.510529 251.891296,261.717957 
z"/>
</svg>